<svg width="1728" height="1113" viewBox="0 0 1728 1113" fill="none" xmlns="http://www.w3.org/2000/svg">
<g clip-path="url(#clip0_127_2)">
<path d="M1728 1113H0V0.000158429H1728V1113Z" fill="#111111"/>
<path d="M822.132 -22.193C796.451 -30.4336 776.936 -11.802 756.608 -0.736509C737.529 9.64778 717.537 13.9151 708.996 36.3932C705.524 45.531 704.72 55.6815 699.568 64.0468C695.764 70.2195 689.896 74.9052 684.145 79.4596C670.005 90.6586 655.866 101.858 641.726 113.057C632.526 120.345 623.108 127.882 617.338 137.932C611.569 147.985 610.226 161.281 617.209 170.585C629.386 186.813 655.523 181.232 675.111 187.835C700.656 196.445 713.18 225.505 737.577 236.802C735.921 249.41 735.877 265.241 747.496 271.198C757.806 276.483 769.994 270.116 780.773 265.787C793.281 260.763 807.725 258.537 820.323 263.347C832.921 268.158 842.538 281.511 839.469 294.26C837.016 304.455 827.267 314.013 831.136 323.79C832.834 328.077 836.845 331.064 839.423 334.92C854.678 357.765 818.687 390.984 853.415 403.225C879.425 412.391 910.969 404.115 932.484 426.733C953.397 448.722 943.052 486.72 925.355 507.622C907.437 528.786 874.628 516.481 858.535 541.134C855.754 545.395 854.044 550.241 851.266 554.503C841.522 569.456 821.261 574.112 807.619 585.883C788.502 602.378 784.961 630.216 768.939 649.543C758.576 662.041 743.727 670.124 730.591 679.896C717.456 689.662 705.148 702.711 703.78 718.669C702.667 731.689 709.54 743.827 709.104 756.651C708.616 771.162 703.275 781.943 705.337 797.322C705.982 802.113 707.035 807.13 710.353 810.743C714.604 815.368 721.44 816.577 727.253 819.166C751.47 829.955 757.092 864.205 781.676 874.188C794.866 879.546 811.81 876.973 821.989 886.685C830.525 894.832 830.189 908.84 824.36 918.976C818.533 929.108 808.455 936.205 798.527 942.716C742.655 979.349 681.249 1008.09 616.864 1027.75C612.684 1029.02 608.109 1030.25 604.019 1028.73C596.584 1025.96 595.434 1016.52 591.639 1009.75C585.181 998.23 569.855 994.145 556.322 994.975C542.788 995.806 529.72 1000.33 516.188 1001.16C469.304 1004.04 433.336 964.479 396.816 935.933C366.569 912.291 331.38 894.571 293.995 884.156C286.293 882.01 277.89 879.787 273.102 873.578C266.462 864.973 269.646 852.948 268.948 842.232C267.785 824.312 253.532 807.911 235.464 803.7C226.103 801.516 216.31 802.364 206.69 801.888C165.72 799.864 121.328 774.686 86.8967 796.234C78.0805 801.754 70.5572 810.186 60.1867 811.8C52.3126 813.029 44.469 809.997 37.1105 807.025C3.66841 793.522 -29.773 780.019 -63.2151 766.519" stroke="#555555" stroke-opacity="0.41" stroke-width="4" stroke-miterlimit="10"/>
<path d="M1767.33 627.356C1744.11 628.892 1723.82 613.564 1702.04 605.626C1676.05 596.156 1647.45 597.254 1619.78 594.787C1551.16 588.672 1485.34 560.059 1416.44 561.373C1361.61 562.421 1308.88 582.524 1260.99 608.344C1237.66 620.918 1214.72 635.276 1197.95 655.368C1172.22 686.198 1163.7 729.683 1176 767.46C1188.3 805.24 1221.05 836.188 1260.41 847.236C1299.76 858.277 1341.82 850.127 1382.75 851.774C1423.69 853.424 1470.03 870.54 1481.61 908.511C1483.76 915.571 1484.61 923.107 1488.24 929.58C1494.1 940.027 1506 945.705 1517.25 950.498C1539.64 960.034 1563.97 968.824 1588.04 964.595C1610.59 960.635 1629.28 945.885 1650.21 936.848C1691 919.229 1741.64 925.154 1776.91 951.671" stroke="#555555" stroke-opacity="0.41" stroke-width="4" stroke-miterlimit="10"/>
<path d="M1383.09 -27.2795C1362.73 -6.40848 1341.06 13.8681 1326.53 38.8817C1312 63.8974 1305.46 95.1305 1317.37 121.408C1329.27 147.677 1358.73 169.521 1353.62 197.771C1351.97 206.887 1346.67 215.119 1345.19 224.263C1342.58 240.319 1352.5 256.364 1366.01 266.038C1379.53 275.715 1396.16 280.238 1412.44 284.336C1437.87 290.74 1464.42 296.608 1490.21 291.722C1516 286.836 1540.86 268.273 1544.1 243.077C1545.62 231.295 1542.39 219.404 1542.82 207.539C1543.25 195.674 1549.13 182.376 1561.02 179.402C1570.89 176.938 1582.13 182.316 1591.2 177.824C1604.42 171.273 1600.49 151.987 1606.81 138.996C1615.02 122.156 1639.5 119.394 1657.58 125.829C1675.65 132.265 1690.68 145.046 1708.61 151.851C1731.14 160.401 1757.63 158.556 1778.66 146.967" stroke="#555555" stroke-opacity="0.41" stroke-width="4" stroke-miterlimit="10"/>
<path d="M1750.12 662.384C1710.82 645.692 1667.52 640.351 1624.92 635.189C1592.05 631.205 1559.17 627.22 1526.3 623.233C1486.84 618.454 1446.99 613.666 1407.42 617.506C1367.38 621.395 1328.3 634.239 1294.12 654.743C1273.47 667.124 1254.09 682.864 1243.06 703.783C1232.03 724.703 1230.81 751.573 1244.77 770.793C1253.04 782.185 1265.73 789.941 1278.99 795.379C1312.01 808.92 1348.89 809.481 1384.46 813.946C1420.03 818.411 1457.56 828.424 1480.52 855.054C1493.43 870.039 1500.76 889.274 1515.41 902.687C1546.56 931.207 1596.74 923.028 1637.52 910.089C1678.29 897.149 1723.91 881.496 1762.29 900.061" stroke="#555555" stroke-opacity="0.41" stroke-width="1.33333" stroke-miterlimit="10"/>
<path d="M1577.58 725.549C1567.93 725.894 1557.93 727.372 1549.97 732.641C1542 737.912 1536.68 747.816 1539.48 756.742C1542.34 765.844 1552.36 771.091 1562.02 772.961C1571.67 774.831 1581.74 774.316 1591.26 776.741C1609.37 781.357 1624.44 796.298 1643.17 796.269C1675.82 796.218 1683.13 756.889 1658.98 739.88C1640.81 727.083 1598.49 724.808 1577.58 725.549Z" stroke="#555555" stroke-opacity="0.41" stroke-width="1.33333" stroke-miterlimit="10"/>
<path d="M1624.2 691.545C1590.75 681.957 1560 679.536 1525.78 686.917C1491.49 694.312 1456.9 727.953 1477.85 763.193C1492.49 787.795 1521.61 794.346 1547.28 803.15C1567.68 810.146 1582.26 823.495 1601.28 832.21C1629.15 844.979 1663.52 840.649 1690.11 826.906C1712.11 815.524 1739.81 787.06 1731.7 760.622C1724.17 736.063 1692.23 718.148 1669.99 707.948C1655.27 701.195 1639.81 696.017 1624.2 691.545Z" stroke="#555555" stroke-opacity="0.41" stroke-width="1.33333" stroke-miterlimit="10"/>
<path d="M1756.66 712.627C1706.4 690.461 1655.2 669.47 1601.39 657.369C1547.58 645.271 1490.65 642.361 1437.33 656.314C1416.67 661.716 1396.22 669.908 1380.75 684.186C1365.28 698.463 1355.53 719.715 1359.59 740.007C1363.62 760.19 1380.32 776.095 1398.99 785.963C1417.65 795.833 1438.55 800.868 1458.55 807.885C1478.55 814.896 1498.53 824.537 1511.38 840.921C1516.14 846.989 1519.8 853.849 1525 859.563C1538.9 874.829 1561.86 879.629 1582.81 877.75C1603.76 875.871 1623.64 868.343 1643.85 862.675C1684.12 851.385 1726.57 847.392 1768.34 850.967" stroke="#555555" stroke-opacity="0.41" stroke-width="1.33333" stroke-miterlimit="10"/>
<path d="M1398 -13.614C1377.59 -0.191237 1359.74 17.8127 1350.52 39.9436C1341.31 62.0722 1341.71 88.6107 1355.07 108.674C1362.74 120.202 1374.2 129.175 1380.9 141.26C1389.41 156.608 1389.18 174.968 1387.82 192.333C1387.04 202.442 1386.06 213.171 1390.84 222.195C1395.42 230.865 1404.53 236.368 1413.61 240.609C1426.63 246.699 1441.03 251.155 1455.42 249.648C1472.42 247.872 1488.16 237.247 1495.73 222.433C1501.44 211.254 1502.57 198.493 1505.74 186.405C1508.91 174.32 1515.13 161.806 1526.81 156.512C1533.89 153.305 1542.13 153.169 1549.23 150.013C1572.54 139.659 1571.27 104.998 1591.38 89.6123C1604.95 79.2369 1624.69 80.646 1640.89 86.5249C1657.08 92.4038 1671.63 102.096 1688.05 107.354C1714.93 115.959 1745.93 111.452 1769 95.5869" stroke="#555555" stroke-opacity="0.41" stroke-width="1.33333" stroke-miterlimit="10"/>
<path d="M1452.15 -13.5675C1439.06 -6.96523 1426.99 1.50922 1416.45 11.4906C1401.04 26.0909 1388.36 46.8995 1394.03 67.0226C1398.55 83.0631 1413.7 94.6917 1418.52 110.652C1421.09 119.173 1420.5 128.275 1422.08 137.021C1423.66 145.767 1428.36 154.983 1437.06 157.846C1440.56 158.999 1444.41 158.985 1448.01 158.166C1465.61 154.159 1472.88 134.159 1486.14 122.276C1497.38 112.208 1512.97 108.126 1525.6 99.7403C1544.52 87.1745 1555.48 65.4555 1558.38 43.4515C1561.27 21.4497 1556.87 -0.899336 1550.09 -22.0886" stroke="#555555" stroke-opacity="0.41" stroke-width="1.33333" stroke-miterlimit="10"/>
<path d="M1590.32 -14.4132C1590.21 17.9328 1611.2 49.4596 1641.7 62.7845C1659.29 70.4686 1678.94 72.3095 1698.2 73.5717C1719.04 74.9362 1741.25 75.446 1759.31 65.2976" stroke="#555555" stroke-opacity="0.41" stroke-width="1.33333" stroke-miterlimit="10"/>
<path d="M1639.66 -17.5362C1638.9 -4.52081 1648.89 6.94077 1660.17 14.0862C1675.83 24.0008 1694.76 28.3905 1713.48 28.7778C1732.2 29.1651 1750.8 25.7327 1768.87 21.0136" stroke="#555555" stroke-opacity="0.41" stroke-width="1.33333" stroke-miterlimit="10"/>
<path d="M1484.78 -12.9107C1484.95 -1.08176 1474.46 7.93358 1468.55 18.2934C1464.68 25.0626 1462.71 32.6822 1461.26 40.2862C1459.26 50.7351 1459.07 63.4855 1467.97 69.7317C1473.96 73.9366 1482.49 73.5227 1489.05 70.2104C1495.62 66.8936 1500.51 61.1439 1504.48 55.1069C1520.15 31.3288 1523.87 0.556608 1514.29 -26.0686" stroke="#555555" stroke-opacity="0.41" stroke-width="1.33333" stroke-miterlimit="10"/>
<path d="M-31.3731 238.385C-22.6989 250.661 -10.2366 259.943 2.55151 268.209C44.6338 295.399 93.3427 313.989 143.853 317.279C194.364 320.571 246.627 307.834 286.813 278.088C305.752 264.068 321.926 246.49 342.42 234.687C374.953 215.953 414.425 213.801 451.66 207.114C488.897 200.427 528.727 185.989 546.295 153.57C554.022 139.312 556.803 122.519 567.042 109.822C581.576 91.7981 607.535 86.2709 624.69 70.542C640.731 55.8371 647.235 34.0624 659.621 16.3657C674.084 -4.30275 697.057 -19.2392 722.32 -24.3946" stroke="#555555" stroke-opacity="0.41" stroke-width="1.33333" stroke-miterlimit="10"/>
<path d="M-31.5909 210.853C-23.9895 221.492 -13.2021 229.61 -2.11951 236.851C34.3485 260.68 76.599 277.05 120.46 280.327C164.321 283.604 209.551 272.912 245.081 248.181C250.864 244.157 256.465 239.847 261.896 235.262C272.646 226.193 282.537 216.483 294.103 208.928C298.727 205.923 303.527 203.31 308.508 201.035C329.479 191.414 353.784 187.906 377.584 184.182C381.934 183.5 386.272 182.808 390.581 182.06C409.683 178.75 429.512 173.499 446.156 164.259C458.673 157.3 469.352 148.067 476.518 135.926C483.87 123.492 487.003 108.787 496.215 97.3942C509.29 81.2179 531.611 75.2411 546.212 60.6875C552.059 54.8599 556.388 47.9415 560.199 40.6647C565.282 30.9749 569.47 20.6351 575.272 11.4084C587.117 -7.49259 606.113 -21.601 628.098 -27.2595" stroke="#555555" stroke-opacity="0.41" stroke-width="1.33333" stroke-miterlimit="10"/>
<path d="M-31.8097 183.324C-25.2802 192.324 -16.1676 199.278 -6.79052 205.495C24.0632 225.961 59.8545 240.112 97.0659 243.375C134.276 246.636 172.526 238.026 203.347 218.275C208.562 214.934 213.711 211.423 218.568 207.412C228.188 199.47 236.25 190.416 245.788 183.169C249.583 180.286 253.546 177.739 257.716 175.496C275.31 165.951 296.887 162.16 317.975 158.845C321.83 158.24 325.677 157.641 329.504 157.006C346.476 154.197 364.053 150.03 379.031 142.299C390.263 136.485 399.963 128.632 406.744 118.283C413.718 107.669 417.204 95.0569 425.388 84.9642C437.004 70.6354 455.69 64.2112 467.733 50.8329C472.557 45.4816 476.089 39.2377 479.126 32.7089C483.179 24.0252 486.397 14.7896 490.92 6.45096C500.15 -10.6848 515.167 -23.9607 533.876 -30.1289" stroke="#555555" stroke-opacity="0.41" stroke-width="1.33333" stroke-miterlimit="10"/>
<path d="M-32.0293 155.796C-26.5697 163.155 -19.1331 168.942 -11.4624 174.14C13.7799 191.245 43.1099 203.174 73.6722 206.422C104.232 209.669 135.577 203.201 161.614 188.369C166.27 185.718 170.958 183 175.239 179.563C183.731 172.749 189.972 164.368 197.473 157.41C200.442 154.656 203.572 152.178 206.927 149.957C221.165 140.525 239.987 136.418 258.366 133.511C261.725 132.979 265.082 132.474 268.423 131.953C283.265 129.647 298.596 126.559 311.906 120.34C321.855 115.67 330.571 109.197 336.965 100.64C343.566 91.8471 347.402 81.327 354.56 72.5366C364.719 60.0554 379.768 53.1815 389.254 40.9786C393.051 36.0992 395.79 30.5365 398.055 24.7533C401.076 17.0736 403.341 8.9509 406.568 1.4938C413.22 -13.8634 424.222 -26.3246 439.652 -32.9937" stroke="#555555" stroke-opacity="0.41" stroke-width="1.33333" stroke-miterlimit="10"/>
<path d="M-32.247 128.265C-27.8604 133.988 -22.0986 138.611 -16.1334 142.785C3.49559 156.524 26.3665 166.236 50.2786 169.47C74.1879 172.702 98.7344 168.484 119.882 158.462C123.994 156.515 128.201 154.576 131.909 151.713C139.275 146.03 143.697 138.326 149.156 131.653C151.301 129.03 153.593 126.608 156.137 124.418C167 115.062 183.088 110.677 198.756 108.177C201.621 107.719 204.486 107.305 207.346 106.899C220.058 105.094 233.137 103.091 244.782 98.3828C253.445 94.8545 261.179 89.7614 267.188 82.9943C273.413 76.0247 277.602 67.5949 283.731 60.1066C292.433 49.4753 303.847 42.154 310.775 31.1219C313.547 26.7211 315.491 21.8351 316.982 16.7954C318.97 10.1241 320.267 3.1055 322.219 -3.4612C326.256 -17.0576 333.276 -28.6862 345.429 -35.8629" stroke="#555555" stroke-opacity="0.41" stroke-width="1.33333" stroke-miterlimit="10"/>
<path d="M-32.4648 100.736C-29.1509 104.818 -25.065 108.275 -20.8044 111.429C-6.7887 121.807 9.62188 129.3 26.884 132.516C44.1442 135.735 62.0243 133.981 78.1489 128.556C81.7424 127.347 85.4468 126.152 88.5807 123.864C94.8186 119.309 97.4304 112.295 100.841 105.893C102.164 103.407 103.612 101.036 105.347 98.8791C112.825 89.5834 126.189 84.9332 139.145 82.843C141.516 82.4602 143.892 82.1396 146.267 81.8458C156.848 80.5413 167.68 79.6242 177.658 76.4232C185.035 74.0391 191.787 70.324 197.411 65.3511C203.26 60.2046 207.802 53.865 212.904 47.6767C220.149 38.8951 227.924 31.1241 232.296 21.2674C234.043 17.3385 235.192 13.1336 235.909 8.83961C236.867 3.17444 237.19 -2.74222 237.87 -8.41852C239.282 -20.2564 242.33 -31.0503 251.205 -38.7278" stroke="#555555" stroke-opacity="0.41" stroke-width="1.33333" stroke-miterlimit="10"/>
<path d="M-32.6843 73.2069C-15.6816 91.7317 10.9647 101.544 36.4168 98.65C39.509 98.3005 42.6924 97.7307 45.251 96.0145C52.3206 91.2731 51.1921 80.9912 54.558 73.3382C58.6225 64.0981 69.291 59.1919 79.5366 57.5069C89.7832 55.824 100.362 56.5319 110.533 54.4639C135.627 49.3619 155.229 25.655 154.837 0.881887C154.607 -13.5849 148.725 -29.5252 156.983 -41.5946" stroke="#555555" stroke-opacity="0.41" stroke-width="1.33333" stroke-miterlimit="10"/>
<path d="M-73.8098 683.191C-51.6898 710.462 -25.7859 739.878 9.82708 743.952C38.9735 747.286 67.2363 732.425 96.5809 731.836C124.774 731.266 151.402 743.818 179.31 747.72C218.267 753.172 258.451 741.187 291.106 719.951C347.13 683.518 382.395 619.037 381.982 553.791C381.835 530.572 377.501 507.099 382.058 484.298C385.475 467.206 393.721 451.426 399.421 434.914C410.091 404.008 411.681 370.229 403.956 338.517C401.806 329.691 398.769 320.711 392.399 314.053C380.738 301.864 360.684 300.675 344.402 305.968C328.12 311.26 314.335 321.775 299.829 330.664C241.362 366.489 169.458 376.397 100.268 374.088C78.7869 373.372 57.0834 371.513 36.7686 364.735C9.39059 355.597 -13.9815 338.065 -36.8011 320.829C-46.6443 313.394 -58.905 310.616 -71.1793 312.878C-83.4525 315.137 -94.3101 321.987 -103.886 329.742C-141.17 359.929 -163.481 406.668 -163.043 453.666C-162.861 472.965 -159.068 492.064 -154.387 510.825C-139.429 570.776 -113.181 634.653 -73.8098 683.191Z" stroke="#555555" stroke-opacity="0.41" stroke-width="1.33333" stroke-miterlimit="10"/>
<path d="M58.4956 400.342C36.4311 393.911 16.848 381.467 -2.24911 368.89C-10.4328 363.501 -20.4039 361.549 -30.402 363.412C-40.4225 365.282 -49.3777 370.604 -57.3553 376.628C-88.7003 400.155 -108.472 436.525 -109.57 474.512C-109.972 490.016 -107.437 505.574 -103.941 521.129C-91.3518 568.086 -71.0567 618.436 -39.9862 656.714C-22.4028 678.371 -1.60741 701.33 26.6084 704.878C49.7035 707.783 72.2295 696.778 95.5277 696.15C118.555 695.46 140.17 704.033 162.67 705.922C194.015 708.6 226.144 697.844 252.903 680.74C297.285 652.18 326.509 603.172 328.08 552.386C328.631 534.32 325.889 516.08 329.686 498.361C332.601 484.967 339.024 472.573 343.439 459.649C351.745 435.27 352.742 408.827 346.399 384.074C344.637 377.185 342.181 370.193 337.2 364.953C328.099 355.379 312.63 354.088 299.935 357.698C287.263 361.329 276.411 368.91 264.983 375.312C219.065 401.185 162.539 408.179 108.28 406.79C91.4183 406.363 74.4625 404.996 58.4956 400.342Z" stroke="#555555" stroke-opacity="0.41" stroke-width="1.33333" stroke-miterlimit="10"/>
<path d="M80.2216 435.951C63.4303 432.245 47.6999 424.864 32.3028 416.955C25.7887 413.607 18.0981 412.483 10.3761 413.949C2.6082 415.428 -4.4316 419.241 -10.8225 423.512C-36.1719 440.461 -53.5618 466.374 -56.0978 495.361C-57.1231 507.065 -55.8054 519.081 -53.4952 531.433C-43.2756 565.4 -28.9341 602.222 -6.1605 630.239C6.8841 646.281 22.5711 662.778 43.3908 665.806C60.4342 668.283 77.2236 661.191 94.4757 660.47C112.341 659.722 128.939 664.248 146.033 664.123C169.763 664.032 193.885 654.576 214.7 641.525C247.516 620.956 270.623 587.31 274.181 550.982C275.425 538.071 274.229 525.051 277.316 512.425C279.689 502.72 284.327 493.72 287.452 484.385C293.396 466.53 293.801 447.426 288.846 429.629C287.468 424.681 285.592 419.675 282.003 415.853C275.462 408.892 264.573 407.478 255.465 409.433C246.399 411.376 238.473 416.022 230.136 419.964C196.71 435.771 155.62 439.962 116.291 439.493C104.049 439.353 91.8126 438.511 80.2216 435.951Z" stroke="#555555" stroke-opacity="0.41" stroke-width="1.33333" stroke-miterlimit="10"/>
<path d="M101.948 471.558C90.341 470.663 78.598 468.228 66.8565 465.014C62.0306 463.696 56.5982 463.415 51.1525 464.486C45.6381 465.572 40.499 467.861 35.7092 470.398C16.2936 480.696 1.44091 496.216 -2.62708 516.207C-4.23539 524.114 -4.1733 532.591 -3.0483 541.739C4.8015 562.713 13.1904 586.006 27.6651 603.76C36.17 614.191 46.7495 624.231 60.174 626.733C71.1639 628.783 82.2178 625.546 93.4226 624.787C106.124 623.928 117.7 624.431 129.394 622.321C145.503 619.416 161.585 611.246 176.499 602.313C197.675 589.627 214.739 571.445 220.279 549.575C222.22 541.822 222.61 534.029 224.945 526.489C226.808 520.477 229.631 514.867 231.467 509.117C235.049 497.789 234.863 486.025 231.289 475.187C230.297 472.175 229.004 469.156 226.805 466.752C222.824 462.407 216.523 460.887 210.997 461.165C205.543 461.439 200.554 463.148 195.292 464.613C174.424 470.427 148.702 471.745 124.304 472.193C116.68 472.339 109.103 472.112 101.948 471.558Z" stroke="#555555" stroke-opacity="0.41" stroke-width="1.33333" stroke-miterlimit="10"/>
<path d="M47.3977 552.044C52.8786 560.026 55.314 569.791 61.4889 577.286C68.706 586.046 80.9001 590.714 92.3687 589.102C110.097 586.616 122.526 571.31 138.296 563.1C147.757 558.174 158.853 555.581 166.379 548.17C196.03 518.967 150.574 496.402 123.674 507.167C97.3889 517.685 47.7854 513.647 47.3977 552.044Z" stroke="#555555" stroke-opacity="0.41" stroke-width="1.33333" stroke-miterlimit="10"/>
<path d="M675.823 252.326C687.834 265.805 694.836 282.773 705.805 297.055C716.774 311.337 734.34 323.427 752.401 320.001C757.419 319.051 762.361 316.927 767.435 317.532C776.144 318.576 781.676 327.12 784.268 335.22C790.684 355.272 786.952 376.878 788.263 397.826C789.574 418.775 798.716 442.202 819.272 448.982C828.251 451.945 838.769 451.469 846.181 457.192C859.754 467.674 852.229 489.36 840.096 501.38C822.857 518.465 799.336 528.254 780.452 543.629C753.931 565.226 737.992 596.548 713.869 620.629C686.373 648.073 648.189 665.276 608.754 667.981C569.321 670.687 529.001 658.872 497.765 635.459C477.803 620.491 461.752 601.256 446.741 581.616C441.389 574.611 435.995 567.21 434.415 558.633C433.021 551.067 434.739 543.318 436.636 535.854C442.37 513.287 449.812 491.127 458.883 469.608C464.032 457.399 469.772 445.153 471.186 432.038C472.659 418.379 469.343 404.72 466.546 391.255C458.874 354.346 455.747 313.216 477.071 281.707C513.82 227.404 627.103 197.653 675.823 252.326Z" stroke="#555555" stroke-opacity="0.41" stroke-width="1.33333" stroke-miterlimit="10"/>
<path d="M520.538 330.477C545.048 288.723 625.912 266.37 663.822 303.046C673.111 312.034 679.012 323.523 687.52 333.306C696.103 343.107 709.005 351.546 722.092 349.807C725.751 349.322 729.354 348.024 733.011 348.661C739.784 349.838 744.284 356.376 746.708 362.622C751.645 375.344 751.436 389.214 751.509 403.037C751.526 406.067 751.569 409.045 751.668 411.973C752.249 429.302 756.138 446.171 767.499 452.163C772.524 454.812 778.224 455.431 782.572 459.856C790.505 467.934 785.68 482.33 777.236 490.927C765.23 503.154 749.164 510.602 736.255 521.799C727.705 529.209 720.751 538.075 714.065 547.187C706.57 557.408 699.398 567.957 690.675 577.148C671.86 596.973 645.754 609.666 618.447 612.934C590.587 616.266 560.971 609.67 538.055 592.922C523.105 582.052 511.656 567.292 501.583 552.38C497.989 547.093 494.434 541.544 493.448 535.215C492.579 529.63 493.809 523.925 495.159 518.411C496.793 511.731 498.611 505.095 500.572 498.511C503.502 488.656 506.751 478.924 510.331 469.348C513.718 460.281 517.446 451.19 518.259 441.525C519.11 431.457 516.73 421.389 514.686 411.449C509.085 384.205 506.592 354.23 520.538 330.477Z" stroke="#555555" stroke-opacity="0.41" stroke-width="1.33333" stroke-miterlimit="10"/>
<path d="M564.003 379.248C576.198 349.923 624.651 335.098 651.82 353.763C658.373 358.264 663.165 364.298 669.234 369.558C675.406 374.905 683.677 379.676 691.783 379.613C694.082 379.595 696.349 379.159 698.587 379.787C703.434 381.149 706.895 385.632 709.15 390.024C713.747 398.973 714.913 409.168 715.06 419.448C715.095 421.765 715.099 423.986 715.072 426.119C714.887 439.833 713.387 449.995 715.728 455.342C716.726 457.623 718.403 458.781 718.963 462.521C722.481 466.982 719.134 475.298 714.374 480.473C707.602 487.844 698.994 492.952 692.057 499.966C687.465 504.605 683.712 509.986 680.109 515.482C676.063 521.657 672.183 528.012 667.483 533.672C657.345 545.871 643.279 554.147 628.137 557.885C611.802 561.916 592.971 560.422 578.345 550.388C568.431 543.587 561.598 533.31 556.421 523.143C554.6 519.569 552.87 515.878 552.481 511.795C552.137 508.194 552.879 504.534 553.681 500.968C554.651 496.65 555.718 492.351 556.796 488.075C558.411 481.675 560.056 475.34 561.775 469.083C563.404 463.162 565.12 457.232 565.337 451.012C565.558 444.532 564.116 438.057 562.828 431.644C559.296 414.067 557.381 395.175 564.003 379.248Z" stroke="#555555" stroke-opacity="0.41" stroke-width="1.33333" stroke-miterlimit="10"/>
<path d="M607.473 428.018C608.219 444.684 614.696 461.038 613.021 477.642C612.475 483.073 611.053 488.451 611.26 493.905C611.468 499.361 613.712 505.178 618.635 507.853C624.909 511.263 633.222 508.178 637.83 502.836C642.438 497.496 644.277 490.49 646.15 483.777C648.025 477.061 650.246 470.085 655.354 465.185C666.672 454.336 679.208 454.12 678.613 435.86C678.286 425.816 672.793 416.267 664.162 410.913C646.166 399.745 606.291 401.664 607.473 428.018Z" stroke="#555555" stroke-opacity="0.41" stroke-width="1.33333" stroke-miterlimit="10"/>
<path d="M382.623 711.403C368.665 730.331 356.311 750.365 345.729 771.238C341.582 779.418 337.633 788.042 337.566 797.146C337.414 818.5 357.627 834.056 375.852 846.136C406.698 866.58 437.541 887.021 468.385 907.466C484.658 918.252 501.809 929.366 521.423 931.487C541.661 933.676 563.383 926.134 581.887 934.355C589.723 937.837 596.059 943.837 603.588 947.9C629.609 961.937 662.273 949.93 687.555 934.689C698.015 928.382 709.199 919.703 709.432 907.794C709.68 894.908 696.803 885.438 684.297 880.946C671.793 876.452 657.797 874.308 647.823 865.747C628.944 849.549 633.98 820.666 630.181 796.55C625.278 765.435 603.213 738.805 576.615 720.63C549.029 701.782 509.774 679.829 477.746 668.78C438.877 655.375 403.933 682.507 382.623 711.403Z" stroke="#555555" stroke-opacity="0.41" stroke-width="1.33333" stroke-miterlimit="10"/>
<path d="M420.187 753.363C413.626 764.489 407.167 775.652 402.49 787.314C400.656 791.886 398.843 796.661 399.325 801.605C400.537 814.093 413.598 822.356 425.09 829.014C444.421 840.248 463.602 852.006 482.506 864.216C492.48 870.66 502.795 877.494 514.285 879.746C525.727 881.99 537.913 879.25 548.721 884.078C553.322 886.133 557.211 889.356 561.711 891.524C577.265 899.01 596.351 892.452 611.201 883.491C618.053 879.348 624.829 873.814 625.826 866.533C626.923 858.526 621.039 852.022 614.875 847.973C608.742 843.943 601.468 841.052 595.9 834.988C585.472 823.638 586.048 806.079 581.663 791.597C578.661 781.689 572.977 772.787 565.846 765.317C559.42 758.585 551.444 752.622 542.746 747.782C523.909 737.265 498.344 725.965 477.483 721.478C452.688 716.149 432.076 733.2 420.187 753.363Z" stroke="#555555" stroke-opacity="0.41" stroke-width="1.33333" stroke-miterlimit="10"/>
<path d="M457.75 795.323C457.551 799.152 458.438 803.203 461.081 806.061C464.364 809.612 469.571 810.654 474.329 811.887C486.266 814.988 497.521 820.515 507.147 828.008C509.836 830.098 512.44 832.368 515.555 833.8C521.633 836.598 529.146 835.754 534.846 832.293C556.957 818.852 540.74 786.361 521.513 778.697C501.954 770.902 459.259 766.33 457.75 795.323Z" stroke="#555555" stroke-opacity="0.41" stroke-width="1.33333" stroke-miterlimit="10"/>
<path d="M-27.9998 828.243C-3.8268 857.725 42.3422 856.589 80.658 849.927C118.974 843.267 161.935 834.654 194.108 855.835C218.893 872.147 230.173 902.18 252.806 921.19C276.597 941.176 309.807 946.593 337.057 961.91C381.158 986.699 412.948 1038.35 463.952 1039.59C478.497 1039.94 492.948 1035.84 507.451 1036.94C530.57 1038.68 550.248 1053.15 571.798 1061.42C619.864 1079.86 674.975 1066.45 721.295 1044.22C767.615 1022 809.453 991.271 857.36 972.45C905.265 953.627 963.496 948.539 1006.12 976.836C1075.15 1022.67 1068.33 1126.26 1122.57 1187.93" stroke="#555555" stroke-opacity="0.41" stroke-width="1.33333" stroke-miterlimit="10"/>
<path d="M636.759 1134.73C686.064 1102.39 737.066 1072.46 789.505 1045.1C819.814 1029.29 851.247 1014.12 885.271 1008.93C919.298 1003.73 956.766 1009.86 982.17 1032.34C1002.07 1049.94 1012.41 1075.19 1022.12 1099.52C1027.1 1112.01 1032.09 1124.5 1037.07 1136.99" stroke="#555555" stroke-opacity="0.41" stroke-width="1.33333" stroke-miterlimit="10"/>
<path d="M732.188 1137.11C753.664 1122.07 775.142 1107.02 796.617 1091.98C813.084 1080.44 829.767 1068.79 848.644 1061.48C867.523 1054.16 889.132 1051.52 908.195 1058.38C939.463 1069.63 955.722 1102.13 968.94 1131.73" stroke="#555555" stroke-opacity="0.41" stroke-width="1.33333" stroke-miterlimit="10"/>
<path d="M-34.254 892.056C-4.05 905.261 30.9646 898.251 63.4941 892.074C96.022 885.897 132.179 881.378 160.258 898.407C170.041 904.341 178.097 912.522 186.475 920.204C203.782 936.077 222.8 950.088 241.775 964.065C253.663 972.822 265.683 981.657 279.309 987.6C287.673 991.249 296.536 993.758 304.847 997.515C339.974 1013.4 362.053 1049.88 398.053 1063.82C432.707 1077.23 474.981 1067.52 506.633 1086.65C528.66 1099.96 540.5 1124.56 547.306 1148.79" stroke="#555555" stroke-opacity="0.41" stroke-width="1.33333" stroke-miterlimit="10"/>
<path d="M-37.6874 925.297C-11.3139 936.117 19.0836 930.259 47.4085 925.17C64.7173 922.065 83.1509 919.502 100.488 921.242C111.523 922.352 122.118 925.21 131.696 930.799C140.268 935.804 147.4 942.691 154.797 949.178C170.087 962.576 186.787 974.479 203.402 986.434C213.826 993.929 224.339 1001.52 236.16 1006.75C243.418 1009.96 251.078 1012.23 258.265 1015.57C268.985 1020.54 278.319 1027.69 287.249 1035.44C303.614 1049.64 318.588 1065.82 338.444 1074.12C348.222 1078.21 358.705 1080.18 369.359 1081.6C390.883 1084.45 413.112 1085.02 431.468 1096.23C450.563 1107.9 461.265 1128.88 467.825 1149.4" stroke="#555555" stroke-opacity="0.41" stroke-width="1.33333" stroke-miterlimit="10"/>
<path d="M-41.1211 958.533C-18.5787 966.974 7.20269 962.264 31.3245 958.266C46.0719 955.826 61.7212 953.858 76.4866 955.344C85.8689 956.29 94.9096 958.643 103.134 963.195C110.494 967.27 116.703 972.865 123.119 978.151C136.391 989.074 150.776 998.866 165.03 1008.8C173.991 1015.03 182.997 1021.39 193.012 1025.9C199.161 1028.67 205.62 1030.71 211.685 1033.62C220.726 1037.96 228.623 1044.09 236.153 1050.75C249.94 1062.94 262.419 1076.85 278.832 1084.43C286.919 1088.16 295.573 1090.2 304.402 1091.77C322.23 1094.94 340.764 1096.18 356.302 1105.82C372.469 1115.85 382.031 1133.2 388.346 1150.01" stroke="#555555" stroke-opacity="0.41" stroke-width="1.33333" stroke-miterlimit="10"/>
<path d="M-44.5545 991.774C-25.8426 997.831 -4.6791 994.272 15.2406 991.362C27.4275 989.588 40.2903 988.213 52.4844 989.444C60.2162 990.225 67.6989 992.074 74.5713 995.59C80.7202 998.737 86.0049 1003.04 91.4409 1007.12C102.696 1015.57 114.763 1023.25 126.658 1031.17C134.154 1036.14 141.653 1041.26 149.863 1045.05C154.906 1047.38 160.163 1049.19 165.104 1051.68C172.467 1055.38 178.928 1060.49 185.055 1066.06C196.264 1076.24 206.249 1087.87 219.224 1094.73C225.616 1098.11 232.444 1100.22 239.443 1101.94C253.578 1105.42 268.416 1107.34 281.136 1115.41C294.373 1123.8 302.794 1137.51 308.865 1150.62" stroke="#555555" stroke-opacity="0.41" stroke-width="1.33333" stroke-miterlimit="10"/>
<path d="M-47.9879 1025.01C-33.1073 1028.69 -16.56 1026.28 -0.844195 1024.46C8.784 1023.35 18.8613 1022.57 28.4841 1023.54C34.5637 1024.16 40.49 1025.51 46.0088 1027.98C50.9454 1030.2 55.3078 1033.21 59.7628 1036.1C69.002 1042.07 78.7528 1047.64 88.2865 1053.53C94.3191 1057.25 100.31 1061.12 106.717 1064.2C110.651 1066.1 114.706 1067.67 118.524 1069.73C124.209 1072.8 129.232 1076.89 133.96 1081.37C142.588 1089.55 150.08 1098.89 159.614 1105.04C164.312 1108.06 169.313 1110.24 174.485 1112.12C184.926 1115.91 196.07 1118.5 205.972 1124.99C216.276 1131.75 223.558 1141.83 229.386 1151.23" stroke="#555555" stroke-opacity="0.41" stroke-width="1.33333" stroke-miterlimit="10"/>
<path d="M-51.4216 1058.25C-40.3723 1059.54 -28.4401 1058.28 -16.9281 1057.56C-9.8604 1057.11 -2.56859 1056.92 4.48289 1057.65C8.91091 1058.1 13.2795 1058.94 17.4465 1060.38C21.1716 1061.67 24.6097 1063.38 28.0837 1065.07C35.307 1068.57 42.741 1072.03 49.915 1075.9C54.4825 1078.35 58.9672 1080.99 63.5678 1083.35C66.3957 1084.81 69.2488 1086.15 71.9415 1087.79C75.9502 1090.23 79.5366 1093.29 82.8622 1096.68C88.9118 1102.85 93.9106 1109.92 100.004 1115.34C103.01 1118.02 106.183 1120.25 109.528 1122.29C116.273 1126.39 123.723 1129.66 130.806 1134.58C138.181 1139.7 144.321 1146.15 149.905 1151.84" stroke="#555555" stroke-opacity="0.41" stroke-width="1.33333" stroke-miterlimit="10"/>
<path d="M-54.855 1091.49C-43.182 1089.73 -31.265 1090.52 -19.5174 1091.75C-0.656095 1093.71 19.8558 1097.72 31.7655 1111.99C36.9522 1118.21 39.979 1125.83 44.5697 1132.46C50.8004 1141.47 59.9625 1148.56 70.425 1152.45" stroke="#555555" stroke-opacity="0.41" stroke-width="1.33333" stroke-miterlimit="10"/>
<path d="M764.283 41.8244C755.472 54.0807 752.189 69.6093 742.404 81.1555C730.209 95.5466 710.194 101.236 695.398 113.134C692.479 115.483 689.698 118.165 688.214 121.544C684.564 129.843 689.919 139.506 697.133 145.229C714.47 158.985 741.644 158.765 755.952 175.458C762.131 182.668 764.912 192.066 770.552 199.674C789.747 225.578 830.991 220.792 860.15 235.671C875.739 243.625 887.842 257.731 893.042 274.005C901.322 299.909 894.353 333.045 915.99 350.31C922.015 355.116 929.53 357.834 937.09 359.744C961.777 365.986 988.547 364.263 1012.16 354.913C1027.21 348.957 1040.8 340.099 1054.4 331.496C1080.79 314.81 1108.64 298.498 1139.82 293.952C1181.4 287.893 1226.39 303.117 1264.68 286.333C1300.22 270.755 1319.08 226.671 1305.3 191.394C1295.91 167.357 1274.16 148.817 1267.17 124.028C1260.32 99.7449 1268.94 73.8231 1281.07 51.5519C1293.21 29.2786 1308.98 8.72147 1318.02 -14.8853C1319.59 -18.9611 1320.93 -23.5511 1319.18 -27.5556C1318.12 -29.9664 1316.07 -31.8206 1314.05 -33.5636C1267.12 -74.0389 1204.68 -95.787 1141.91 -99.7292C1079.14 -103.669 1016.06 -90.6004 957.69 -67.9375C936.728 -59.7993 916.971 -50.1361 902.071 -33.3922C890.028 -19.8581 878.769 -9.82104 861.311 -2.73346C829.2 10.302 785.874 11.7867 764.283 41.8244Z" stroke="#555555" stroke-opacity="0.41" stroke-width="1.33333" stroke-miterlimit="10"/>
<path d="M977.444 -36.8937C960.998 -30.5073 945.389 -23.0101 933.39 -10.2084C923.754 0.120282 914.686 7.81994 900.965 13.3115C875.582 23.4554 841.766 24.9558 824.344 47.9682C817.199 57.3752 814.213 69.2532 806.379 78.1683C796.585 89.2983 780.975 93.9461 769.347 103.311C767.052 105.156 764.854 107.253 763.652 109.882C760.753 116.222 764.665 123.614 769.955 128.051C782.669 138.711 802.81 138.938 813.379 151.873C817.943 157.458 819.973 164.686 824.159 170.578C838.417 190.63 869.387 187.683 891.544 199.423C904.094 206.148 914.356 216.861 919.448 228.929C921.992 234.977 923.402 241.494 924.669 247.988C927.392 262.125 929.676 276.175 941.988 285.05C947.011 288.657 953.146 290.769 959.296 292.39C978.838 297.465 999.609 296.962 1017.94 290.849C1029.6 286.929 1040.14 280.877 1050.72 274.987C1064.23 267.478 1078.26 260.046 1093.33 254.988C1101.16 252.364 1109.27 250.361 1117.7 249.325C1150.56 245.292 1186.29 256.137 1216.18 242.307C1243.56 229.632 1258.1 195.483 1248.2 167.916C1241.45 149.126 1225.18 134.557 1220.79 115.291C1216.4 95.9808 1224.48 75.7842 1234.54 58.3168C1244.72 40.747 1257.02 24.3169 1263.39 4.83942C1264.47 1.56275 1265.42 -2.09466 1264 -5.33127C1263.15 -7.26789 1261.56 -8.79047 1259.97 -10.2329C1224.3 -42.5544 1176.39 -60.645 1127.37 -63.8416C1126.18 -63.9195 1124.99 -63.9885 1123.81 -64.0531C1073.91 -66.6486 1023.8 -54.8998 977.444 -36.8937Z" stroke="#555555" stroke-opacity="0.41" stroke-width="1.33333" stroke-miterlimit="10"/>
<path d="M997.199 -5.85197C985.269 -1.21521 973.779 4.09158 964.708 12.9755C957.457 20.0765 950.605 25.4612 940.619 29.3589C921.964 36.6112 897.696 38.1516 884.402 54.1143C878.935 60.681 876.237 68.8949 870.354 75.1833C862.963 83.0522 851.759 86.6561 843.296 93.4833C841.626 94.8322 840.011 96.3415 839.089 98.2224C836.944 102.601 839.412 107.725 842.778 110.871C850.867 118.439 863.979 119.113 870.806 128.285C873.753 132.247 875.032 137.309 877.769 141.48C887.086 155.682 907.785 154.576 922.941 163.177C932.452 168.671 940.873 175.992 945.854 183.852C948.336 187.792 950.073 191.953 951.639 196.075C955.045 205.039 958.171 213.896 967.984 219.791C972.002 222.206 976.758 223.722 981.506 225.033C995.881 228.998 1010.68 229.699 1023.71 226.783C1032 224.926 1039.48 221.654 1047.03 218.48C1056.69 214.44 1066.75 210.399 1077.73 207.695C1083.44 206.293 1089.39 205.215 1095.58 204.699C1119.73 202.689 1146.18 209.173 1167.67 198.277C1186.91 188.525 1197.11 164.295 1191.1 144.436C1187 130.898 1176.24 120.242 1174.42 106.557C1172.51 92.1521 1179.97 77.7187 1188 65.0795C1196.19 52.1887 1205.08 39.9525 1208.76 24.5641C1209.35 22.091 1209.91 19.3641 1208.82 16.891C1208.19 15.4308 1207.04 14.2354 1205.9 13.0979C1180.46 -12.1271 1145.14 -26.5471 1108.34 -28.2655C1107.46 -28.3078 1106.58 -28.3457 1105.7 -28.3747C1068.69 -29.6279 1031.54 -19.1991 997.199 -5.85197Z" stroke="#555555" stroke-opacity="0.41" stroke-width="1.33333" stroke-miterlimit="10"/>
<path d="M1016.95 25.1917C1009.54 28.0766 1002.19 31.2087 996.026 36.1571C991.178 40.0459 986.522 43.1021 980.274 45.406C968.348 49.7645 953.593 51.3339 944.465 60.258C940.661 63.9776 938.258 68.5364 934.327 72.196C929.341 76.8016 922.54 79.3659 917.243 83.6576C916.199 84.5057 915.172 85.4295 914.529 86.5626C913.149 88.9845 914.158 91.8315 915.6 93.6924C919.065 98.1667 925.146 99.2886 928.233 104.698C929.565 107.035 930.092 109.931 931.376 112.384C935.753 120.734 946.181 121.468 954.337 126.929C960.809 131.196 967.401 135.109 972.258 138.776C974.682 140.603 976.732 142.408 978.61 144.16C982.667 147.947 986.686 151.597 993.98 154.534C997.003 155.749 1000.37 156.661 1003.71 157.677C1012.94 160.479 1021.73 162.411 1029.49 162.716C1034.38 162.908 1038.83 162.429 1043.35 161.97C1049.15 161.405 1055.24 160.751 1062.13 160.399C1065.71 160.221 1069.5 160.072 1073.45 160.072C1088.9 160.085 1106.08 162.251 1119.17 154.249C1130.27 147.464 1136.13 133.104 1133.99 120.959C1132.55 112.667 1127.48 105.813 1128.05 97.8194C1128.73 88.1786 1135.51 79.6709 1141.46 71.8442C1147.69 63.6481 1153.25 55.6546 1154.13 44.2864C1154.26 42.6325 1154.39 40.8205 1153.65 39.1131C1153.22 38.1292 1152.53 37.2655 1151.82 36.4286C1136.54 18.3957 1113.89 7.60853 1089.32 7.31025C1088.75 7.30357 1088.17 7.29911 1087.6 7.30134C1063.45 7.39483 1039.29 16.5014 1016.95 25.1917Z" stroke="#555555" stroke-opacity="0.41" stroke-width="1.33333" stroke-miterlimit="10"/>
<path d="M989.966 74.9005C985.603 78.9051 983.128 85.4428 985.732 90.6828C990.863 95.2216 998.917 94.1688 1005.58 92.2478C1012.25 90.3267 1019.46 87.8269 1025.92 90.32C1035.76 94.1176 1038.01 107.013 1046.52 113.103C1053.71 118.252 1064.99 116.905 1070.67 110.22C1075.88 104.088 1076.24 95.0302 1081.68 89.0824C1091.58 78.2462 1106.49 77.6162 1097.74 59.7593C1092.48 49.0099 1082.64 41.6486 1070.3 42.8862C1058.76 44.0438 1047.28 52.1063 1036.7 56.2333C1022.34 61.8428 1001.49 64.3226 989.966 74.9005Z" stroke="#555555" stroke-opacity="0.41" stroke-width="1.33333" stroke-miterlimit="10"/>
<path d="M1743.93 198.662C1719.93 188.142 1695.18 179.211 1669.92 171.952C1656.56 168.11 1637.78 167.173 1633.09 179.865C1631.37 184.511 1632.36 189.691 1631.3 194.517C1628.52 207.17 1613.32 213.04 1600.03 214.633C1596.83 215.016 1593.46 215.323 1590.77 217.04C1586.07 220.034 1584.99 226.14 1584.47 231.551C1582.59 251.543 1582.41 272.765 1571.43 289.812C1554.85 315.587 1519.61 322.93 1488.2 323.692C1454.37 324.513 1420.41 320.453 1387.81 311.694C1364.44 305.419 1340.24 296.659 1316.62 301.973C1304.01 304.811 1292.69 311.496 1280.4 315.447C1261 321.684 1240.06 320.876 1219.65 322.091C1158.26 325.746 1098.28 348.866 1051.14 387.039C1035.42 399.768 1020.77 414.599 1013.04 432.957C1003.88 454.745 1005.39 479.636 1012.4 502.159C1019.41 524.684 1031.57 545.337 1043.62 565.769C1052.14 580.203 1063.97 596.559 1081.17 596.174C1087.94 596.023 1094.84 593.129 1101.3 595.106C1111 598.071 1113.93 609.711 1120.45 617.259C1131.01 629.484 1151.04 629.834 1166 623.144C1180.96 616.46 1192.46 604.41 1204.88 593.95C1271.01 538.292 1364.88 526.823 1452.58 526.129C1474.52 525.957 1496.84 526.356 1517.75 532.778C1530.53 536.704 1542.52 542.806 1555.38 546.49C1577.53 552.836 1601.1 551.723 1624.18 552.672C1675.17 554.768 1725.66 567.332 1771.35 589.289" stroke="#555555" stroke-opacity="0.41" stroke-width="1.33333" stroke-miterlimit="10"/>
<path d="M1736.48 231.228C1725.44 222.026 1713.87 212.55 1699.79 208.897C1685.7 205.246 1668.33 209.287 1661.54 221.761C1660.16 224.303 1659.19 227.186 1656.95 229.073C1653.59 231.901 1648.62 231.584 1644.18 231.854C1628.94 232.775 1614.8 243.335 1610.04 257.357C1604.05 274.974 1611.85 296.003 1601.84 311.823C1595.67 321.584 1584.15 326.788 1573.04 330.764C1533.69 344.866 1491.06 350.382 1449.25 346.782C1409.6 343.367 1369.76 331.915 1330.64 339.011C1316.32 341.611 1302.59 346.642 1288.38 349.754C1270.68 353.627 1252.45 354.484 1234.49 356.928C1201.08 361.474 1168.49 371.586 1138.6 386.683C1111.44 400.395 1085.75 419.036 1071.12 445.044C1056.49 471.053 1055.14 505.487 1073.82 528.947C1076.85 532.744 1080.56 536.335 1085.31 537.693C1091.72 539.525 1098.68 536.952 1105.26 538.087C1120.94 540.791 1127.19 562.303 1142.88 564.97C1150.06 566.19 1157.18 562.976 1163.68 559.786C1211.12 536.493 1257.57 509.155 1309.67 498.678C1334.91 493.6 1360.81 492.643 1386.58 491.699C1431.73 490.047 1477.68 488.476 1521.36 499.677C1536.11 503.461 1550.47 508.675 1565.41 511.729C1596.87 518.16 1629.55 514.767 1661.56 517.748C1691.13 520.501 1720.15 528.769 1746.53 541.962" stroke="#555555" stroke-opacity="0.41" stroke-width="1.33333" stroke-miterlimit="10"/>
<path d="M1165.74 425.242C1156.58 430.048 1147.27 435.472 1141.53 443.885C1135.79 452.299 1134.72 464.506 1141.76 471.941C1145.53 475.923 1151.26 478.287 1153.66 483.169C1155.56 487.042 1154.88 491.674 1156.4 495.704C1158.81 502.11 1166.39 505.58 1173.45 505.518C1180.51 505.458 1187.18 502.615 1193.59 499.775C1232.35 482.604 1271.04 463.329 1313.24 457.474C1349.67 452.421 1387.06 457.657 1423.38 451.914C1436.69 449.808 1451.96 444.154 1455 431.461C1463.26 397.021 1408.8 371.858 1380.39 373.458C1334.91 376.02 1289.01 380.664 1245.24 393.343C1217.71 401.321 1191.01 411.997 1165.74 425.242Z" stroke="#555555" stroke-opacity="0.41" stroke-width="1.33333" stroke-miterlimit="10"/>
<path d="M1747.39 268.224C1737.17 269.633 1727.6 263.857 1718.45 259.271C1709.29 254.686 1697.7 251.24 1689.13 256.787C1683.59 260.373 1680.8 266.909 1675.55 270.873C1671.31 274.074 1665.69 275.412 1661.89 279.1C1656.82 284.038 1656.35 291.679 1655.11 298.536C1652.14 315.035 1642.83 330.394 1629.39 340.972C1615.04 352.267 1596.91 357.825 1579.35 363.477C1561.79 369.127 1543.77 375.437 1530.38 387.776C1516.98 400.115 1509.4 420.138 1517.17 436.37C1524.84 452.421 1544.22 459.669 1562.19 463.053C1593.58 468.963 1625.94 467.752 1657.68 471.6C1689.42 475.451 1722.22 485.448 1743.27 508.721" stroke="#555555" stroke-opacity="0.41" stroke-width="1.33333" stroke-miterlimit="10"/>
<path d="M1743.11 325.577C1739.15 319.211 1730.76 315.985 1723.19 317.287C1715.62 318.59 1709.13 324.01 1705.97 330.781C1704.05 334.884 1703.26 339.405 1701.43 343.545C1694.76 358.6 1676.74 364.922 1661.08 371.19C1648.21 376.341 1635.77 382.48 1623.91 389.532C1614.61 395.062 1604.7 402.795 1604.58 413.342C1604.5 420.912 1609.87 427.804 1616.65 431.601C1623.42 435.397 1631.42 436.583 1639.23 437.117C1658.24 438.411 1677.51 436.269 1696.27 439.479C1714.87 442.662 1732.45 451.186 1746.2 463.687" stroke="#555555" stroke-opacity="0.41" stroke-width="1.33333" stroke-miterlimit="10"/>
<path d="M1736.63 372.448C1726.01 375.684 1715.39 378.923 1704.78 382.16C1701.05 383.297 1697.23 384.482 1694.17 386.83C1689.37 390.521 1687.13 396.684 1687.13 402.61C1687.13 406.31 1688.02 410.201 1690.64 412.901C1696.18 418.613 1705.78 416.38 1713.72 414.831C1728.97 411.861 1747.31 414.43 1755.74 427.067" stroke="#555555" stroke-opacity="0.41" stroke-width="1.33333" stroke-miterlimit="10"/>
<path d="M1245.81 425.943C1242.99 427.174 1240.06 428.574 1238.35 431.065C1236.65 433.558 1236.77 437.458 1239.4 439.027C1241.33 440.176 1243.81 439.726 1246.01 439.232C1272.93 433.24 1300.06 426.791 1327.76 425.614C1336.49 425.242 1369.82 432.082 1361.3 419.361C1354.86 409.747 1329.32 407.236 1319 407.472C1294.36 408.037 1268.06 416.215 1245.81 425.943Z" stroke="#555555" stroke-opacity="0.41" stroke-width="1.33333" stroke-miterlimit="10"/>
<path d="M883.174 595.477C851.512 622.612 833.613 662.776 800.202 687.881C782.648 701.07 759.638 711.866 754.486 732.766C751.692 744.092 755.076 755.965 759.47 766.808C762.725 774.835 766.589 782.711 771.976 789.585C796.396 820.737 846.372 825.303 869.428 857.411C877.462 868.596 881.63 882.491 891.908 891.804C902 900.945 916.439 904.152 930.258 904.733C944.078 905.316 957.948 903.652 971.737 904.719C1006.13 907.385 1039.92 926.844 1073.24 918.218C1093.51 912.971 1109.54 898.029 1122.48 882.068C1134.1 867.733 1144.29 851.438 1146.36 833.337C1150.3 798.847 1124.34 766.904 1124.41 732.207C1124.43 722.01 1126.71 711.926 1126.96 701.733C1127.21 691.54 1125.05 680.642 1117.68 673.343C1110.98 666.707 1100.57 663.606 1095.9 655.51C1094.58 653.229 1093.81 650.662 1092.28 648.51C1085.18 638.53 1069.36 643.632 1056.85 642.851C1013.78 640.16 1016.91 584.387 987.08 566.364C957.441 548.458 905.166 576.63 883.174 595.477Z" stroke="#555555" stroke-opacity="0.41" stroke-width="1.33333" stroke-miterlimit="10"/>
<path d="M902.942 643.029C895.288 649.861 888.966 657.748 882.902 665.924C871.997 680.658 861.719 696.144 847.031 707.447C835.05 716.654 819.351 724.245 815.54 738.567C813.482 746.322 815.535 754.443 818.27 761.875C820.291 767.38 822.721 772.785 826.175 777.522C841.78 799.056 875.402 802.393 890.067 825.265C893.947 831.318 897.47 838.029 901.974 843.242C904.329 845.985 906.893 848.404 909.93 850.379C912.785 852.244 915.948 853.607 919.291 854.61C926.088 856.632 933.726 857.173 941.235 857.458C951.146 857.858 961.067 856.901 970.922 857.82C988.1 859.423 1005.06 866.655 1021.92 868.839C1029.18 869.781 1036.42 869.781 1043.63 868.027C1058.2 864.485 1069.93 854.243 1079.49 843.107C1088.18 833.043 1095.54 821.623 1097.19 808.977C1100.44 784.65 1082.11 761.915 1080.87 737.603C1080.51 730.518 1081.69 723.517 1081.47 716.469C1081.24 709.417 1079.4 701.92 1074.09 696.852C1069.22 692.222 1061.89 689.976 1058.4 684.439C1057.42 682.877 1056.81 681.125 1055.68 679.66C1050.39 672.789 1039.18 675.976 1030.18 675.255C999.71 672.809 999.83 635.087 978.018 622.786C959.554 612.468 930.436 624.211 911.937 636.273C908.49 638.528 905.417 640.823 902.942 643.029Z" stroke="#555555" stroke-opacity="0.41" stroke-width="1.33333" stroke-miterlimit="10"/>
<path d="M922.713 690.581C918.692 694.525 915.621 698.969 912.628 703.581C907.248 711.931 901.76 720.545 893.862 727.014C887.452 732.238 879.061 736.626 876.596 744.368C875.271 748.553 875.995 752.918 877.068 756.943C877.859 759.925 878.872 762.85 880.377 765.461C887.231 777.339 903.926 779.902 910.704 793.124C913.188 797.963 916.649 802.807 920.895 805.643C923.111 807.121 925.418 808.212 927.948 808.957C930.323 809.661 932.837 810.017 935.419 810.175C940.698 810.496 946.444 809.984 952.213 810.18C958.217 810.384 964.182 810.151 970.106 810.921C980.437 812.265 990.621 816.671 1000.85 818.089C1005.24 818.694 1009.64 818.747 1014.01 817.835C1022.89 815.998 1030.3 810.429 1036.5 804.143C1042.23 798.326 1046.75 791.799 1048.02 784.618C1050.52 770.439 1039.91 756.949 1037.33 743.001C1036.59 739.03 1036.66 735.11 1035.98 731.208C1035.28 727.299 1033.76 723.19 1030.5 720.356C1027.47 717.725 1023.2 716.347 1020.9 713.366C1020.25 712.527 1019.8 711.59 1019.08 710.811C1015.58 707.051 1009.01 708.324 1003.51 707.657C985.647 705.482 982.78 685.717 968.959 679.211C957.008 673.586 939.739 679.547 928.203 686.49C926.088 687.774 924.176 689.145 922.713 690.581Z" stroke="#555555" stroke-opacity="0.41" stroke-width="1.33333" stroke-miterlimit="10"/>
<path d="M944.469 736.708C943.691 737.018 942.882 737.418 942.481 738.135C941.963 739.061 942.281 740.19 942.357 741.238C942.921 748.956 930.459 753.29 931.344 760.978C931.788 764.849 935.811 767.605 939.815 768.039C943.822 768.478 947.785 767.14 951.547 765.74C955.307 764.339 959.162 762.828 963.192 762.904C968.954 763.008 974.124 766.314 979.787 767.336C984.435 768.173 989.377 767.396 993.51 765.179C1008.3 757.247 991.985 745.154 982.476 741.961C971.523 738.289 955.635 732.261 944.469 736.708Z" stroke="#555555" stroke-opacity="0.41" stroke-width="1.33333" stroke-miterlimit="10"/>
<path d="M1148.65 1144.19C1124.23 1106.02 1104.26 1065.21 1089.23 1022.76C1085.05 1010.96 1081.27 997.892 1086.02 986.301C1093.67 967.654 1118.31 962.703 1133.91 949.468C1151.12 934.853 1156.79 910.294 1174.64 896.408C1188.47 885.65 1207.45 883.177 1225.15 884.51C1242.86 885.839 1260.12 890.523 1277.77 892.399C1305.83 895.386 1334.2 891.238 1362.39 892.666C1390.58 894.093 1420.58 902.509 1437.49 924.351C1445.91 935.238 1450.33 948.501 1457.53 960.183C1473.91 986.763 1504.37 1003.61 1536.01 1008.38C1567.64 1013.15 1600.26 1006.83 1629.85 995.009C1650.33 986.828 1669.86 975.99 1691.43 971.053C1712.99 966.117 1738 968.228 1753.87 983.169C1758.93 987.926 1770.08 992.845 1774.8 997.916C1796.68 1021.43 1809.7 1051.68 1816.4 1082.63C1823.11 1113.58 1823.84 1145.43 1823.61 1177.05" stroke="#555555" stroke-opacity="0.41" stroke-width="1.33333" stroke-miterlimit="10"/>
<path d="M1209.1 1141.21C1189.85 1111.8 1174.16 1080.14 1162.52 1047.17C1159.28 1038.01 1156.38 1027.88 1159.9 1018.86C1165.56 1004.35 1184.12 1000.19 1195.84 989.656C1209.01 977.813 1213.68 958.389 1227.79 947.272C1238.72 938.657 1253.63 936.378 1267.65 937.153C1273.27 937.465 1278.84 938.208 1284.4 939.094C1292.74 940.423 1301.04 942.063 1309.43 942.989C1331.7 945.443 1354.17 942.827 1376.55 944.06C1398.72 945.268 1422.25 951.486 1435.95 967.682C1442.78 975.756 1446.6 985.589 1452.51 994.23C1461.86 1007.91 1476.31 1018.05 1492.63 1024.11C1499.77 1026.77 1507.27 1028.64 1514.87 1029.7C1539.79 1033.18 1565.5 1028.54 1588.74 1020.09C1604.87 1014.26 1620.14 1006.37 1636.83 1003.57C1653.74 1000.73 1672.7 1003.82 1684.56 1016.45C1688.38 1020.53 1696.67 1024.81 1700.29 1029.1C1716.55 1048.33 1726.89 1072.23 1732.48 1096.75C1738.07 1121.27 1739.4 1146.37 1740.2 1171.15" stroke="#555555" stroke-opacity="0.41" stroke-width="1.33333" stroke-miterlimit="10"/>
<path d="M1269.55 1138.22C1255.47 1117.59 1244.05 1095.09 1235.81 1071.59C1233.52 1065.06 1231.48 1057.88 1233.77 1051.43C1237.45 1041.06 1249.93 1037.65 1257.77 1029.85C1266.91 1020.75 1270.58 1006.49 1280.93 998.134C1288.96 991.66 1299.81 989.584 1310.15 989.798C1314.29 989.884 1318.42 990.303 1322.55 990.864C1328.74 991.706 1334.88 992.852 1341.1 993.58C1357.56 995.496 1374.14 994.417 1390.71 995.456C1406.87 996.446 1423.92 1000.46 1434.42 1011.01C1439.65 1016.27 1442.88 1022.68 1447.49 1028.28C1454.79 1037.15 1465.5 1043.64 1477.44 1047.49C1482.68 1049.17 1488.17 1050.36 1493.73 1051.02C1511.95 1053.22 1530.74 1050.26 1547.64 1045.18C1559.4 1041.69 1570.46 1036.77 1582.23 1036.07C1594.55 1035.35 1607.39 1039.45 1615.23 1049.73C1617.83 1053.14 1623.26 1056.77 1625.78 1060.27C1636.47 1075.15 1644.08 1092.77 1648.56 1110.87C1653.03 1128.96 1654.96 1147.32 1656.8 1165.25" stroke="#555555" stroke-opacity="0.41" stroke-width="1.33333" stroke-miterlimit="10"/>
<path d="M1330.01 1135.24C1321.09 1123.37 1313.95 1110.02 1309.1 1096C1307.75 1092.1 1306.59 1087.87 1307.64 1083.99C1309.34 1077.76 1315.71 1075.06 1319.71 1070.03C1324.78 1063.64 1327.48 1054.58 1334.08 1049C1339.2 1044.67 1345.98 1042.79 1352.65 1042.44C1355.32 1042.31 1358 1042.4 1360.7 1042.64C1364.73 1042.99 1368.74 1043.64 1372.76 1044.17C1383.43 1045.55 1394.1 1046 1404.87 1046.85C1415.01 1047.62 1425.59 1049.44 1432.89 1054.34C1436.52 1056.79 1439.15 1059.76 1442.47 1062.32C1447.72 1066.38 1454.68 1069.23 1462.26 1070.86C1465.59 1071.57 1469.07 1072.07 1472.6 1072.34C1484.1 1073.25 1495.97 1071.93 1506.53 1070.26C1513.93 1069.09 1520.89 1067.31 1527.64 1068.59C1535.49 1070.07 1542.03 1075.13 1545.91 1083.02C1547.27 1085.78 1549.87 1088.69 1551.27 1091.45C1556.53 1101.81 1561.27 1113.33 1564.64 1124.98C1567.99 1136.65 1570.53 1148.27 1573.39 1159.34" stroke="#555555" stroke-opacity="0.41" stroke-width="1.33333" stroke-miterlimit="10"/>
<path d="M1390.46 1132.26C1383.99 1126.89 1380.17 1118.34 1381.64 1110.22C1383.11 1102.1 1390.34 1095.01 1398.85 1094.4C1405.72 1093.92 1412.21 1097.34 1419.02 1098.25C1428.44 1099.5 1437.73 1095.92 1447.07 1094.24C1456.42 1092.55 1467.66 1093.52 1473.04 1101.1C1477.36 1107.19 1476.32 1115.26 1476.77 1122.63C1477.45 1133.94 1482.19 1144.98 1489.99 1153.44" stroke="#555555" stroke-opacity="0.41" stroke-width="1.33333" stroke-miterlimit="10"/>
</g>
<defs>
<clipPath id="clip0_127_2">
<rect width="1728" height="1113" fill="white"/>
</clipPath>
</defs>
</svg>
