<svg width="16" height="16" viewBox="0 0 16 16" fill="none" xmlns="http://www.w3.org/2000/svg">
<rect width="16" height="16" rx="8" fill="#EEEEEE" fill-opacity="0.933333"/>
<path d="M5.21976 5.45345C5.10482 5.57078 5.10424 5.76164 5.21846 5.87969C5.33264 5.99775 5.51835 5.99835 5.63324 5.88103L5.21976 5.45345ZM7.99104 2.91955L8.20264 2.71121C8.14692 2.65124 8.06982 2.61761 7.98895 2.61817C7.90808 2.61873 7.8314 2.65348 7.77609 2.71418L7.99104 2.91955ZM10.4226 5.88391C10.5391 5.9996 10.7247 5.99641 10.8374 5.87672C10.9501 5.75707 10.9468 5.56625 10.8303 5.45057L10.4226 5.88391ZM4.6597 8.57836C4.54481 8.69569 4.54422 8.8865 4.65841 9.00456C4.77259 9.12266 4.95834 9.12322 5.07323 9.00589L4.6597 8.57836ZM10.9283 9.00589C11.0432 9.12322 11.2288 9.12266 11.3432 9.00456C11.4571 8.8865 11.4567 8.69569 11.3419 8.57836L10.9283 9.00589ZM4.45024 11.5564C4.3353 11.6737 4.33472 11.8646 4.4489 11.9827C4.56304 12.1007 4.74875 12.1014 4.86368 11.984L4.45024 11.5564ZM11.137 11.9846C11.2522 12.1016 11.4379 12.1004 11.5518 11.982C11.6654 11.8636 11.6645 11.6728 11.5493 11.5559L11.137 11.9846ZM7.69773 13.0804V13.3818H8.28435V13.0804H7.69773ZM5.63324 5.88103C6.13728 5.36635 6.78093 4.6767 7.29715 4.11729C7.55569 3.83726 7.78237 3.58923 7.94495 3.41124C8.02624 3.3222 8.09119 3.25069 8.13602 3.20139C8.15865 3.17676 8.17583 3.15765 8.18756 3.14469C8.19343 3.13823 8.19804 3.13328 8.20097 3.12996C8.20265 3.12833 8.20348 3.12703 8.20432 3.12622C8.20474 3.12579 8.20516 3.12523 8.20516 3.12523C8.20558 3.12514 8.20558 3.12501 8.20558 3.12501V3.12501C8.20558 3.12501 8.20558 3.12492 7.99104 2.91955C7.77609 2.71418 7.77609 2.71418 7.77609 2.71418V2.71418C7.77567 2.7144 7.77567 2.715 7.77525 2.71539C7.77441 2.71621 7.77315 2.71745 7.7719 2.71909C7.76896 2.72236 7.76436 2.72723 7.75849 2.73364C7.74718 2.74647 7.72958 2.76542 7.70737 2.78996C7.66295 2.839 7.59801 2.91021 7.51714 2.9989C7.3554 3.17633 7.12913 3.42351 6.87143 3.70255C6.35562 4.26131 5.71721 4.94549 5.21976 5.45345L5.63324 5.88103ZM7.99104 2.91955C7.77902 3.1279 7.77902 3.12794 7.77902 3.12794C7.77902 3.12794 7.77902 3.12815 7.77944 3.12824C7.77944 3.12824 7.77986 3.1288 7.78028 3.12919C7.78112 3.13005 7.78237 3.1313 7.78363 3.13298C7.78698 3.13629 7.79159 3.14124 7.79746 3.1477C7.80961 3.16066 7.82721 3.17973 7.85025 3.2044C7.89635 3.2537 7.96339 3.32522 8.04677 3.41421C8.21396 3.59224 8.44693 3.84024 8.71259 4.12026C9.24348 4.67967 9.90469 5.36928 10.4226 5.88391L10.8303 5.45057C10.3191 4.94256 9.66291 4.25834 9.13286 3.69958C8.86804 3.4205 8.63549 3.17332 8.46914 2.99593C8.38617 2.90724 8.31955 2.83598 8.27346 2.78695C8.25083 2.76245 8.23281 2.74346 8.22108 2.73063C8.2148 2.72421 8.21061 2.71935 8.20725 2.71608C8.206 2.71444 8.20474 2.71324 8.2039 2.71242C8.20348 2.71199 8.20348 2.71169 8.20306 2.71147V2.71147C8.20306 2.71147 8.20265 2.71121 7.99104 2.91955ZM7.69773 2.92067L7.70737 5.59278L8.29399 5.59054L8.28435 2.91843L7.69773 2.92067ZM8.00068 5.59166C7.7941 5.37789 7.79411 5.37789 7.79411 5.37789C7.79369 5.37793 7.79369 5.37798 7.79369 5.37798V5.37798C7.79327 5.37823 7.79285 5.37884 7.79243 5.37931C7.79159 5.38026 7.79033 5.38168 7.78824 5.38353C7.78489 5.38723 7.77944 5.39279 7.77232 5.40011C7.75807 5.4147 7.7367 5.43627 7.70946 5.46413C7.65499 5.51993 7.57538 5.601 7.47649 5.70222C7.2783 5.90458 7.00091 6.18749 6.68581 6.50941C6.05528 7.15329 5.27172 7.95342 4.6597 8.57836L5.07323 9.00589C5.6852 8.38096 6.46876 7.58087 7.09938 6.93699C7.41448 6.61502 7.69145 6.33215 7.88964 6.12975C7.98895 6.02853 8.06814 5.94746 8.12303 5.8917C8.15027 5.86381 8.17122 5.84223 8.18588 5.82764C8.19301 5.82036 8.19845 5.81481 8.20181 5.81106C8.2039 5.80921 8.20516 5.80779 8.206 5.80684C8.20642 5.80637 8.20684 5.80603 8.20725 5.80581V5.80581C8.20725 5.80581 8.20725 5.80542 8.00068 5.59166ZM8.00068 5.59166C7.7941 5.80542 7.79411 5.80547 7.79411 5.80547V5.80547C7.79452 5.80568 7.79494 5.80637 7.79536 5.80684C7.7962 5.80779 7.79746 5.80921 7.79955 5.81106C7.8029 5.81481 7.80835 5.82036 7.81589 5.82764C7.83014 5.84223 7.85109 5.86381 7.87833 5.8917C7.93322 5.94746 8.01241 6.02853 8.11172 6.12975C8.30991 6.33215 8.58688 6.61502 8.90198 6.93699C9.5326 7.58087 10.3162 8.381 10.9283 9.00589L11.3419 8.57836C10.7297 7.95342 9.94617 7.15329 9.31555 6.50941C9.00045 6.18749 8.72306 5.90458 8.52487 5.70218C8.42598 5.601 8.34637 5.51993 8.29189 5.46413C8.26466 5.43627 8.24329 5.4147 8.22904 5.40011C8.22192 5.39279 8.21647 5.38723 8.21312 5.38353C8.21103 5.38164 8.20977 5.38026 8.20893 5.37931C8.20851 5.37884 8.20809 5.37849 8.20767 5.37824V5.37824C8.20767 5.37824 8.20767 5.37793 8.20725 5.37789C8.20725 5.37789 8.20725 5.37789 8.00068 5.59166ZM7.70737 5.59058L7.69773 8.36559L8.28435 8.36778L8.29399 5.59273L7.70737 5.59058ZM7.78405 8.15289L4.45024 11.5564L4.86368 11.984L8.19762 8.58051L7.78405 8.15289ZM7.78489 8.58107L11.137 11.9846L11.5493 11.5559L8.1972 8.15234L7.78489 8.58107ZM7.99104 8.3667C7.69773 8.3667 7.69773 8.3667 7.69773 8.3667V8.36726V8.36726V8.36778V8.36778V8.36847V8.36847V8.36937V8.36985V8.37041V8.37101V8.37166V8.3723V8.37303V8.37381V8.37463V8.37544V8.37635V8.3773C7.69773 8.3773 7.69773 8.37794 7.69773 8.37829C7.69773 8.37863 7.69773 8.37897 7.69773 8.37932C7.69773 8.37966 7.69773 8.38001 7.69773 8.38035C7.69773 8.38074 7.69773 8.38108 7.69773 8.38147C7.69773 8.38186 7.69773 8.38225 7.69773 8.38263C7.69773 8.38302 7.69773 8.38341 7.69773 8.38384C7.69773 8.38423 7.69773 8.38466 7.69773 8.38509C7.69773 8.38548 7.69773 8.38591 7.69773 8.38634C7.69773 8.38677 7.69773 8.38724 7.69773 8.38767C7.69773 8.38815 7.69773 8.38858 7.69773 8.38905C7.69773 8.38952 7.69773 8.39 7.69773 8.39047C7.69773 8.39094 7.69773 8.39142 7.69773 8.39189C7.69773 8.39241 7.69773 8.39288 7.69773 8.3934C7.69773 8.39392 7.69773 8.39443 7.69773 8.39495C7.69773 8.39546 7.69773 8.39598 7.69773 8.39654C7.69773 8.39706 7.69773 8.39762 7.69773 8.39813C7.69773 8.39869 7.69773 8.39925 7.69773 8.39981C7.69773 8.40037 7.69773 8.40093 7.69773 8.40154C7.69773 8.4021 7.69773 8.4027 7.69773 8.40326C7.69773 8.40386 7.69773 8.40446 7.69773 8.40507C7.69773 8.40567 7.69773 8.40627 7.69773 8.40687C7.69773 8.40752 7.69773 8.40812 7.69773 8.40877C7.69773 8.40941 7.69773 8.41006 7.69773 8.41071C7.69773 8.41135 7.69773 8.412 7.69773 8.41264C7.69773 8.41329 7.69773 8.41398 7.69773 8.41467C7.69773 8.41531 7.69773 8.416 7.69773 8.41669C7.69773 8.41738 7.69773 8.41807 7.69773 8.41876C7.69773 8.41949 7.69773 8.42018 7.69773 8.42091C7.69773 8.42164 7.69773 8.42233 7.69773 8.42306C7.69773 8.42379 7.69773 8.42453 7.69773 8.4253C7.69773 8.42603 7.69773 8.42677 7.69773 8.42754C7.69773 8.42832 7.69773 8.42905 7.69773 8.42982C7.69773 8.4306 7.69773 8.43137 7.69773 8.43219C7.69773 8.43297 7.69773 8.43374 7.69773 8.43456C7.69773 8.43533 7.69773 8.43615 7.69773 8.43697C7.69773 8.43779 7.69773 8.43861 7.69773 8.43942C7.69773 8.44024 7.69773 8.4411 7.69773 8.44192C7.69773 8.44278 7.69773 8.4436 7.69773 8.44446C7.69773 8.44532 7.69773 8.44618 7.69773 8.44704C7.69773 8.44791 7.69773 8.44881 7.69773 8.44967C7.69773 8.45057 7.69773 8.45144 7.69773 8.45234C7.69773 8.45324 7.69773 8.45415 7.69773 8.45505C7.69773 8.45596 7.69773 8.4569 7.69773 8.45781C7.69773 8.45871 7.69773 8.45966 7.69773 8.46061C7.69773 8.46155 7.69773 8.46246 7.69773 8.46345C7.69773 8.4644 7.69773 8.46534 7.69773 8.46629C7.69773 8.46728 7.69773 8.46823 7.69773 8.46922C7.69773 8.47021 7.69773 8.47115 7.69773 8.47215C7.69773 8.47318 7.69773 8.47417 7.69773 8.47516C7.69773 8.47615 7.69773 8.47718 7.69773 8.47822C7.69773 8.47921 7.69773 8.48024 7.69773 8.48127C7.69773 8.48231 7.69773 8.48334 7.69773 8.48437C7.69773 8.48545 7.69773 8.48648 7.69773 8.48756C7.69773 8.48859 7.69773 8.48967 7.69773 8.49074C7.69773 8.49182 7.69773 8.4929 7.69773 8.49397C7.69773 8.49505 7.69773 8.49617 7.69773 8.49725C7.69773 8.49837 7.69773 8.49948 7.69773 8.50056C7.69773 8.50168 7.69773 8.5028 7.69773 8.50392C7.69773 8.50508 7.69773 8.5062 7.69773 8.50732C7.69773 8.50848 7.69773 8.50965 7.69773 8.51077C7.69773 8.51193 7.69773 8.51309 7.69773 8.51425C7.69773 8.51541 7.69773 8.51662 7.69773 8.51778C7.69773 8.51895 7.69773 8.52015 7.69773 8.52136C7.69773 8.52252 7.69773 8.52372 7.69773 8.52493C7.69773 8.52614 7.69773 8.52738 7.69773 8.52859C7.69773 8.52979 7.69773 8.53104 7.69773 8.53225C7.69773 8.5335 7.69773 8.53475 7.69773 8.536C7.69773 8.53724 7.69773 8.53849 7.69773 8.53974C7.69773 8.54099 7.69773 8.54228 7.69773 8.54353C7.69773 8.54482 7.69773 8.54611 7.69773 8.54741C7.69773 8.5487 7.69773 8.54999 7.69773 8.55128C7.69773 8.55257 7.69773 8.55386 7.69773 8.5552C7.69773 8.55649 7.69773 8.55782 7.69773 8.55916C7.69773 8.56049 7.69773 8.56183 7.69773 8.56316C7.69773 8.5645 7.69773 8.56583 7.69773 8.56717C7.69773 8.56854 7.69773 8.56988 7.69773 8.57126C7.69773 8.57263 7.69773 8.57401 7.69773 8.57539C7.69773 8.57677 7.69773 8.57815 7.69773 8.57952C7.69773 8.58094 7.69773 8.58232 7.69773 8.58374C7.69773 8.58512 7.69773 8.58654 7.69773 8.58796C7.69773 8.58938 7.69773 8.5908 7.69773 8.59222C7.69773 8.59369 7.69773 8.59511 7.69773 8.59657C7.69773 8.59799 7.69773 8.59946 7.69773 8.60092C7.69773 8.60239 7.69773 8.60385 7.69773 8.60531C7.69773 8.60678 7.69773 8.60824 7.69773 8.60975C7.69773 8.61121 7.69773 8.61272 7.69773 8.61423C7.69773 8.61569 7.69773 8.6172 7.69773 8.6187C7.69773 8.62021 7.69773 8.62176 7.69773 8.62327C7.69773 8.62477 7.69773 8.62632 7.69773 8.62787C7.69773 8.62938 7.69773 8.63093 7.69773 8.63248C7.69773 8.63403 7.69773 8.63558 7.69773 8.63713C7.69773 8.63872 7.69773 8.64027 7.69773 8.64187C7.69773 8.64342 7.69773 8.64501 7.69773 8.6466C7.69773 8.6482 7.69773 8.64979 7.69773 8.65138C7.69773 8.65297 7.69773 8.65457 7.69773 8.6562C7.69773 8.6578 7.69773 8.65943 7.69773 8.66107C7.69773 8.66266 7.69773 8.6643 7.69773 8.66593C7.69773 8.66757 7.69773 8.66925 7.69773 8.67089C7.69773 8.67252 7.69773 8.6742 7.69773 8.67584C7.69773 8.67752 7.69773 8.6792 7.69773 8.68087C7.69773 8.68255 7.69773 8.68423 7.69773 8.68591C7.69773 8.68759 7.69773 8.68931 7.69773 8.69099C7.69773 8.69271 7.69773 8.69444 7.69773 8.69612C7.69773 8.69784 7.69773 8.69956 7.69773 8.70128C7.69773 8.703 7.69773 8.70477 7.69773 8.70649C7.69773 8.70826 7.69773 8.70998 7.69773 8.71174C7.69773 8.71351 7.69773 8.71528 7.69773 8.71704C7.69773 8.71881 7.69773 8.72057 7.69773 8.72234C7.69773 8.7241 7.69773 8.72591 7.69773 8.72767C7.69773 8.72948 7.69773 8.73129 7.69773 8.7331C7.69773 8.73491 7.69773 8.73672 7.69773 8.73852C7.69773 8.74033 7.69773 8.74214 7.69773 8.74399C7.69773 8.7458 7.69773 8.74765 7.69773 8.7495C7.69773 8.75131 7.69773 8.75316 7.69773 8.75501C7.69773 8.75691 7.69773 8.75876 7.69773 8.76061C7.69773 8.76246 7.69773 8.76436 7.69773 8.76625C7.69773 8.7681 7.69773 8.77 7.69773 8.77189C7.69773 8.77379 7.69773 8.77568 7.69773 8.77757C7.69773 8.77947 7.69773 8.78141 7.69773 8.7833C7.69773 8.78524 7.69773 8.78718 7.69773 8.78907C7.69773 8.79101 7.69773 8.79295 7.69773 8.79488C7.69773 8.79682 7.69773 8.7988 7.69773 8.80074C7.69773 8.80268 7.69773 8.80466 7.69773 8.80664C7.69773 8.80857 7.69773 8.81056 7.69773 8.81254C7.69773 8.81452 7.69773 8.8165 7.69773 8.81848C7.69773 8.8205 7.69773 8.82248 7.69773 8.82446C7.69773 8.82649 7.69773 8.82851 7.69773 8.83049C7.69773 8.83251 7.69773 8.83454 7.69773 8.83656C7.69773 8.83863 7.69773 8.84065 7.69773 8.84267C7.69773 8.84474 7.69773 8.84676 7.69773 8.84883C7.69773 8.85085 7.69773 8.85292 7.69773 8.85499C7.69773 8.85705 7.69773 8.85912 7.69773 8.86123C7.69773 8.8633 7.69773 8.86536 7.69773 8.86747C7.69773 8.86954 7.69773 8.87165 7.69773 8.87376C7.69773 8.87587 7.69773 8.87798 7.69773 8.88009C7.69773 8.8822 7.69773 8.88431 7.69773 8.88642C7.69773 8.88857 7.69773 8.89068 7.69773 8.89283C7.69773 8.89499 7.69773 8.8971 7.69773 8.89925C7.69773 8.9014 7.69773 8.90355 7.69773 8.90575C7.69773 8.9079 7.69773 8.91005 7.69773 8.91225C7.69773 8.9144 7.69773 8.9166 7.69773 8.91879C7.69773 8.92099 7.69773 8.92314 7.69773 8.92538C7.69773 8.92758 7.69773 8.92977 7.69773 8.93197C7.69773 8.93421 7.69773 8.9364 7.69773 8.93864C7.69773 8.94084 7.69773 8.94308 7.69773 8.94532C7.69773 8.94756 7.69773 8.94979 7.69773 8.95203C7.69773 8.95427 7.69773 8.95655 7.69773 8.95879C7.69773 8.96107 7.69773 8.96331 7.69773 8.9656C7.69773 8.96788 7.69773 8.97016 7.69773 8.97244C7.69773 8.97472 7.69773 8.977 7.69773 8.97929C7.69773 8.98161 7.69773 8.98389 7.69773 8.98622C7.69773 8.9885 7.69773 8.99082 7.69773 8.99315C7.69773 8.99547 7.69773 8.9978 7.69773 9.00012C7.69773 9.00245 7.69773 9.00477 7.69773 9.00714C7.69773 9.00947 7.69773 9.01184 7.69773 9.01416C7.69773 9.01653 7.69773 9.0189 7.69773 9.02126C7.69773 9.02363 7.69773 9.026 7.69773 9.02837C7.69773 9.03074 7.69773 9.03315 7.69773 9.03552C7.69773 9.03793 7.69773 9.04034 7.69773 9.04271C7.69773 9.04512 7.69773 9.04753 7.69773 9.04994C7.69773 9.05235 7.69773 9.05476 7.69773 9.05722C7.69773 9.05963 7.69773 9.06208 7.69773 9.06449C7.69773 9.06695 7.69773 9.0694 7.69773 9.07185C7.69773 9.07426 7.69773 9.07672 7.69773 9.07922C7.69773 9.08167 7.69773 9.08412 7.69773 9.08662C7.69773 9.08908 7.69773 9.09157 7.69773 9.09403C7.69773 9.09652 7.69773 9.09902 7.69773 9.10152C7.69773 9.10402 7.69773 9.10651 7.69773 9.10901C7.69773 9.11151 7.69773 9.11405 7.69773 9.11655C7.69773 9.11909 7.69773 9.12162 7.69773 9.12412C7.69773 9.12666 7.69773 9.1292 7.69773 9.13174C7.69773 9.13428 7.69773 9.13682 7.69773 9.13941C7.69773 9.14195 7.69773 9.14453 7.69773 9.14707C7.69773 9.14965 7.69773 9.15224 7.69773 9.15478C7.69773 9.15736 7.69773 9.15994 7.69773 9.16253C7.69773 9.16515 7.69773 9.16774 7.69773 9.17032C7.69773 9.17295 7.69773 9.17553 7.69773 9.17816C7.69773 9.18078 7.69773 9.18337 7.69773 9.18599C7.69773 9.18862 7.69773 9.19124 7.69773 9.19391C7.69773 9.19654 7.69773 9.19917 7.69773 9.20184C7.69773 9.20446 7.69773 9.20713 7.69773 9.2098C7.69773 9.21243 7.69773 9.2151 7.69773 9.21777C7.69773 9.22044 7.69773 9.2231 7.69773 9.22582C7.69773 9.22849 7.69773 9.23116 7.69773 9.23387C7.69773 9.23654 7.69773 9.23925 7.69773 9.24196C7.69773 9.24468 7.69773 9.24739 7.69773 9.2501C7.69773 9.25281 7.69773 9.25552 7.69773 9.25824C7.69773 9.26099 7.69773 9.26371 7.69773 9.26646C7.69773 9.26917 7.69773 9.27193 7.69773 9.27468C7.69773 9.27744 7.69773 9.2802 7.69773 9.28295C7.69773 9.28571 7.69773 9.28846 7.69773 9.29126C7.69773 9.29402 7.69773 9.29681 7.69773 9.29957C7.69773 9.30237 7.69773 9.30517 7.69773 9.30797C7.69773 9.31076 7.69773 9.31356 7.69773 9.31636C7.69773 9.31916 7.69773 9.32196 7.69773 9.3248C7.69773 9.3276 7.69773 9.33044 7.69773 9.33328C7.69773 9.33608 7.69773 9.33892 7.69773 9.34176C7.69773 9.34461 7.69773 9.34745 7.69773 9.35029C7.69773 9.35317 7.69773 9.35601 7.69773 9.35886C7.69773 9.36174 7.69773 9.36458 7.69773 9.36747C7.69773 9.37035 7.69773 9.37324 7.69773 9.37612C7.69773 9.37901 7.69773 9.38189 7.69773 9.38478C7.69773 9.3877 7.69773 9.39059 7.69773 9.39347C7.69773 9.3964 7.69773 9.39933 7.69773 9.40221C7.69773 9.40514 7.69773 9.40807 7.69773 9.411C7.69773 9.41392 7.69773 9.41685 7.69773 9.41982C7.69773 9.42275 7.69773 9.42568 7.69773 9.42865C7.69773 9.43158 7.69773 9.43455 7.69773 9.43752C7.69773 9.44049 7.69773 9.44346 7.69773 9.44643C7.69773 9.4494 7.69773 9.45237 7.69773 9.45534C7.69773 9.45836 7.69773 9.46133 7.69773 9.46434C7.69773 9.46731 7.69773 9.47032 7.69773 9.47334C7.69773 9.47635 7.69773 9.47937 7.69773 9.48238C7.69773 9.48539 7.69773 9.48841 7.69773 9.49142C7.69773 9.49448 7.69773 9.49749 7.69773 9.50055C7.69773 9.50356 7.69773 9.50662 7.69773 9.50968C7.69773 9.51273 7.69773 9.51579 7.69773 9.51885C7.69773 9.5219 7.69773 9.52496 7.69773 9.52802C7.69773 9.53112 7.69773 9.53417 7.69773 9.53727C7.69773 9.54033 7.69773 9.54343 7.69773 9.54653C7.69773 9.54963 7.69773 9.55273 7.69773 9.55583C7.69773 9.55893 7.69773 9.56203 7.69773 9.56517C7.69773 9.56827 7.69773 9.57137 7.69773 9.57452C7.69773 9.57766 7.69773 9.58076 7.69773 9.5839C7.69773 9.58705 7.69773 9.59019 7.69773 9.59333C7.69773 9.59647 7.69773 9.59966 7.69773 9.6028C7.69773 9.60595 7.69773 9.60913 7.69773 9.61228C7.69773 9.61546 7.69773 9.61865 7.69773 9.62183C7.69773 9.62498 7.69773 9.62816 7.69773 9.63139C7.69773 9.63458 7.69773 9.63776 7.69773 9.64095C7.69773 9.64418 7.69773 9.64737 7.69773 9.65059C7.69773 9.65378 7.69773 9.65701 7.69773 9.66024C7.69773 9.66347 7.69773 9.6667 7.69773 9.66993C7.69773 9.67315 7.69773 9.67638 7.69773 9.67961C7.69773 9.68289 7.69773 9.68611 7.69773 9.68939C7.69773 9.69262 7.69773 9.69589 7.69773 9.69916C7.69773 9.70243 7.69773 9.7057 7.69773 9.70898C7.69773 9.71225 7.69773 9.71552 7.69773 9.71884C7.69773 9.72211 7.69773 9.72538 7.69773 9.7287C7.69773 9.73197 7.69773 9.73528 7.69773 9.7386C7.69773 9.74191 7.69773 9.74523 7.69773 9.74854C7.69773 9.75186 7.69773 9.75517 7.69773 9.75849C7.69773 9.76185 7.69773 9.76516 7.69773 9.76852C7.69773 9.77184 7.69773 9.7752 7.69773 9.77855C7.69773 9.78187 7.69773 9.78523 7.69773 9.78858C7.69773 9.79194 7.69773 9.79534 7.69773 9.7987C7.69773 9.80206 7.69773 9.80546 7.69773 9.80882C7.69773 9.81222 7.69773 9.81558 7.69773 9.81898C7.69773 9.82238 7.69773 9.82578 7.69773 9.82918C7.69773 9.83259 7.69773 9.83599 7.69773 9.83939C7.69773 9.84279 7.69773 9.84623 7.69773 9.84964C7.69773 9.85308 7.69773 9.85648 7.69773 9.85993C7.69773 9.86337 7.69773 9.86677 7.69773 9.87022C7.69773 9.87366 7.69773 9.87711 7.69773 9.88059C7.69773 9.88404 7.69773 9.88748 7.69773 9.89097C7.69773 9.89441 7.69773 9.8979 7.69773 9.90135C7.69773 9.90483 7.69773 9.90832 7.69773 9.91181C7.69773 9.91529 7.69773 9.91878 7.69773 9.92227C7.69773 9.92576 7.69773 9.92924 7.69773 9.93278C7.69773 9.93626 7.69773 9.93979 7.69773 9.94328C7.69773 9.94681 7.69773 9.95034 7.69773 9.95383C7.69773 9.95736 7.69773 9.96089 7.69773 9.96442C7.69773 9.96799 7.69773 9.97152 7.69773 9.97505C7.69773 9.97858 7.69773 9.98216 7.69773 9.98573C7.69773 9.98926 7.69773 9.99284 7.69773 9.99641C7.69773 9.99994 7.69773 10.0035 7.69773 10.0071C7.69773 10.0107 7.69773 10.0143 7.69773 10.0179C7.69773 10.0214 7.69773 10.025 7.69773 10.0286C7.69773 10.0322 7.69773 10.0358 7.69773 10.0394C7.69773 10.043 7.69773 10.0467 7.69773 10.0503C7.69773 10.0539 7.69773 10.0575 7.69773 10.0611C7.69773 10.0647 7.69773 10.0684 7.69773 10.072C7.69773 10.0756 7.69773 10.0793 7.69773 10.083C7.69773 10.0866 7.69773 10.0902 7.69773 10.0939C7.69773 10.0975 7.69773 10.1012 7.69773 10.1049C7.69773 10.1085 7.69773 10.1122 7.69773 10.1159C7.69773 10.1195 7.69773 10.1232 7.69773 10.1269C7.69773 10.1306 7.69773 10.1343 7.69773 10.138C7.69773 10.1417 7.69773 10.1454 7.69773 10.1491C7.69773 10.1528 7.69773 10.1565 7.69773 10.1602C7.69773 10.1639 7.69773 10.1677 7.69773 10.1714C7.69773 10.1751 7.69773 10.1788 7.69773 10.1826C7.69773 10.1863 7.69773 10.1901 7.69773 10.1938C7.69773 10.1976 7.69773 10.2013 7.69773 10.2051C7.69773 10.2088 7.69773 10.2125 7.69773 10.2163C7.69773 10.2201 7.69773 10.2239 7.69773 10.2277C7.69773 10.2314 7.69773 10.2352 7.69773 10.239C7.69773 10.2428 7.69773 10.2466 7.69773 10.2503C7.69773 10.2541 7.69773 10.2579 7.69773 10.2618C7.69773 10.2655 7.69773 10.2693 7.69773 10.2732C7.69773 10.277 7.69773 10.2808 7.69773 10.2846C7.69773 10.2884 7.69773 10.2923 7.69773 10.2961C7.69773 10.2999 7.69773 10.3038 7.69773 10.3076C7.69773 10.3114 7.69773 10.3153 7.69773 10.3191C7.69773 10.323 7.69773 10.3269 7.69773 10.3307C7.69773 10.3346 7.69773 10.3385 7.69773 10.3424C7.69773 10.3462 7.69773 10.3501 7.69773 10.354C7.69773 10.3579 7.69773 10.3617 7.69773 10.3656C7.69773 10.3695 7.69773 10.3734 7.69773 10.3773C7.69773 10.3812 7.69773 10.3851 7.69773 10.389C7.69773 10.3929 7.69773 10.3969 7.69773 10.4008C7.69773 10.4047 7.69773 10.4086 7.69773 10.4125C7.69773 10.4165 7.69773 10.4204 7.69773 10.4243C7.69773 10.4283 7.69773 10.4322 7.69773 10.4362C7.69773 10.4401 7.69773 10.4441 7.69773 10.448C7.69773 10.452 7.69773 10.4559 7.69773 10.4599C7.69773 10.4639 7.69773 10.4679 7.69773 10.4718C7.69773 10.4758 7.69773 10.4798 7.69773 10.4838C7.69773 10.4878 7.69773 10.4918 7.69773 10.4958C7.69773 10.4998 7.69773 10.5037 7.69773 10.5077C7.69773 10.5117 7.69773 10.5158 7.69773 10.5198C7.69773 10.5238 7.69773 10.5278 7.69773 10.5318C7.69773 10.5358 7.69773 10.5399 7.69773 10.5439C7.69773 10.5479 7.69773 10.552 7.69773 10.556C7.69773 10.5601 7.69773 10.5641 7.69773 10.5682C7.69773 10.5722 7.69773 10.5763 7.69773 10.5803C7.69773 10.5844 7.69773 10.5885 7.69773 10.5925C7.69773 10.5966 7.69773 10.6007 7.69773 10.6048C7.69773 10.6088 7.69773 10.6129 7.69773 10.617C7.69773 10.6211 7.69773 10.6252 7.69773 10.6293C7.69773 10.6334 7.69773 10.6375 7.69773 10.6416C7.69773 10.6457 7.69773 10.6498 7.69773 10.6539C7.69773 10.658 7.69773 10.6622 7.69773 10.6663C7.69773 10.6704 7.69773 10.6746 7.69773 10.6787C7.69773 10.6828 7.69773 10.687 7.69773 10.6911C7.69773 10.6952 7.69773 10.6994 7.69773 10.7035C7.69773 10.7077 7.69773 10.7118 7.69773 10.716C7.69773 10.7202 7.69773 10.7243 7.69773 10.7285C7.69773 10.7327 7.69773 10.7369 7.69773 10.741C7.69773 10.7452 7.69773 10.7494 7.69773 10.7536C7.69773 10.7578 7.69773 10.762 7.69773 10.7662C7.69773 10.7704 7.69773 10.7746 7.69773 10.7788C7.69773 10.783 7.69773 10.7872 7.69773 10.7914C7.69773 10.7956 7.69773 10.7999 7.69773 10.8041C7.69773 10.8083 7.69773 10.8126 7.69773 10.8168C7.69773 10.821 7.69773 10.8253 7.69773 10.8295C7.69773 10.8337 7.69773 10.838 7.69773 10.8423C7.69773 10.8465 7.69773 10.8507 7.69773 10.855C7.69773 10.8593 7.69773 10.8635 7.69773 10.8678C7.69773 10.8721 7.69773 10.8764 7.69773 10.8807C7.69773 10.8849 7.69773 10.8892 7.69773 10.8935C7.69773 10.8978 7.69773 10.9021 7.69773 10.9064C7.69773 10.9107 7.69773 10.915 7.69773 10.9193C7.69773 10.9236 7.69773 10.9279 7.69773 10.9322C7.69773 10.9365 7.69773 10.9409 7.69773 10.9452C7.69773 10.9495 7.69773 10.9538 7.69773 10.9582C7.69773 10.9625 7.69773 10.9668 7.69773 10.9712C7.69773 10.9755 7.69773 10.9799 7.69773 10.9842C7.69773 10.9886 7.69773 10.9929 7.69773 10.9973C7.69773 11.0017 7.69773 11.006 7.69773 11.0103C7.69773 11.0147 7.69773 11.0191 7.69773 11.0235C7.69773 11.0279 7.69773 11.0322 7.69773 11.0366C7.69773 11.041 7.69773 11.0454 7.69773 11.0498C7.69773 11.0542 7.69773 11.0586 7.69773 11.063C7.69773 11.0674 7.69773 11.0718 7.69773 11.0762C7.69773 11.0806 7.69773 11.085 7.69773 11.0894C7.69773 11.0939 7.69773 11.0983 7.69773 11.1027C7.69773 11.1072 7.69773 11.1116 7.69773 11.116C7.69773 11.1205 7.69773 11.1249 7.69773 11.1294C7.69773 11.1338 7.69773 11.1383 7.69773 11.1427C7.69773 11.1472 7.69773 11.1516 7.69773 11.1561C7.69773 11.1606 7.69773 11.165 7.69773 11.1695C7.69773 11.174 7.69773 11.1784 7.69773 11.1829C7.69773 11.1874 7.69773 11.1919 7.69773 11.1964C7.69773 11.2009 7.69773 11.2053 7.69773 11.2099C7.69773 11.2143 7.69773 11.2189 7.69773 11.2233C7.69773 11.2279 7.69773 11.2324 7.69773 11.2369C7.69773 11.2414 7.69773 11.2459 7.69773 11.2504C7.69773 11.255 7.69773 11.2595 7.69773 11.264C7.69773 11.2685 7.69773 11.2731 7.69773 11.2776C7.69773 11.2822 7.69773 11.2867 7.69773 11.2913C7.69773 11.2958 7.69773 11.3004 7.69773 11.3049C7.69773 11.3095 7.69773 11.3141 7.69773 11.3186C7.69773 11.3232 7.69773 11.3277 7.69773 11.3323C7.69773 11.3369 7.69773 11.3415 7.69773 11.346C7.69773 11.3506 7.69773 11.3552 7.69773 11.3598C7.69773 11.3644 7.69773 11.369 7.69773 11.3736C7.69773 11.3782 7.69773 11.3828 7.69773 11.3874C7.69773 11.392 7.69773 11.3966 7.69773 11.4012C7.69773 11.4058 7.69773 11.4105 7.69773 11.4151C7.69773 11.4197 7.69773 11.4243 7.69773 11.429C7.69773 11.4336 7.69773 11.4382 7.69773 11.4429C7.69773 11.4475 7.69773 11.4522 7.69773 11.4568C7.69773 11.4615 7.69773 11.4661 7.69773 11.4708C7.69773 11.4754 7.69773 11.4801 7.69773 11.4848C7.69773 11.4894 7.69773 11.4941 7.69773 11.4988C7.69773 11.5034 7.69773 11.5081 7.69773 11.5128C7.69773 11.5174 7.69773 11.5221 7.69773 11.5268C7.69773 11.5315 7.69773 11.5362 7.69773 11.5409C7.69773 11.5456 7.69773 11.5503 7.69773 11.555C7.69773 11.5597 7.69773 11.5644 7.69773 11.5692C7.69773 11.5738 7.69773 11.5786 7.69773 11.5833C7.69773 11.588 7.69773 11.5927 7.69773 11.5975C7.69773 11.6022 7.69773 11.607 7.69773 11.6117C7.69773 11.6164 7.69773 11.6212 7.69773 11.6259C7.69773 11.6306 7.69773 11.6354 7.69773 11.6402C7.69773 11.6449 7.69773 11.6497 7.69773 11.6544C7.69773 11.6592 7.69773 11.664 7.69773 11.6687C7.69773 11.6735 7.69773 11.6783 7.69773 11.683C7.69773 11.6878 7.69773 11.6926 7.69773 11.6974C7.69773 11.7022 7.69773 11.707 7.69773 11.7118C7.69773 11.7166 7.69773 11.7214 7.69773 11.7262C7.69773 11.731 7.69773 11.7358 7.69773 11.7406C7.69773 11.7454 7.69773 11.7502 7.69773 11.755C7.69773 11.7598 7.69773 11.7647 7.69773 11.7695C7.69773 11.7743 7.69773 11.7791 7.69773 11.784C7.69773 11.7888 7.69773 11.7936 7.69773 11.7985C7.69773 11.8033 7.69773 11.8082 7.69773 11.813C7.69773 11.8179 7.69773 11.8227 7.69773 11.8276C7.69773 11.8324 7.69773 11.8373 7.69773 11.8422C7.69773 11.847 7.69773 11.8519 7.69773 11.8568C7.69773 11.8616 7.69773 11.8665 7.69773 11.8714C7.69773 11.8763 7.69773 11.8812 7.69773 11.886C7.69773 11.8909 7.69773 11.8958 7.69773 11.9007C7.69773 11.9056 7.69773 11.9105 7.69773 11.9154C7.69773 11.9203 7.69773 11.9252 7.69773 11.9301C7.69773 11.935 7.69773 11.94 7.69773 11.9449C7.69773 11.9498 7.69773 11.9547 7.69773 11.9597C7.69773 11.9646 7.69773 11.9695 7.69773 11.9744C7.69773 11.9794 7.69773 11.9843 7.69773 11.9892C7.69773 11.9942 7.69773 11.9991 7.69773 12.0041C7.69773 12.009 7.69773 12.014 7.69773 12.0189C7.69773 12.0239 7.69773 12.0289 7.69773 12.0338C7.69773 12.0388 7.69773 12.0438 7.69773 12.0487C7.69773 12.0537 7.69773 12.0587 7.69773 12.0637C7.69773 12.0686 7.69773 12.0736 7.69773 12.0786C7.69773 12.0836 7.69773 12.0886 7.69773 12.0936C7.69773 12.0986 7.69773 12.1036 7.69773 12.1086C7.69773 12.1136 7.69773 12.1186 7.69773 12.1236C7.69773 12.1286 7.69773 12.1336 7.69773 12.1386C7.69773 12.1437 7.69773 12.1487 7.69773 12.1537C7.69773 12.1587 7.69773 12.1638 7.69773 12.1688C7.69773 12.1738 7.69773 12.1789 7.69773 12.1839C7.69773 12.1889 7.69773 12.194 7.69773 12.199C7.69773 12.2041 7.69773 12.2091 7.69773 12.2142C7.69773 12.2192 7.69773 12.2243 7.69773 12.2294C7.69773 12.2344 7.69773 12.2395 7.69773 12.2446C7.69773 12.2496 7.69773 12.2547 7.69773 12.2598C7.69773 12.2649 7.69773 12.27 7.69773 12.275C7.69773 12.2801 7.69773 12.2852 7.69773 12.2903C7.69773 12.2954 7.69773 12.3005 7.69773 12.3056C7.69773 12.3107 7.69773 12.3158 7.69773 12.3209C7.69773 12.326 7.69773 12.3311 7.69773 12.3362C7.69773 12.3413 7.69773 12.3464 7.69773 12.3515C7.69773 12.3567 7.69773 12.3618 7.69773 12.3669C7.69773 12.372 7.69773 12.3772 7.69773 12.3823C7.69773 12.3875 7.69773 12.3926 7.69773 12.3977C7.69773 12.4029 7.69773 12.408 7.69773 12.4132C7.69773 12.4183 7.69773 12.4235 7.69773 12.4286C7.69773 12.4338 7.69773 12.4389 7.69773 12.4441C7.69773 12.4493 7.69773 12.4544 7.69773 12.4596C7.69773 12.4648 7.69773 12.4699 7.69773 12.4752C7.69773 12.4803 7.69773 12.4855 7.69773 12.4907C7.69773 12.4959 7.69773 12.5011 7.69773 12.5062C7.69773 12.5114 7.69773 12.5166 7.69773 12.5218C7.69773 12.527 7.69773 12.5322 7.69773 12.5375C7.69773 12.5427 7.69773 12.5479 7.69773 12.5531C7.69773 12.5583 7.69773 12.5635 7.69773 12.5687C7.69773 12.5739 7.69773 12.5792 7.69773 12.5844C7.69773 12.5896 7.69773 12.5948 7.69773 12.6001C7.69773 12.6053 7.69773 12.6106 7.69773 12.6158C7.69773 12.621 7.69773 12.6263 7.69773 12.6315C7.69773 12.6368 7.69773 12.642 7.69773 12.6473C7.69773 12.6525 7.69773 12.6578 7.69773 12.6631C7.69773 12.6683 7.69773 12.6736 7.69773 12.6788C7.69773 12.6841 7.69773 12.6894 7.69773 12.6947C7.69773 12.6999 7.69773 12.7052 7.69773 12.7105C7.69773 12.7158 7.69773 12.7211 7.69773 12.7264C7.69773 12.7317 7.69773 12.737 7.69773 12.7423C7.69773 12.7476 7.69773 12.7529 7.69773 12.7582C7.69773 12.7634 7.69773 12.7688 7.69773 12.7741C7.69773 12.7794 7.69773 12.7847 7.69773 12.79C7.69773 12.7954 7.69773 12.8006 7.69773 12.806C7.69773 12.8113 7.69773 12.8166 7.69773 12.822C7.69773 12.8273 7.69773 12.8326 7.69773 12.838C7.69773 12.8433 7.69773 12.8487 7.69773 12.854C7.69773 12.8593 7.69773 12.8647 7.69773 12.8701C7.69773 12.8754 7.69773 12.8807 7.69773 12.8861C7.69773 12.8915 7.69773 12.8968 7.69773 12.9022C7.69773 12.9076 7.69773 12.9129 7.69773 12.9183C7.69773 12.9237 7.69773 12.929 7.69773 12.9344C7.69773 12.9398 7.69773 12.9452 7.69773 12.9506C7.69773 12.9559 7.69773 12.9613 7.69773 12.9667C7.69773 12.9721 7.69773 12.9775 7.69773 12.9829C7.69773 12.9883 7.69773 12.9937 7.69773 12.9991C7.69773 13.0045 7.69773 13.0099 7.69773 13.0153C7.69773 13.0207 7.69773 13.0262 7.69773 13.0316C7.69773 13.037 7.69773 13.0424 7.69773 13.0478C7.69773 13.0532 7.69773 13.0587 7.69773 13.0641C7.69773 13.0695 7.69773 13.075 7.69773 13.0804H8.28435C8.28435 13.075 8.28435 13.0695 8.28435 13.0641C8.28435 13.0587 8.28435 13.0532 8.28435 13.0478C8.28435 13.0424 8.28435 13.037 8.28435 13.0316C8.28435 13.0262 8.28435 13.0207 8.28435 13.0153C8.28435 13.0099 8.28435 13.0045 8.28435 12.9991C8.28435 12.9937 8.28435 12.9883 8.28435 12.9829C8.28435 12.9775 8.28435 12.9721 8.28435 12.9667C8.28435 12.9613 8.28435 12.9559 8.28435 12.9506C8.28435 12.9452 8.28435 12.9398 8.28435 12.9344C8.28435 12.929 8.28435 12.9237 8.28435 12.9183C8.28435 12.9129 8.28435 12.9076 8.28435 12.9022C8.28435 12.8968 8.28435 12.8915 8.28435 12.8861C8.28435 12.8807 8.28435 12.8754 8.28435 12.8701C8.28435 12.8647 8.28435 12.8593 8.28435 12.854C8.28435 12.8487 8.28435 12.8433 8.28435 12.838C8.28435 12.8326 8.28435 12.8273 8.28435 12.822C8.28435 12.8166 8.28435 12.8113 8.28435 12.806C8.28435 12.8006 8.28435 12.7954 8.28435 12.79C8.28435 12.7847 8.28435 12.7794 8.28435 12.7741C8.28435 12.7688 8.28435 12.7634 8.28435 12.7582C8.28435 12.7529 8.28435 12.7476 8.28435 12.7423C8.28435 12.737 8.28435 12.7317 8.28435 12.7264C8.28435 12.7211 8.28435 12.7158 8.28435 12.7105C8.28435 12.7052 8.28435 12.6999 8.28435 12.6947C8.28435 12.6894 8.28435 12.6841 8.28435 12.6788C8.28435 12.6736 8.28435 12.6683 8.28435 12.6631C8.28435 12.6578 8.28435 12.6525 8.28435 12.6473C8.28435 12.642 8.28435 12.6368 8.28435 12.6315C8.28435 12.6263 8.28435 12.621 8.28435 12.6158C8.28435 12.6106 8.28435 12.6053 8.28435 12.6001C8.28435 12.5948 8.28435 12.5896 8.28435 12.5844C8.28435 12.5792 8.28435 12.5739 8.28435 12.5687C8.28435 12.5635 8.28435 12.5583 8.28435 12.5531C8.28435 12.5479 8.28435 12.5427 8.28435 12.5375C8.28435 12.5322 8.28435 12.527 8.28435 12.5218C8.28435 12.5166 8.28435 12.5114 8.28435 12.5062C8.28435 12.5011 8.28435 12.4959 8.28435 12.4907C8.28435 12.4855 8.28435 12.4803 8.28435 12.4752C8.28435 12.4699 8.28435 12.4648 8.28435 12.4596C8.28435 12.4544 8.28435 12.4493 8.28435 12.4441C8.28435 12.4389 8.28435 12.4338 8.28435 12.4286C8.28435 12.4235 8.28435 12.4183 8.28435 12.4132C8.28435 12.408 8.28435 12.4029 8.28435 12.3977C8.28435 12.3926 8.28435 12.3875 8.28435 12.3823C8.28435 12.3772 8.28435 12.372 8.28435 12.3669C8.28435 12.3618 8.28435 12.3567 8.28435 12.3515C8.28435 12.3464 8.28435 12.3413 8.28435 12.3362C8.28435 12.3311 8.28435 12.326 8.28435 12.3209C8.28435 12.3158 8.28435 12.3107 8.28435 12.3056C8.28435 12.3005 8.28435 12.2954 8.28435 12.2903C8.28435 12.2852 8.28435 12.2801 8.28435 12.275C8.28435 12.27 8.28435 12.2649 8.28435 12.2598C8.28435 12.2547 8.28435 12.2496 8.28435 12.2446C8.28435 12.2395 8.28435 12.2344 8.28435 12.2294C8.28435 12.2243 8.28435 12.2192 8.28435 12.2142C8.28435 12.2091 8.28435 12.2041 8.28435 12.199C8.28435 12.194 8.28435 12.1889 8.28435 12.1839C8.28435 12.1789 8.28435 12.1738 8.28435 12.1688C8.28435 12.1638 8.28435 12.1587 8.28435 12.1537C8.28435 12.1487 8.28435 12.1437 8.28435 12.1386C8.28435 12.1336 8.28435 12.1286 8.28435 12.1236C8.28435 12.1186 8.28435 12.1136 8.28435 12.1086C8.28435 12.1036 8.28435 12.0986 8.28435 12.0936C8.28435 12.0886 8.28435 12.0836 8.28435 12.0786C8.28435 12.0736 8.28435 12.0686 8.28435 12.0637C8.28435 12.0587 8.28435 12.0537 8.28435 12.0487C8.28435 12.0438 8.28435 12.0388 8.28435 12.0338C8.28435 12.0289 8.28435 12.0239 8.28435 12.0189C8.28435 12.014 8.28435 12.009 8.28435 12.0041C8.28435 11.9991 8.28435 11.9942 8.28435 11.9892C8.28435 11.9843 8.28435 11.9794 8.28435 11.9744C8.28435 11.9695 8.28435 11.9646 8.28435 11.9597C8.28435 11.9547 8.28435 11.9498 8.28435 11.9449C8.28435 11.94 8.28435 11.935 8.28435 11.9301C8.28435 11.9252 8.28435 11.9203 8.28435 11.9154C8.28435 11.9105 8.28435 11.9056 8.28435 11.9007C8.28435 11.8958 8.28435 11.8909 8.28435 11.886C8.28435 11.8812 8.28435 11.8763 8.28435 11.8714C8.28435 11.8665 8.28435 11.8616 8.28435 11.8568C8.28435 11.8519 8.28435 11.847 8.28435 11.8422C8.28435 11.8373 8.28435 11.8324 8.28435 11.8276C8.28435 11.8227 8.28435 11.8179 8.28435 11.813C8.28435 11.8082 8.28435 11.8033 8.28435 11.7985C8.28435 11.7936 8.28435 11.7888 8.28435 11.784C8.28435 11.7791 8.28435 11.7743 8.28435 11.7695C8.28435 11.7647 8.28435 11.7598 8.28435 11.755C8.28435 11.7502 8.28435 11.7454 8.28435 11.7406C8.28435 11.7358 8.28435 11.731 8.28435 11.7262C8.28435 11.7214 8.28435 11.7166 8.28435 11.7118C8.28435 11.707 8.28435 11.7022 8.28435 11.6974C8.28435 11.6926 8.28435 11.6878 8.28435 11.683C8.28435 11.6783 8.28435 11.6735 8.28435 11.6687C8.28435 11.664 8.28435 11.6592 8.28435 11.6544C8.28435 11.6497 8.28435 11.6449 8.28435 11.6402C8.28435 11.6354 8.28435 11.6306 8.28435 11.6259C8.28435 11.6212 8.28435 11.6164 8.28435 11.6117C8.28435 11.607 8.28435 11.6022 8.28435 11.5975C8.28435 11.5927 8.28435 11.588 8.28435 11.5833C8.28435 11.5786 8.28435 11.5738 8.28435 11.5692C8.28435 11.5644 8.28435 11.5597 8.28435 11.555C8.28435 11.5503 8.28435 11.5456 8.28435 11.5409C8.28435 11.5362 8.28435 11.5315 8.28435 11.5268C8.28435 11.5221 8.28435 11.5174 8.28435 11.5128C8.28435 11.5081 8.28435 11.5034 8.28435 11.4988C8.28435 11.4941 8.28435 11.4894 8.28435 11.4848C8.28435 11.4801 8.28435 11.4754 8.28435 11.4708C8.28435 11.4661 8.28435 11.4615 8.28435 11.4568C8.28435 11.4522 8.28435 11.4475 8.28435 11.4429C8.28435 11.4382 8.28435 11.4336 8.28435 11.429C8.28435 11.4243 8.28435 11.4197 8.28435 11.4151C8.28435 11.4105 8.28435 11.4058 8.28435 11.4012C8.28435 11.3966 8.28435 11.392 8.28435 11.3874C8.28435 11.3828 8.28435 11.3782 8.28435 11.3736C8.28435 11.369 8.28435 11.3644 8.28435 11.3598C8.28435 11.3552 8.28435 11.3506 8.28435 11.346C8.28435 11.3415 8.28435 11.3369 8.28435 11.3323C8.28435 11.3277 8.28435 11.3232 8.28435 11.3186C8.28435 11.3141 8.28435 11.3095 8.28435 11.3049C8.28435 11.3004 8.28435 11.2958 8.28435 11.2913C8.28435 11.2867 8.28435 11.2822 8.28435 11.2776C8.28435 11.2731 8.28435 11.2685 8.28435 11.264C8.28435 11.2595 8.28435 11.255 8.28435 11.2504C8.28435 11.2459 8.28435 11.2414 8.28435 11.2369C8.28435 11.2324 8.28435 11.2279 8.28435 11.2233C8.28435 11.2189 8.28435 11.2143 8.28435 11.2099C8.28435 11.2053 8.28435 11.2009 8.28435 11.1964C8.28435 11.1919 8.28435 11.1874 8.28435 11.1829C8.28435 11.1784 8.28435 11.174 8.28435 11.1695C8.28435 11.165 8.28435 11.1606 8.28435 11.1561C8.28435 11.1516 8.28435 11.1472 8.28435 11.1427C8.28435 11.1383 8.28435 11.1338 8.28435 11.1294C8.28435 11.1249 8.28435 11.1205 8.28435 11.116C8.28435 11.1116 8.28435 11.1072 8.28435 11.1027C8.28435 11.0983 8.28435 11.0939 8.28435 11.0894C8.28435 11.085 8.28435 11.0806 8.28435 11.0762C8.28435 11.0718 8.28435 11.0674 8.28435 11.063C8.28435 11.0586 8.28435 11.0542 8.28435 11.0498C8.28435 11.0454 8.28435 11.041 8.28435 11.0366C8.28435 11.0322 8.28435 11.0279 8.28435 11.0235C8.28435 11.0191 8.28435 11.0147 8.28435 11.0103C8.28435 11.006 8.28435 11.0017 8.28435 10.9973C8.28435 10.9929 8.28435 10.9886 8.28435 10.9842C8.28435 10.9799 8.28435 10.9755 8.28435 10.9712C8.28435 10.9668 8.28435 10.9625 8.28435 10.9582C8.28435 10.9538 8.28435 10.9495 8.28435 10.9452C8.28435 10.9409 8.28435 10.9365 8.28435 10.9322C8.28435 10.9279 8.28435 10.9236 8.28435 10.9193C8.28435 10.915 8.28435 10.9107 8.28435 10.9064C8.28435 10.9021 8.28435 10.8978 8.28435 10.8935C8.28435 10.8892 8.28435 10.8849 8.28435 10.8807C8.28435 10.8764 8.28435 10.8721 8.28435 10.8678C8.28435 10.8635 8.28435 10.8593 8.28435 10.855C8.28435 10.8507 8.28435 10.8465 8.28435 10.8423C8.28435 10.838 8.28435 10.8337 8.28435 10.8295C8.28435 10.8253 8.28435 10.821 8.28435 10.8168C8.28435 10.8126 8.28435 10.8083 8.28435 10.8041C8.28435 10.7999 8.28435 10.7956 8.28435 10.7914C8.28435 10.7872 8.28435 10.783 8.28435 10.7788C8.28435 10.7746 8.28435 10.7704 8.28435 10.7662C8.28435 10.762 8.28435 10.7578 8.28435 10.7536C8.28435 10.7494 8.28435 10.7452 8.28435 10.741C8.28435 10.7369 8.28435 10.7327 8.28435 10.7285C8.28435 10.7243 8.28435 10.7202 8.28435 10.716C8.28435 10.7118 8.28435 10.7077 8.28435 10.7035C8.28435 10.6994 8.28435 10.6952 8.28435 10.6911C8.28435 10.687 8.28435 10.6828 8.28435 10.6787C8.28435 10.6746 8.28435 10.6704 8.28435 10.6663C8.28435 10.6622 8.28435 10.658 8.28435 10.6539C8.28435 10.6498 8.28435 10.6457 8.28435 10.6416C8.28435 10.6375 8.28435 10.6334 8.28435 10.6293C8.28435 10.6252 8.28435 10.6211 8.28435 10.617C8.28435 10.6129 8.28435 10.6088 8.28435 10.6048C8.28435 10.6007 8.28435 10.5966 8.28435 10.5925C8.28435 10.5885 8.28435 10.5844 8.28435 10.5803C8.28435 10.5763 8.28435 10.5722 8.28435 10.5682C8.28435 10.5641 8.28435 10.5601 8.28435 10.556C8.28435 10.552 8.28435 10.5479 8.28435 10.5439C8.28435 10.5399 8.28435 10.5358 8.28435 10.5318C8.28435 10.5278 8.28435 10.5238 8.28435 10.5198C8.28435 10.5158 8.28435 10.5117 8.28435 10.5077C8.28435 10.5037 8.28435 10.4998 8.28435 10.4958C8.28435 10.4918 8.28435 10.4878 8.28435 10.4838C8.28435 10.4798 8.28435 10.4758 8.28435 10.4718C8.28435 10.4679 8.28435 10.4639 8.28435 10.4599C8.28435 10.4559 8.28435 10.452 8.28435 10.448C8.28435 10.4441 8.28435 10.4401 8.28435 10.4362C8.28435 10.4322 8.28435 10.4283 8.28435 10.4243C8.28435 10.4204 8.28435 10.4165 8.28435 10.4125C8.28435 10.4086 8.28435 10.4047 8.28435 10.4008C8.28435 10.3969 8.28435 10.3929 8.28435 10.389C8.28435 10.3851 8.28435 10.3812 8.28435 10.3773C8.28435 10.3734 8.28435 10.3695 8.28435 10.3656C8.28435 10.3617 8.28435 10.3579 8.28435 10.354C8.28435 10.3501 8.28435 10.3462 8.28435 10.3424C8.28435 10.3385 8.28435 10.3346 8.28435 10.3307C8.28435 10.3269 8.28435 10.323 8.28435 10.3191C8.28435 10.3153 8.28435 10.3114 8.28435 10.3076C8.28435 10.3038 8.28435 10.2999 8.28435 10.2961C8.28435 10.2923 8.28435 10.2884 8.28435 10.2846C8.28435 10.2808 8.28435 10.277 8.28435 10.2732C8.28435 10.2693 8.28435 10.2655 8.28435 10.2618C8.28435 10.2579 8.28435 10.2541 8.28435 10.2503C8.28435 10.2466 8.28435 10.2428 8.28435 10.239C8.28435 10.2352 8.28435 10.2314 8.28435 10.2277C8.28435 10.2239 8.28435 10.2201 8.28435 10.2163C8.28435 10.2125 8.28435 10.2088 8.28435 10.2051C8.28435 10.2013 8.28435 10.1976 8.28435 10.1938C8.28435 10.1901 8.28435 10.1863 8.28435 10.1826C8.28435 10.1788 8.28435 10.1751 8.28435 10.1714C8.28435 10.1677 8.28435 10.1639 8.28435 10.1602C8.28435 10.1565 8.28435 10.1528 8.28435 10.1491C8.28435 10.1454 8.28435 10.1417 8.28435 10.138C8.28435 10.1343 8.28435 10.1306 8.28435 10.1269C8.28435 10.1232 8.28435 10.1195 8.28435 10.1159C8.28435 10.1122 8.28435 10.1085 8.28435 10.1049C8.28435 10.1012 8.28435 10.0975 8.28435 10.0939C8.28435 10.0902 8.28435 10.0866 8.28435 10.083C8.28435 10.0793 8.28435 10.0756 8.28435 10.072C8.28435 10.0684 8.28435 10.0647 8.28435 10.0611C8.28435 10.0575 8.28435 10.0539 8.28435 10.0503C8.28435 10.0467 8.28435 10.043 8.28435 10.0394C8.28435 10.0358 8.28435 10.0322 8.28435 10.0286C8.28435 10.025 8.28435 10.0214 8.28435 10.0179C8.28435 10.0143 8.28435 10.0107 8.28435 10.0071C8.28435 10.0035 8.28435 9.99994 8.28435 9.99641C8.28435 9.99284 8.28435 9.98926 8.28435 9.98573C8.28435 9.98216 8.28435 9.97858 8.28435 9.97505C8.28435 9.97152 8.28435 9.96799 8.28435 9.96442C8.28435 9.96089 8.28435 9.95736 8.28435 9.95383C8.28435 9.95034 8.28435 9.94681 8.28435 9.94328C8.28435 9.93979 8.28435 9.93626 8.28435 9.93278C8.28435 9.92924 8.28435 9.92576 8.28435 9.92227C8.28435 9.91878 8.28435 9.91529 8.28435 9.91181C8.28435 9.90832 8.28435 9.90483 8.28435 9.90135C8.28435 9.8979 8.28435 9.89441 8.28435 9.89097C8.28435 9.88748 8.28435 9.88404 8.28435 9.88059C8.28435 9.87711 8.28435 9.87366 8.28435 9.87022C8.28435 9.86677 8.28435 9.86337 8.28435 9.85993C8.28435 9.85648 8.28435 9.85308 8.28435 9.84964C8.28435 9.84623 8.28435 9.84279 8.28435 9.83939C8.28435 9.83599 8.28435 9.83259 8.28435 9.82918C8.28435 9.82578 8.28435 9.82238 8.28435 9.81898C8.28435 9.81558 8.28435 9.81222 8.28435 9.80882C8.28435 9.80546 8.28435 9.80206 8.28435 9.7987C8.28435 9.79534 8.28435 9.79194 8.28435 9.78858C8.28435 9.78523 8.28435 9.78187 8.28435 9.77855C8.28435 9.7752 8.28435 9.77184 8.28435 9.76852C8.28435 9.76516 8.28435 9.76185 8.28435 9.75849C8.28435 9.75517 8.28435 9.75186 8.28435 9.74854C8.28435 9.74523 8.28435 9.74191 8.28435 9.7386C8.28435 9.73528 8.28435 9.73197 8.28435 9.7287C8.28435 9.72538 8.28435 9.72211 8.28435 9.71884C8.28435 9.71552 8.28435 9.71225 8.28435 9.70898C8.28435 9.7057 8.28435 9.70243 8.28435 9.69916C8.28435 9.69589 8.28435 9.69262 8.28435 9.68939C8.28435 9.68611 8.28435 9.68289 8.28435 9.67961C8.28435 9.67638 8.28435 9.67315 8.28435 9.66993C8.28435 9.6667 8.28435 9.66347 8.28435 9.66024C8.28435 9.65701 8.28435 9.65378 8.28435 9.65059C8.28435 9.64737 8.28435 9.64418 8.28435 9.64095C8.28435 9.63776 8.28435 9.63458 8.28435 9.63139C8.28435 9.62816 8.28435 9.62498 8.28435 9.62183C8.28435 9.61865 8.28435 9.61546 8.28435 9.61228C8.28435 9.60913 8.28435 9.60595 8.28435 9.6028C8.28435 9.59966 8.28435 9.59647 8.28435 9.59333C8.28435 9.59019 8.28435 9.58705 8.28435 9.5839C8.28435 9.58076 8.28435 9.57766 8.28435 9.57452C8.28435 9.57137 8.28435 9.56827 8.28435 9.56517C8.28435 9.56203 8.28435 9.55893 8.28435 9.55583C8.28435 9.55273 8.28435 9.54963 8.28435 9.54653C8.28435 9.54343 8.28435 9.54033 8.28435 9.53727C8.28435 9.53417 8.28435 9.53112 8.28435 9.52802C8.28435 9.52496 8.28435 9.5219 8.28435 9.51885C8.28435 9.51579 8.28435 9.51273 8.28435 9.50968C8.28435 9.50662 8.28435 9.50356 8.28435 9.50055C8.28435 9.49749 8.28435 9.49448 8.28435 9.49142C8.28435 9.48841 8.28435 9.48539 8.28435 9.48238C8.28435 9.47937 8.28435 9.47635 8.28435 9.47334C8.28435 9.47032 8.28435 9.46731 8.28435 9.46434C8.28435 9.46133 8.28435 9.45836 8.28435 9.45534C8.28435 9.45237 8.28435 9.4494 8.28435 9.44643C8.28435 9.44346 8.28435 9.44049 8.28435 9.43752C8.28435 9.43455 8.28435 9.43158 8.28435 9.42865C8.28435 9.42568 8.28435 9.42275 8.28435 9.41982C8.28435 9.41685 8.28435 9.41392 8.28435 9.411C8.28435 9.40807 8.28435 9.40514 8.28435 9.40221C8.28435 9.39933 8.28435 9.3964 8.28435 9.39347C8.28435 9.39059 8.28435 9.3877 8.28435 9.38478C8.28435 9.38189 8.28435 9.37901 8.28435 9.37612C8.28435 9.37324 8.28435 9.37035 8.28435 9.36747C8.28435 9.36458 8.28435 9.36174 8.28435 9.35886C8.28435 9.35601 8.28435 9.35317 8.28435 9.35029C8.28435 9.34745 8.28435 9.34461 8.28435 9.34176C8.28435 9.33892 8.28435 9.33608 8.28435 9.33328C8.28435 9.33044 8.28435 9.3276 8.28435 9.3248C8.28435 9.32196 8.28435 9.31916 8.28435 9.31636C8.28435 9.31356 8.28435 9.31076 8.28435 9.30797C8.28435 9.30517 8.28435 9.30237 8.28435 9.29957C8.28435 9.29681 8.28435 9.29402 8.28435 9.29126C8.28435 9.28846 8.28435 9.28571 8.28435 9.28295C8.28435 9.2802 8.28435 9.27744 8.28435 9.27468C8.28435 9.27193 8.28435 9.26917 8.28435 9.26646C8.28435 9.26371 8.28435 9.26099 8.28435 9.25824C8.28435 9.25552 8.28435 9.25281 8.28435 9.2501C8.28435 9.24739 8.28435 9.24468 8.28435 9.24196C8.28435 9.23925 8.28435 9.23654 8.28435 9.23387C8.28435 9.23116 8.28435 9.22849 8.28435 9.22582C8.28435 9.2231 8.28435 9.22044 8.28435 9.21777C8.28435 9.2151 8.28435 9.21243 8.28435 9.2098C8.28435 9.20713 8.28435 9.20446 8.28435 9.20184C8.28435 9.19917 8.28435 9.19654 8.28435 9.19391C8.28435 9.19124 8.28435 9.18862 8.28435 9.18599C8.28435 9.18337 8.28435 9.18078 8.28435 9.17816C8.28435 9.17553 8.28435 9.17295 8.28435 9.17032C8.28435 9.16774 8.28435 9.16515 8.28435 9.16253C8.28435 9.15994 8.28435 9.15736 8.28435 9.15478C8.28435 9.15224 8.28435 9.14965 8.28435 9.14707C8.28435 9.14453 8.28435 9.14195 8.28435 9.13941C8.28435 9.13682 8.28435 9.13428 8.28435 9.13174C8.28435 9.1292 8.28435 9.12666 8.28435 9.12412C8.28435 9.12162 8.28435 9.11909 8.28435 9.11655C8.28435 9.11405 8.28435 9.11151 8.28435 9.10901C8.28435 9.10651 8.28435 9.10402 8.28435 9.10152C8.28435 9.09902 8.28435 9.09652 8.28435 9.09403C8.28435 9.09157 8.28435 9.08908 8.28435 9.08662C8.28435 9.08412 8.28435 9.08167 8.28435 9.07922C8.28435 9.07672 8.28435 9.07426 8.28435 9.07185C8.28435 9.0694 8.28435 9.06695 8.28435 9.06449C8.28435 9.06208 8.28435 9.05963 8.28435 9.05722C8.28435 9.05476 8.28435 9.05235 8.28435 9.04994C8.28435 9.04753 8.28435 9.04512 8.28435 9.04271C8.28435 9.04034 8.28435 9.03793 8.28435 9.03552C8.28435 9.03315 8.28435 9.03074 8.28435 9.02837C8.28435 9.026 8.28435 9.02363 8.28435 9.02126C8.28435 9.0189 8.28435 9.01653 8.28435 9.01416C8.28435 9.01184 8.28435 9.00947 8.28435 9.00714C8.28435 9.00477 8.28435 9.00245 8.28435 9.00012C8.28435 8.9978 8.28435 8.99547 8.28435 8.99315C8.28435 8.99082 8.28435 8.9885 8.28435 8.98622C8.28435 8.98389 8.28435 8.98161 8.28435 8.97929C8.28435 8.977 8.28435 8.97472 8.28435 8.97244C8.28435 8.97016 8.28435 8.96788 8.28435 8.9656C8.28435 8.96331 8.28435 8.96107 8.28435 8.95879C8.28435 8.95655 8.28435 8.95427 8.28435 8.95203C8.28435 8.94979 8.28435 8.94756 8.28435 8.94532C8.28435 8.94308 8.28435 8.94084 8.28435 8.93864C8.28435 8.9364 8.28435 8.93421 8.28435 8.93197C8.28435 8.92977 8.28435 8.92758 8.28435 8.92538C8.28435 8.92314 8.28435 8.92099 8.28435 8.91879C8.28435 8.9166 8.28435 8.9144 8.28435 8.91225C8.28435 8.91005 8.28435 8.9079 8.28435 8.90575C8.28435 8.90355 8.28435 8.9014 8.28435 8.89925C8.28435 8.8971 8.28435 8.89499 8.28435 8.89283C8.28435 8.89068 8.28435 8.88857 8.28435 8.88642C8.28435 8.88431 8.28435 8.8822 8.28435 8.88009C8.28435 8.87798 8.28435 8.87587 8.28435 8.87376C8.28435 8.87165 8.28435 8.86954 8.28435 8.86747C8.28435 8.86536 8.28435 8.8633 8.28435 8.86123C8.28435 8.85912 8.28435 8.85705 8.28435 8.85499C8.28435 8.85292 8.28435 8.85085 8.28435 8.84883C8.28435 8.84676 8.28435 8.84474 8.28435 8.84267C8.28435 8.84065 8.28435 8.83863 8.28435 8.83656C8.28435 8.83454 8.28435 8.83251 8.28435 8.83049C8.28435 8.82851 8.28435 8.82649 8.28435 8.82446C8.28435 8.82248 8.28435 8.8205 8.28435 8.81848C8.28435 8.8165 8.28435 8.81452 8.28435 8.81254C8.28435 8.81056 8.28435 8.80857 8.28435 8.80664C8.28435 8.80466 8.28435 8.80268 8.28435 8.80074C8.28435 8.7988 8.28435 8.79682 8.28435 8.79488C8.28435 8.79295 8.28435 8.79101 8.28435 8.78907C8.28435 8.78718 8.28435 8.78524 8.28435 8.7833C8.28435 8.78141 8.28435 8.77947 8.28435 8.77757C8.28435 8.77568 8.28435 8.77379 8.28435 8.77189C8.28435 8.77 8.28435 8.7681 8.28435 8.76625C8.28435 8.76436 8.28435 8.76246 8.28435 8.76061C8.28435 8.75876 8.28435 8.75691 8.28435 8.75501C8.28435 8.75316 8.28435 8.75131 8.28435 8.7495C8.28435 8.74765 8.28435 8.7458 8.28435 8.74399C8.28435 8.74214 8.28435 8.74033 8.28435 8.73852C8.28435 8.73672 8.28435 8.73491 8.28435 8.7331C8.28435 8.73129 8.28435 8.72948 8.28435 8.72767C8.28435 8.72591 8.28435 8.7241 8.28435 8.72234C8.28435 8.72057 8.28435 8.71881 8.28435 8.71704C8.28435 8.71528 8.28435 8.71351 8.28435 8.71174C8.28435 8.70998 8.28435 8.70826 8.28435 8.70649C8.28435 8.70477 8.28435 8.703 8.28435 8.70128C8.28435 8.69956 8.28435 8.69784 8.28435 8.69612C8.28435 8.69444 8.28435 8.69271 8.28435 8.69099C8.28435 8.68931 8.28435 8.68759 8.28435 8.68591C8.28435 8.68423 8.28435 8.68255 8.28435 8.68087C8.28435 8.6792 8.28435 8.67752 8.28435 8.67584C8.28435 8.6742 8.28435 8.67252 8.28435 8.67089C8.28435 8.66925 8.28435 8.66757 8.28435 8.66593C8.28435 8.6643 8.28435 8.66266 8.28435 8.66107C8.28435 8.65943 8.28435 8.6578 8.28435 8.6562C8.28435 8.65457 8.28435 8.65297 8.28435 8.65138C8.28435 8.64979 8.28435 8.6482 8.28435 8.6466C8.28435 8.64501 8.28435 8.64342 8.28435 8.64187C8.28435 8.64027 8.28435 8.63872 8.28435 8.63713C8.28435 8.63558 8.28435 8.63403 8.28435 8.63248C8.28435 8.63093 8.28435 8.62938 8.28435 8.62787C8.28435 8.62632 8.28435 8.62477 8.28435 8.62327C8.28435 8.62176 8.28435 8.62021 8.28435 8.6187C8.28435 8.6172 8.28435 8.61569 8.28435 8.61423C8.28435 8.61272 8.28435 8.61121 8.28435 8.60975C8.28435 8.60824 8.28435 8.60678 8.28435 8.60531C8.28435 8.60385 8.28435 8.60239 8.28435 8.60092C8.28435 8.59946 8.28435 8.59799 8.28435 8.59657C8.28435 8.59511 8.28435 8.59369 8.28435 8.59222C8.28435 8.5908 8.28435 8.58938 8.28435 8.58796C8.28435 8.58654 8.28435 8.58512 8.28435 8.58374C8.28435 8.58232 8.28435 8.58094 8.28435 8.57952C8.28435 8.57815 8.28435 8.57677 8.28435 8.57539C8.28435 8.57401 8.28435 8.57263 8.28435 8.57126C8.28435 8.56988 8.28435 8.56854 8.28435 8.56717C8.28435 8.56583 8.28435 8.5645 8.28435 8.56316C8.28435 8.56183 8.28435 8.56049 8.28435 8.55916C8.28435 8.55782 8.28435 8.55649 8.28435 8.5552C8.28435 8.55386 8.28435 8.55257 8.28435 8.55128C8.28435 8.54999 8.28435 8.5487 8.28435 8.54741C8.28435 8.54611 8.28435 8.54482 8.28435 8.54353C8.28435 8.54228 8.28435 8.54099 8.28435 8.53974C8.28435 8.53849 8.28435 8.53724 8.28435 8.536C8.28435 8.53475 8.28435 8.5335 8.28435 8.53225C8.28435 8.53104 8.28435 8.52979 8.28435 8.52859C8.28435 8.52738 8.28435 8.52614 8.28435 8.52493C8.28435 8.52372 8.28435 8.52252 8.28435 8.52136C8.28435 8.52015 8.28435 8.51895 8.28435 8.51778C8.28435 8.51662 8.28435 8.51541 8.28435 8.51425C8.28435 8.51309 8.28435 8.51193 8.28435 8.51077C8.28435 8.50965 8.28435 8.50848 8.28435 8.50732C8.28435 8.5062 8.28435 8.50508 8.28435 8.50392C8.28435 8.5028 8.28435 8.50168 8.28435 8.50056C8.28435 8.49948 8.28435 8.49837 8.28435 8.49725C8.28435 8.49617 8.28435 8.49505 8.28435 8.49397C8.28435 8.4929 8.28435 8.49182 8.28435 8.49074C8.28435 8.48967 8.28435 8.48859 8.28435 8.48756C8.28435 8.48648 8.28435 8.48545 8.28435 8.48437C8.28435 8.48334 8.28435 8.48231 8.28435 8.48127C8.28435 8.48024 8.28435 8.47921 8.28435 8.47822C8.28435 8.47718 8.28435 8.47615 8.28435 8.47516C8.28435 8.47417 8.28435 8.47318 8.28435 8.47215C8.28435 8.47115 8.28435 8.47021 8.28435 8.46922C8.28435 8.46823 8.28435 8.46728 8.28435 8.46629C8.28435 8.46534 8.28435 8.4644 8.28435 8.46345C8.28435 8.46246 8.28435 8.46155 8.28435 8.46061C8.28435 8.45966 8.28435 8.45871 8.28435 8.45781C8.28435 8.4569 8.28435 8.45596 8.28435 8.45505C8.28435 8.45415 8.28435 8.45324 8.28435 8.45234C8.28435 8.45144 8.28435 8.45057 8.28435 8.44967C8.28435 8.44881 8.28435 8.44791 8.28435 8.44704C8.28435 8.44618 8.28435 8.44532 8.28435 8.44446C8.28435 8.4436 8.28435 8.44278 8.28435 8.44192C8.28435 8.4411 8.28435 8.44024 8.28435 8.43942C8.28435 8.43861 8.28435 8.43779 8.28435 8.43697C8.28435 8.43615 8.28435 8.43533 8.28435 8.43456C8.28435 8.43374 8.28435 8.43297 8.28435 8.43219C8.28435 8.43137 8.28435 8.4306 8.28435 8.42982C8.28435 8.42905 8.28435 8.42832 8.28435 8.42754C8.28435 8.42677 8.28435 8.42603 8.28435 8.4253C8.28435 8.42453 8.28435 8.42379 8.28435 8.42306C8.28435 8.42233 8.28435 8.42164 8.28435 8.42091C8.28435 8.42018 8.28435 8.41949 8.28435 8.41876C8.28435 8.41807 8.28435 8.41738 8.28435 8.41669C8.28435 8.416 8.28435 8.41531 8.28435 8.41467C8.28435 8.41398 8.28435 8.41329 8.28435 8.41264C8.28435 8.412 8.28435 8.41135 8.28435 8.41071C8.28435 8.41006 8.28435 8.40941 8.28435 8.40877C8.28435 8.40812 8.28435 8.40752 8.28435 8.40687C8.28435 8.40627 8.28435 8.40567 8.28435 8.40507C8.28435 8.40446 8.28435 8.40386 8.28435 8.40326C8.28435 8.4027 8.28435 8.4021 8.28435 8.40154C8.28435 8.40093 8.28435 8.40037 8.28435 8.39981C8.28435 8.39925 8.28435 8.39869 8.28435 8.39813C8.28435 8.39762 8.28435 8.39706 8.28435 8.39654C8.28435 8.39598 8.28435 8.39546 8.28435 8.39495C8.28435 8.39443 8.28435 8.39392 8.28435 8.3934C8.28435 8.39288 8.28435 8.39241 8.28435 8.39189C8.28435 8.39142 8.28435 8.39094 8.28435 8.39047C8.28435 8.39 8.28435 8.38952 8.28435 8.38905C8.28435 8.38858 8.28435 8.38815 8.28435 8.38767C8.28435 8.38724 8.28435 8.38677 8.28435 8.38634C8.28435 8.38591 8.28435 8.38548 8.28435 8.38509C8.28435 8.38466 8.28435 8.38423 8.28435 8.38384C8.28435 8.38341 8.28435 8.38302 8.28435 8.38263C8.28435 8.38225 8.28435 8.38186 8.28435 8.38147C8.28435 8.38108 8.28435 8.38074 8.28435 8.38035C8.28435 8.38001 8.28435 8.37966 8.28435 8.37932C8.28435 8.37897 8.28435 8.37863 8.28435 8.37829C8.28435 8.37794 8.28435 8.3773 8.28435 8.3773V8.37635V8.37544V8.37463V8.37381V8.37303V8.3723V8.37166V8.37101V8.37041V8.36985V8.36937V8.3689V8.3689V8.36778V8.36726V8.36679V8.36679C8.28435 8.36679 8.28435 8.3667 7.99104 8.3667Z" fill="#1E1E1E"/>
</svg>
