<svg width="379" height="120" viewBox="0 0 379 120" fill="none" xmlns="http://www.w3.org/2000/svg">
<g clip-path="url(#clip0_128_152)">
<path d="M376.799 2.2041H2.20062V117.796H376.799V2.2041Z" stroke="white" stroke-width="4.6"/>
<path d="M39.1226 29.3877H51.9386C61.4843 29.3877 65.1965 35.3353 65.1965 44.2564V50.9037C65.1965 60.6122 60.6889 65.4227 50.8779 65.4227H43.1884V90.6122H39.1226V29.3877ZM43.1884 61.7492H50.8779C58.0373 61.7492 61.131 58.6006 61.131 51.1662V43.9941C61.131 37.3469 58.8328 33.0612 51.9386 33.0612H43.1884V61.7492Z" fill="white"/>
<path d="M71.4909 29.3877H75.5565V90.6122H71.4909V29.3877Z" fill="white"/>
<path d="M110.909 90.6122L98.3583 62.099L85.8073 90.6122H81.83L95.7951 58.8629L82.8022 29.3877H87.0448L98.7119 55.7142L110.467 29.3877H114.356L101.363 58.8629L115.24 90.6122H110.909Z" fill="white"/>
<path d="M125.619 57.7258H142.501V61.3993H125.619V86.9387H145.948V90.6122H121.554V29.3877H145.948V33.0612H125.619V57.7258Z" fill="white"/>
<path d="M176.052 90.6122H152.541V29.3877H156.606V86.9387H176.052V90.6122Z" fill="white"/>
<path d="M239.035 45.5155C238.364 46.1828 238.36 47.2685 239.027 47.94C239.693 48.6115 240.777 48.6149 241.447 47.9476L239.035 45.5155ZM255.206 31.1025L256.441 29.9174C256.116 29.5763 255.666 29.385 255.194 29.3882C254.722 29.3914 254.275 29.589 253.952 29.9343L255.206 31.1025ZM269.396 47.964C270.075 48.622 271.159 48.6039 271.816 47.9231C272.474 47.2425 272.455 46.1571 271.775 45.4991L269.396 47.964ZM235.766 63.2902C235.096 63.9575 235.092 65.0429 235.759 65.7144C236.425 66.3862 237.509 66.3894 238.179 65.722L235.766 63.2902ZM272.347 65.722C273.017 66.3894 274.1 66.3862 274.768 65.7144C275.433 65.0429 275.43 63.9575 274.76 63.2902L272.347 65.722ZM234.544 80.2295C233.873 80.8969 233.87 81.9823 234.536 82.654C235.202 83.3255 236.286 83.3292 236.957 82.6618L234.544 80.2295ZM273.565 82.665C274.237 83.3307 275.32 83.324 275.985 82.6506C276.648 81.9771 276.643 80.8917 275.971 80.2263L273.565 82.665ZM253.495 88.8982V90.6125H256.918V88.8982H253.495ZM241.447 47.9476C244.389 45.0201 248.145 41.0973 251.157 37.9153C252.666 36.3225 253.989 34.9117 254.937 33.8992C255.412 33.3928 255.791 32.986 256.052 32.7056C256.184 32.5655 256.285 32.4568 256.353 32.3831C256.387 32.3463 256.414 32.3182 256.431 32.2993C256.441 32.29 256.446 32.2827 256.451 32.278C256.453 32.2756 256.456 32.2736 256.456 32.2724C256.458 32.2719 256.458 32.2714 256.458 32.2712C256.458 32.2714 256.458 32.2709 256.458 32.2712C256.458 32.2712 256.458 32.2707 255.206 31.1025C253.952 29.9343 253.952 29.9341 253.952 29.9343C253.952 29.9339 253.952 29.9346 253.952 29.9343C253.95 29.9356 253.95 29.939 253.947 29.9412C253.942 29.9459 253.935 29.953 253.928 29.9623C253.91 29.9809 253.884 30.0085 253.849 30.045C253.783 30.118 253.681 30.2258 253.551 30.3654C253.292 30.6443 252.913 31.0494 252.441 31.5539C251.497 32.5631 250.177 33.969 248.673 35.5562C245.663 38.7345 241.937 42.6262 239.035 45.5155L241.447 47.9476ZM255.206 31.1025C253.969 32.2876 253.969 32.2878 253.969 32.2878C253.969 32.2883 253.969 32.289 253.972 32.2895C253.972 32.2908 253.974 32.2927 253.976 32.2949C253.981 32.2998 253.989 32.3069 253.996 32.3165C254.016 32.3353 254.042 32.3635 254.077 32.4002C254.148 32.4739 254.25 32.5824 254.385 32.7228C254.654 33.0032 255.045 33.4099 255.532 33.9161C256.507 34.9288 257.867 36.3394 259.417 37.9322C262.515 41.1142 266.373 45.0367 269.396 47.964L271.775 45.4991C268.792 42.6095 264.963 38.7176 261.869 35.5393C260.324 33.9519 258.967 32.5459 257.996 31.537C257.512 31.0325 257.123 30.6272 256.854 30.3482C256.722 30.2089 256.617 30.1009 256.549 30.0279C256.512 29.9914 256.488 29.9637 256.468 29.9451C256.461 29.9358 256.453 29.929 256.448 29.9243C256.446 29.9219 256.446 29.9201 256.444 29.9189C256.444 29.9192 256.444 29.9184 256.444 29.9189C256.444 29.9189 256.441 29.9174 255.206 31.1025ZM253.495 31.1089L253.551 46.308L256.974 46.2952L256.918 31.0961L253.495 31.1089ZM255.263 46.3016C254.057 45.0857 254.057 45.0857 254.057 45.0857C254.055 45.0859 254.055 45.0859 254.055 45.0862C254.055 45.0854 254.055 45.0867 254.055 45.0862C254.052 45.0876 254.05 45.0911 254.047 45.0938C254.042 45.0992 254.035 45.1072 254.023 45.1178C254.003 45.1388 253.972 45.1704 253.93 45.2121C253.847 45.2951 253.722 45.4178 253.563 45.5762C253.245 45.8936 252.781 46.3547 252.204 46.9305C251.047 48.0815 249.428 49.6907 247.59 51.5218C243.91 55.1843 239.338 59.7355 235.766 63.2902L238.179 65.722C241.751 62.1673 246.323 57.6164 250.003 53.9539C251.842 52.1226 253.458 50.5136 254.615 49.3623C255.194 48.7866 255.656 48.3254 255.977 48.0083C256.135 47.8496 256.258 47.7269 256.343 47.6439C256.385 47.6025 256.417 47.5709 256.436 47.5496C256.448 47.5391 256.456 47.531 256.461 47.5256C256.463 47.5229 256.466 47.521 256.468 47.5197C256.468 47.5202 256.468 47.519 256.468 47.5197C256.468 47.5195 256.468 47.5175 255.263 46.3016ZM255.263 46.3016C254.057 47.5175 254.057 47.5178 254.057 47.5178C254.057 47.517 254.057 47.5183 254.057 47.5178C254.06 47.519 254.062 47.5229 254.064 47.5256C254.069 47.531 254.077 47.5391 254.089 47.5496C254.108 47.5709 254.14 47.6025 254.184 47.6439C254.267 47.7269 254.39 47.8496 254.549 48.0083C254.869 48.3254 255.331 48.7866 255.911 49.3623C257.067 50.5136 258.683 52.1226 260.522 53.9539C264.202 57.6164 268.775 62.1676 272.347 65.722L274.76 63.2902C271.188 59.7355 266.615 55.1843 262.935 51.5218C261.097 49.6907 259.478 48.0815 258.321 46.9303C257.744 46.3547 257.28 45.8936 256.962 45.5762C256.803 45.4178 256.678 45.2951 256.595 45.2121C256.554 45.1704 256.522 45.1388 256.502 45.1178C256.49 45.107 256.483 45.0992 256.478 45.0938C256.475 45.0911 256.473 45.0891 256.47 45.0876C256.47 45.0879 256.47 45.0869 256.47 45.0876C256.47 45.0874 256.47 45.0859 256.468 45.0857C256.468 45.0857 256.468 45.0857 255.263 46.3016ZM253.551 46.2955L253.495 62.0799L256.918 62.0924L256.974 46.3077L253.551 46.2955ZM253.998 60.8701L234.544 80.2295L236.957 82.6618L256.412 63.3024L253.998 60.8701ZM254.003 63.3056L273.565 82.665L275.971 80.2263L256.409 60.8669L254.003 63.3056ZM255.206 62.0863C253.495 62.0863 253.495 62.0863 253.495 62.0863C253.495 62.0865 253.495 62.089 253.495 62.0894C253.495 62.089 253.495 62.0897 253.495 62.0894C253.495 62.0899 253.495 62.0916 253.495 62.0924C253.495 62.0919 253.495 62.0929 253.495 62.0924C253.495 62.0931 253.495 62.0956 253.495 62.0963C253.495 62.0953 253.495 62.097 253.495 62.0963C253.495 62.097 253.495 62.1005 253.495 62.1014C253.495 62.1022 253.495 62.1032 253.495 62.1041C253.495 62.1051 253.495 62.1063 253.495 62.1073C253.495 62.1083 253.495 62.1095 253.495 62.1107C253.495 62.112 253.495 62.113 253.495 62.1144C253.495 62.1156 253.495 62.1169 253.495 62.1181C253.495 62.1196 253.495 62.1208 253.495 62.1223C253.495 62.1237 253.495 62.1252 253.495 62.1267C253.495 62.1281 253.495 62.1296 253.495 62.1313C253.495 62.1328 253.495 62.1345 253.495 62.136C253.495 62.1377 253.495 62.1394 253.495 62.1411C253.495 62.1428 253.495 62.1448 253.495 62.1465C253.495 62.1482 253.495 62.1502 253.495 62.1521C253.495 62.1541 253.495 62.1561 253.495 62.158C253.495 62.16 253.495 62.1619 253.495 62.1639C253.495 62.1661 253.495 62.1681 253.495 62.1703C253.495 62.1725 253.495 62.1747 253.495 62.1769C253.495 62.1791 253.495 62.1813 253.495 62.1837C253.495 62.1859 253.495 62.1884 253.495 62.1908C253.495 62.193 253.495 62.1955 253.495 62.1979C253.495 62.2004 253.495 62.2031 253.495 62.2055C253.495 62.2082 253.495 62.2107 253.495 62.2134C253.495 62.2161 253.495 62.2187 253.495 62.2214C253.495 62.2241 253.495 62.2268 253.495 62.2295C253.495 62.2325 253.495 62.2352 253.495 62.2381C253.495 62.241 253.495 62.244 253.495 62.2469C253.495 62.2498 253.495 62.2528 253.495 62.256C253.495 62.2589 253.495 62.2621 253.495 62.265C253.495 62.2682 253.495 62.2714 253.495 62.2746C253.495 62.2778 253.495 62.281 253.495 62.2844C253.495 62.2876 253.495 62.291 253.495 62.2942C253.495 62.2976 253.495 62.301 253.495 62.3045C253.495 62.3079 253.495 62.3113 253.495 62.3147C253.495 62.3184 253.495 62.3218 253.495 62.3255C253.495 62.3292 253.495 62.3329 253.495 62.3365C253.495 62.3402 253.495 62.3439 253.495 62.3476C253.495 62.3512 253.495 62.3552 253.495 62.3591C253.495 62.3627 253.495 62.3667 253.495 62.3706C253.495 62.3745 253.495 62.3784 253.495 62.3823C253.495 62.3865 253.495 62.3904 253.495 62.3946C253.495 62.3987 253.495 62.4027 253.495 62.4068C253.495 62.411 253.495 62.4152 253.495 62.4196C253.495 62.4237 253.495 62.4279 253.495 62.4323C253.495 62.4367 253.495 62.4409 253.495 62.4453C253.495 62.4497 253.495 62.4541 253.495 62.4587C253.495 62.4632 253.495 62.4676 253.495 62.4722C253.495 62.4766 253.495 62.4813 253.495 62.4859C253.495 62.4906 253.495 62.4952 253.495 62.4999C253.495 62.5045 253.495 62.5094 253.495 62.5141C253.495 62.519 253.495 62.5236 253.495 62.5285C253.495 62.5334 253.495 62.5383 253.495 62.5432C253.495 62.5481 253.495 62.5533 253.495 62.5582C253.495 62.5633 253.495 62.5682 253.495 62.5734C253.495 62.5785 253.495 62.5836 253.495 62.5888C253.495 62.5939 253.495 62.5993 253.495 62.6045C253.495 62.6096 253.495 62.615 253.495 62.6204C253.495 62.6258 253.495 62.6309 253.495 62.6365C253.495 62.6419 253.495 62.6473 253.495 62.6527C253.495 62.6583 253.495 62.6637 253.495 62.6694C253.495 62.675 253.495 62.6804 253.495 62.686C253.495 62.6919 253.495 62.6975 253.495 62.7032C253.495 62.7088 253.495 62.7147 253.495 62.7205C253.495 62.7262 253.495 62.7321 253.495 62.7379C253.495 62.7438 253.495 62.7497 253.495 62.7556C253.495 62.7617 253.495 62.7676 253.495 62.7737C253.495 62.7796 253.495 62.7857 253.495 62.7918C253.495 62.7979 253.495 62.8041 253.495 62.8102C253.495 62.8163 253.495 62.8227 253.495 62.8288C253.495 62.8352 253.495 62.8415 253.495 62.8476C253.495 62.854 253.495 62.8604 253.495 62.8667C253.495 62.8734 253.495 62.8797 253.495 62.8861C253.495 62.8927 253.495 62.8993 253.495 62.9057C253.495 62.9123 253.495 62.9189 253.495 62.9255C253.495 62.9321 253.495 62.939 253.495 62.9456C253.495 62.9522 253.495 62.9591 253.495 62.9659C253.495 62.9725 253.495 62.9794 253.495 62.9863C253.495 62.9931 253.495 63.0002 253.495 63.0071C253.495 63.0139 253.495 63.021 253.495 63.0279C253.495 63.035 253.495 63.0421 253.495 63.0492C253.495 63.0563 253.495 63.0634 253.495 63.0705C253.495 63.0776 253.495 63.085 253.495 63.0921C253.495 63.0994 253.495 63.1067 253.495 63.1141C253.495 63.1214 253.495 63.1288 253.495 63.1361C253.495 63.1435 253.495 63.1508 253.495 63.1584C253.495 63.1658 253.495 63.1734 253.495 63.181C253.495 63.1885 253.495 63.1961 253.495 63.2037C253.495 63.2113 253.495 63.2189 253.495 63.2265C253.495 63.2343 253.495 63.2419 253.495 63.2498C253.495 63.2576 253.495 63.2654 253.495 63.2733C253.495 63.2811 253.495 63.289 253.495 63.2968C253.495 63.3049 253.495 63.3127 253.495 63.3208C253.495 63.3286 253.495 63.3367 253.495 63.3448C253.495 63.3529 253.495 63.361 253.495 63.369C253.495 63.3774 253.495 63.3854 253.495 63.3938C253.495 63.4018 253.495 63.4102 253.495 63.4185C253.495 63.4268 253.495 63.4352 253.495 63.4435C253.495 63.4518 253.495 63.4601 253.495 63.4687C253.495 63.477 253.495 63.4856 253.495 63.4942C253.495 63.5025 253.495 63.5111 253.495 63.5196C253.495 63.5282 253.495 63.537 253.495 63.5456C253.495 63.5542 253.495 63.563 253.495 63.5718C253.495 63.5804 253.495 63.5892 253.495 63.598C253.495 63.6068 253.495 63.6156 253.495 63.6245C253.495 63.6335 253.495 63.6423 253.495 63.6514C253.495 63.6602 253.495 63.6693 253.495 63.6783C253.495 63.6874 253.495 63.6965 253.495 63.7055C253.495 63.7146 253.495 63.7236 253.495 63.733C253.495 63.742 253.495 63.7513 253.495 63.7606C253.495 63.7697 253.495 63.779 253.495 63.7883C253.495 63.7976 253.495 63.8072 253.495 63.8165C253.495 63.8258 253.495 63.8353 253.495 63.8446C253.495 63.8542 253.495 63.8637 253.495 63.8733C253.495 63.8828 253.495 63.8924 253.495 63.9019C253.495 63.9115 253.495 63.9213 253.495 63.9308C253.495 63.9406 253.495 63.9504 253.495 63.96C253.495 63.9698 253.495 63.9796 253.495 63.9894C253.495 63.9992 253.495 64.0092 253.495 64.019C253.495 64.029 253.495 64.0388 253.495 64.0489C253.495 64.0589 253.495 64.069 253.495 64.079C253.495 64.089 253.495 64.0991 253.495 64.1091C253.495 64.1192 253.495 64.1294 253.495 64.1395C253.495 64.1498 253.495 64.1601 253.495 64.1703C253.495 64.1806 253.495 64.1909 253.495 64.2012C253.495 64.2115 253.495 64.2218 253.495 64.2323C253.495 64.2426 253.495 64.2531 253.495 64.2636C253.495 64.2739 253.495 64.2845 253.495 64.295C253.495 64.3058 253.495 64.3163 253.495 64.3268C253.495 64.3374 253.495 64.3481 253.495 64.3589C253.495 64.3694 253.495 64.3802 253.495 64.391C253.495 64.4018 253.495 64.4125 253.495 64.4233C253.495 64.4341 253.495 64.4451 253.495 64.4559C253.495 64.4669 253.495 64.4779 253.495 64.4887C253.495 64.4997 253.495 64.5107 253.495 64.5218C253.495 64.5328 253.495 64.5441 253.495 64.5551C253.495 64.5661 253.495 64.5774 253.495 64.5886C253.495 64.5996 253.495 64.6109 253.495 64.6222C253.495 64.6334 253.495 64.6447 253.495 64.656C253.495 64.6675 253.495 64.6787 253.495 64.69C253.495 64.7015 253.495 64.713 253.495 64.7243C253.495 64.7358 253.495 64.7473 253.495 64.7588C253.495 64.7706 253.495 64.7821 253.495 64.7936C253.495 64.8054 253.495 64.8169 253.495 64.8286C253.495 64.8401 253.495 64.8519 253.495 64.8636C253.495 64.8754 253.495 64.8872 253.495 64.8992C253.495 64.9109 253.495 64.9227 253.495 64.9347C253.495 64.9464 253.495 64.9584 253.495 64.9704C253.495 64.9824 253.495 64.9944 253.495 65.0064C253.495 65.0184 253.495 65.0304 253.495 65.0424C253.495 65.0547 253.495 65.0667 253.495 65.0789C253.495 65.0912 253.495 65.1032 253.495 65.1154C253.495 65.1276 253.495 65.1399 253.495 65.1524C253.495 65.1646 253.495 65.1769 253.495 65.1894C253.495 65.2016 253.495 65.2141 253.495 65.2266C253.495 65.2391 253.495 65.2513 253.495 65.2641C253.495 65.2765 253.495 65.289 253.495 65.3015C253.495 65.3143 253.495 65.3267 253.495 65.3395C253.495 65.352 253.495 65.3647 253.495 65.3774C253.495 65.3902 253.495 65.4029 253.495 65.4156C253.495 65.4284 253.495 65.4414 253.495 65.4541C253.495 65.4671 253.495 65.4798 253.495 65.4928C253.495 65.5058 253.495 65.5187 253.495 65.5317C253.495 65.5447 253.495 65.5577 253.495 65.5707C253.495 65.5839 253.495 65.5969 253.495 65.6101C253.495 65.6231 253.495 65.6363 253.495 65.6495C253.495 65.6627 253.495 65.676 253.495 65.6892C253.495 65.7024 253.495 65.7156 253.495 65.7291C253.495 65.7423 253.495 65.7558 253.495 65.769C253.495 65.7825 253.495 65.796 253.495 65.8094C253.495 65.8229 253.495 65.8364 253.495 65.8498C253.495 65.8633 253.495 65.877 253.495 65.8905C253.495 65.9042 253.495 65.9179 253.495 65.9314C253.495 65.9451 253.495 65.9588 253.495 65.9725C253.495 65.9863 253.495 66 253.495 66.0139C253.495 66.0276 253.495 66.0416 253.495 66.0553C253.495 66.0693 253.495 66.0832 253.495 66.0972C253.495 66.1109 253.495 66.1249 253.495 66.1391C253.495 66.153 253.495 66.167 253.495 66.1812C253.495 66.1952 253.495 66.2094 253.495 66.2233C253.495 66.2375 253.495 66.2517 253.495 66.2659C253.495 66.2801 253.495 66.2943 253.495 66.3085C253.495 66.3227 253.495 66.3372 253.495 66.3514C253.495 66.3658 253.495 66.3803 253.495 66.3945C253.495 66.4089 253.495 66.4234 253.495 66.4378C253.495 66.4523 253.495 66.4667 253.495 66.4814C253.495 66.4959 253.495 66.5106 253.495 66.525C253.495 66.5397 253.495 66.5544 253.495 66.5689C253.495 66.5836 253.495 66.5983 253.495 66.613C253.495 66.6279 253.495 66.6426 253.495 66.6573C253.495 66.6722 253.495 66.6869 253.495 66.7019C253.495 66.7168 253.495 66.7315 253.495 66.7464C253.495 66.7614 253.495 66.7763 253.495 66.7915C253.495 66.8064 253.495 66.8214 253.495 66.8365C253.495 66.8515 253.495 66.8667 253.495 66.8818C253.495 66.8968 253.495 66.912 253.495 66.9272C253.495 66.9423 253.495 66.9575 253.495 66.9729C253.495 66.9881 253.495 67.0033 253.495 67.0187C253.495 67.0339 253.495 67.0494 253.495 67.0648C253.495 67.0802 253.495 67.0956 253.495 67.1111C253.495 67.1265 253.495 67.1419 253.495 67.1574C253.495 67.173 253.495 67.1885 253.495 67.2041C253.495 67.2196 253.495 67.2352 253.495 67.2509C253.495 67.2666 253.495 67.2823 253.495 67.2979C253.495 67.3136 253.495 67.3293 253.495 67.3452C253.495 67.3609 253.495 67.3768 253.495 67.3925C253.495 67.4084 253.495 67.4243 253.495 67.4402C253.495 67.4561 253.495 67.4721 253.495 67.488C253.495 67.5039 253.495 67.5198 253.495 67.536C253.495 67.5519 253.495 67.5681 253.495 67.5842C253.495 67.6001 253.495 67.6163 253.495 67.6325C253.495 67.6486 253.495 67.6648 253.495 67.681C253.495 67.6974 253.495 67.7135 253.495 67.7297C253.495 67.7461 253.495 67.7623 253.495 67.7787C253.495 67.7951 253.495 67.8115 253.495 67.8279C253.495 67.8443 253.495 67.8607 253.495 67.8771C253.495 67.8938 253.495 67.9102 253.495 67.9266C253.495 67.9432 253.495 67.9599 253.495 67.9763C253.495 67.993 253.495 68.0096 253.495 68.0263C253.495 68.0429 253.495 68.0596 253.495 68.0765C253.495 68.0931 253.495 68.1098 253.495 68.1267C253.495 68.1433 253.495 68.1602 253.495 68.1771C253.495 68.194 253.495 68.2109 253.495 68.2278C253.495 68.2447 253.495 68.2616 253.495 68.2785C253.495 68.2956 253.495 68.3125 253.495 68.3297C253.495 68.3466 253.495 68.3637 253.495 68.3809C253.495 68.398 253.495 68.4152 253.495 68.4323C253.495 68.4494 253.495 68.4666 253.495 68.4837C253.495 68.5011 253.495 68.5183 253.495 68.5356C253.495 68.5528 253.495 68.5702 253.495 68.5876C253.495 68.6049 253.495 68.6223 253.495 68.6397C253.495 68.6571 253.495 68.6745 253.495 68.6919C253.495 68.7095 253.495 68.7269 253.495 68.7445C253.495 68.7619 253.495 68.7796 253.495 68.7972C253.495 68.8148 253.495 68.8325 253.495 68.8501C253.495 68.8677 253.495 68.8854 253.495 68.9032C253.495 68.9209 253.495 68.9385 253.495 68.9564C253.495 68.9743 253.495 68.9919 253.495 69.0098C253.495 69.0276 253.495 69.0455 253.495 69.0634C253.495 69.0813 253.495 69.0994 253.495 69.1173C253.495 69.1352 253.495 69.1533 253.495 69.1712C253.495 69.1893 253.495 69.2074 253.495 69.2255C253.495 69.2434 253.495 69.2615 253.495 69.2799C253.495 69.298 253.495 69.3161 253.495 69.3343C253.495 69.3526 253.495 69.3707 253.495 69.3891C253.495 69.4072 253.495 69.4256 253.495 69.444C253.495 69.4623 253.495 69.4807 253.495 69.4991C253.495 69.5174 253.495 69.5358 253.495 69.5542C253.495 69.5728 253.495 69.5912 253.495 69.6098C253.495 69.6281 253.495 69.6467 253.495 69.6654C253.495 69.684 253.495 69.7026 253.495 69.7212C253.495 69.7398 253.495 69.7584 253.495 69.7773C253.495 69.7959 253.495 69.8145 253.495 69.8334C253.495 69.852 253.495 69.8708 253.495 69.8897C253.495 69.9085 253.495 69.9274 253.495 69.9463C253.495 69.9651 253.495 69.984 253.495 70.0028C253.495 70.0219 253.495 70.0408 253.495 70.0599C253.495 70.0787 253.495 70.0978 253.495 70.1169C253.495 70.1358 253.495 70.1549 253.495 70.174C253.495 70.1931 253.495 70.2125 253.495 70.2316C253.495 70.2507 253.495 70.27 253.495 70.2891C253.495 70.3085 253.495 70.3276 253.495 70.3469C253.495 70.3663 253.495 70.3856 253.495 70.4049C253.495 70.4243 253.495 70.4436 253.495 70.463C253.495 70.4823 253.495 70.5019 253.495 70.5213C253.495 70.5409 253.495 70.5602 253.495 70.5798C253.495 70.5994 253.495 70.6187 253.495 70.6383C253.495 70.6579 253.495 70.6775 253.495 70.6974C253.495 70.7169 253.495 70.7365 253.495 70.7564C253.495 70.776 253.495 70.7958 253.495 70.8154C253.495 70.8352 253.495 70.8551 253.495 70.8749C253.495 70.8947 253.495 70.9146 253.495 70.9344C253.495 70.9543 253.495 70.9741 253.495 70.9942C253.495 71.014 253.495 71.0341 253.495 71.0539C253.495 71.074 253.495 71.0941 253.495 71.1139C253.495 71.134 253.495 71.1541 253.495 71.1742C253.495 71.1945 253.495 71.2146 253.495 71.2347C253.495 71.2547 253.495 71.2751 253.495 71.2954C253.495 71.3155 253.495 71.3358 253.495 71.3561C253.495 71.3762 253.495 71.3965 253.495 71.4169C253.495 71.4372 253.495 71.4578 253.495 71.4781C253.495 71.4984 253.495 71.519 253.495 71.5393C253.495 71.5599 253.495 71.5802 253.495 71.6008C253.495 71.6214 253.495 71.6419 253.495 71.6625C253.495 71.6831 253.495 71.7036 253.495 71.7242C253.495 71.7448 253.495 71.7654 253.495 71.7862C253.495 71.8067 253.495 71.8276 253.495 71.8484C253.495 71.8689 253.495 71.8898 253.495 71.9106C253.495 71.9314 253.495 71.9522 253.495 71.973C253.495 71.9938 253.495 72.0147 253.495 72.0357C253.495 72.0565 253.495 72.0776 253.495 72.0984C253.495 72.1195 253.495 72.1405 253.495 72.1614C253.495 72.1824 253.495 72.2035 253.495 72.2245C253.495 72.2456 253.495 72.2669 253.495 72.288C253.495 72.309 253.495 72.3303 253.495 72.3514C253.495 72.3727 253.495 72.3938 253.495 72.4151C253.495 72.4364 253.495 72.4577 253.495 72.479C253.495 72.5003 253.495 72.5216 253.495 72.5429C253.495 72.5642 253.495 72.5855 253.495 72.6071C253.495 72.6284 253.495 72.6499 253.495 72.6715C253.495 72.6928 253.495 72.7143 253.495 72.7359C253.495 72.7574 253.495 72.779 253.495 72.8005C253.495 72.8221 253.495 72.8436 253.495 72.8654C253.495 72.887 253.495 72.9085 253.495 72.9303C253.495 72.9521 253.495 72.9737 253.495 72.9955C253.495 73.0173 253.495 73.0391 253.495 73.0609C253.495 73.0827 253.495 73.1045 253.495 73.1263C253.495 73.148 253.495 73.1701 253.495 73.1919C253.495 73.2139 253.495 73.2357 253.495 73.2578C253.495 73.2798 253.495 73.3018 253.495 73.3239C253.495 73.3457 253.495 73.3677 253.495 73.39C253.495 73.412 253.495 73.4341 253.495 73.4561C253.495 73.4784 253.495 73.5005 253.495 73.5227C253.495 73.5448 253.495 73.5671 253.495 73.5894C253.495 73.6116 253.495 73.6339 253.495 73.6562C253.495 73.6785 253.495 73.7008 253.495 73.7231C253.495 73.7454 253.495 73.7679 253.495 73.7902C253.495 73.8127 253.495 73.835 253.495 73.8575C253.495 73.8801 253.495 73.9026 253.495 73.9249C253.495 73.9474 253.495 73.9699 253.495 73.9927C253.495 74.0152 253.495 74.0378 253.495 74.0603C253.495 74.0831 253.495 74.1056 253.495 74.1284C253.495 74.1509 253.495 74.1737 253.495 74.1965C253.495 74.2192 253.495 74.2418 253.495 74.2645C253.495 74.2873 253.495 74.3103 253.495 74.3331C253.495 74.3559 253.495 74.3787 253.495 74.4017C253.495 74.4245 253.495 74.4475 253.495 74.4705C253.495 74.4933 253.495 74.5163 253.495 74.5393C253.495 74.5623 253.495 74.5854 253.495 74.6084C253.495 74.6314 253.495 74.6544 253.495 74.6774C253.495 74.7007 253.495 74.7237 253.495 74.747C253.495 74.77 253.495 74.7933 253.495 74.8165C253.495 74.8396 253.495 74.8628 253.495 74.8861C253.495 74.9094 253.495 74.9326 253.495 74.9559C253.495 74.9794 253.495 75.0027 253.495 75.0259C253.495 75.0494 253.495 75.0727 253.495 75.0962C253.495 75.1195 253.495 75.143 253.495 75.1665C253.495 75.19 253.495 75.2135 253.495 75.237C253.495 75.2605 253.495 75.2841 253.495 75.3076C253.495 75.3311 253.495 75.3548 253.495 75.3783C253.495 75.4021 253.495 75.4256 253.495 75.4494C253.495 75.4731 253.495 75.4966 253.495 75.5204C253.495 75.5441 253.495 75.5679 253.495 75.5916C253.495 75.6154 253.495 75.6394 253.495 75.6631C253.495 75.6869 253.495 75.7109 253.495 75.7347C253.495 75.7587 253.495 75.7824 253.495 75.8064C253.495 75.8304 253.495 75.8544 253.495 75.8782C253.495 75.9022 253.495 75.9262 253.495 75.9504C253.495 75.9744 253.495 75.9984 253.495 76.0224C253.495 76.0467 253.495 76.0707 253.495 76.0949C253.495 76.1189 253.495 76.1432 253.495 76.1674C253.495 76.1916 253.495 76.2156 253.495 76.2399C253.495 76.2641 253.495 76.2884 253.495 76.3129C253.495 76.3371 253.495 76.3614 253.495 76.3858C253.495 76.4101 253.495 76.4343 253.495 76.4588C253.495 76.4833 253.495 76.5076 253.495 76.5321C253.495 76.5565 253.495 76.581 253.495 76.6055C253.495 76.63 253.495 76.6545 253.495 76.679C253.495 76.7035 253.495 76.7282 253.495 76.7527C253.495 76.7774 253.495 76.8019 253.495 76.8267C253.495 76.8511 253.495 76.8759 253.495 76.9006C253.495 76.9254 253.495 76.9501 253.495 76.9748C253.495 76.9996 253.495 77.0243 253.495 77.049C253.495 77.074 253.495 77.0987 253.495 77.1235C253.495 77.1485 253.495 77.1732 253.495 77.1982C253.495 77.2232 253.495 77.2479 253.495 77.2729C253.495 77.2978 253.495 77.3228 253.495 77.3478C253.495 77.3728 253.495 77.3978 253.495 77.423C253.495 77.448 253.495 77.4729 253.495 77.4982C253.495 77.5231 253.495 77.5484 253.495 77.5734C253.495 77.5986 253.495 77.6238 253.495 77.649C253.495 77.6743 253.495 77.6995 253.495 77.7247C253.495 77.7499 253.495 77.7751 253.495 77.8004C253.495 77.8256 253.495 77.8511 253.495 77.8763C253.495 77.9018 253.495 77.927 253.495 77.9525C253.495 77.9779 253.495 78.0032 253.495 78.0286C253.495 78.0541 253.495 78.0796 253.495 78.105C253.495 78.1305 253.495 78.156 253.495 78.1817C253.495 78.2072 253.495 78.2326 253.495 78.2583C253.495 78.2838 253.495 78.3095 253.495 78.335C253.495 78.3607 253.495 78.3864 253.495 78.4121C253.495 78.4376 253.495 78.4633 253.495 78.489C253.495 78.515 253.495 78.5407 253.495 78.5664C253.495 78.5921 253.495 78.6181 253.495 78.6438C253.495 78.6695 253.495 78.6955 253.495 78.7214C253.495 78.7471 253.495 78.7731 253.495 78.7991C253.495 78.825 253.495 78.851 253.495 78.8769C253.495 78.9029 253.495 78.9289 253.495 78.9548C253.495 78.9808 253.495 79.007 253.495 79.0329C253.495 79.0589 253.495 79.0851 253.495 79.1113C253.495 79.1373 253.495 79.1635 253.495 79.1897C253.495 79.2156 253.495 79.2418 253.495 79.2681C253.495 79.2943 253.495 79.3205 253.495 79.3469C253.495 79.3731 253.495 79.3993 253.495 79.4258C253.495 79.452 253.495 79.4782 253.495 79.5046C253.495 79.5311 253.495 79.5573 253.495 79.5837C253.495 79.6102 253.495 79.6366 253.495 79.6631C253.495 79.6895 253.495 79.716 253.495 79.7424C253.495 79.7689 253.495 79.7953 253.495 79.822C253.495 79.8485 253.495 79.8749 253.495 79.9016C253.495 79.928 253.495 79.9547 253.495 79.9814C253.495 80.0079 253.495 80.0346 253.495 80.0613C253.495 80.088 253.495 80.1147 253.495 80.1414C253.495 80.168 253.495 80.1947 253.495 80.2217C253.495 80.2484 253.495 80.2751 253.495 80.302C253.495 80.3287 253.495 80.3556 253.495 80.3826C253.495 80.4093 253.495 80.4362 253.495 80.4632C253.495 80.4901 253.495 80.517 253.495 80.544C253.495 80.5709 253.495 80.5978 253.495 80.6248C253.495 80.6517 253.495 80.6789 253.495 80.7058C253.495 80.733 253.495 80.76 253.495 80.7871C253.495 80.8141 253.495 80.8413 253.495 80.8685C253.495 80.8956 253.495 80.9226 253.495 80.9498C253.495 80.9769 253.495 81.0041 253.495 81.0316C253.495 81.0587 253.495 81.0859 253.495 81.1131C253.495 81.1405 253.495 81.1677 253.495 81.1952C253.495 81.2223 253.495 81.2498 253.495 81.2769C253.495 81.3044 253.495 81.3318 253.495 81.3592C253.495 81.3867 253.495 81.4141 253.495 81.4415C253.495 81.4689 253.495 81.4964 253.495 81.5238C253.495 81.5515 253.495 81.5789 253.495 81.6063C253.495 81.634 253.495 81.6614 253.495 81.6891C253.495 81.7168 253.495 81.7442 253.495 81.7719C253.495 81.7996 253.495 81.8272 253.495 81.8549C253.495 81.8826 253.495 81.9103 253.495 81.9379C253.495 81.9656 253.495 81.9933 253.495 82.0212C253.495 82.0489 253.495 82.0768 253.495 82.1045C253.495 82.1324 253.495 82.16 253.495 82.188C253.495 82.2159 253.495 82.2438 253.495 82.2715C253.495 82.2994 253.495 82.3273 253.495 82.3552C253.495 82.3831 253.495 82.4113 253.495 82.4392C253.495 82.4672 253.495 82.4951 253.495 82.5232C253.495 82.5511 253.495 82.5793 253.495 82.6072C253.495 82.6354 253.495 82.6636 253.495 82.6915C253.495 82.7196 253.495 82.7478 253.495 82.776C253.495 82.8041 253.495 82.8323 253.495 82.8605C253.495 82.8886 253.495 82.917 253.495 82.9452C253.495 82.9734 253.495 83.0018 253.495 83.0299C253.495 83.0583 253.495 83.0865 253.495 83.1149C253.495 83.1431 253.495 83.1715 253.495 83.1999C253.495 83.2283 253.495 83.2567 253.495 83.2851C253.495 83.3135 253.495 83.3419 253.495 83.3703C253.495 83.3987 253.495 83.4274 253.495 83.4558C253.495 83.4842 253.495 83.5129 253.495 83.5413C253.495 83.5699 253.495 83.5983 253.495 83.627C253.495 83.6556 253.495 83.6843 253.495 83.7127C253.495 83.7414 253.495 83.77 253.495 83.7987C253.495 83.8273 253.495 83.8562 253.495 83.8849C253.495 83.9135 253.495 83.9422 253.495 83.9711C253.495 83.9997 253.495 84.0286 253.495 84.0573C253.495 84.0862 253.495 84.1148 253.495 84.1437C253.495 84.1726 253.495 84.2015 253.495 84.2304C253.495 84.2593 253.495 84.2882 253.495 84.3171C253.495 84.346 253.495 84.3749 253.495 84.4038C253.495 84.4327 253.495 84.4618 253.495 84.4907C253.495 84.5199 253.495 84.5488 253.495 84.5779C253.495 84.6068 253.495 84.636 253.495 84.6651C253.495 84.694 253.495 84.7232 253.495 84.7523C253.495 84.7814 253.495 84.8106 253.495 84.8397C253.495 84.8689 253.495 84.8982 253.495 84.9274C253.495 84.9565 253.495 84.9857 253.495 85.0151C253.495 85.0442 253.495 85.0736 253.495 85.1027C253.495 85.1321 253.495 85.1615 253.495 85.1907C253.495 85.2201 253.495 85.2494 253.495 85.2788C253.495 85.3082 253.495 85.3376 253.495 85.367C253.495 85.3964 253.495 85.4258 253.495 85.4554C253.495 85.4848 253.495 85.5142 253.495 85.5438C253.495 85.5732 253.495 85.6028 253.495 85.6322C253.495 85.6618 253.495 85.6912 253.495 85.7209C253.495 85.7505 253.495 85.7801 253.495 85.8098C253.495 85.8394 253.495 85.869 253.495 85.8987C253.495 85.9283 253.495 85.9579 253.495 85.9876C253.495 86.0172 253.495 86.0471 253.495 86.0767C253.495 86.1066 253.495 86.1362 253.495 86.1661C253.495 86.1957 253.495 86.2256 253.495 86.2555C253.495 86.2851 253.495 86.315 253.495 86.3449C253.495 86.3747 253.495 86.4046 253.495 86.4345C253.495 86.4644 253.495 86.4942 253.495 86.5244C253.495 86.5542 253.495 86.5841 253.495 86.614C253.495 86.6441 253.495 86.674 253.495 86.7041C253.495 86.734 253.495 86.7641 253.495 86.7943C253.495 86.8241 253.495 86.8542 253.495 86.8844C253.495 86.9145 253.495 86.9446 253.495 86.9747C253.495 87.0049 253.495 87.035 253.495 87.0651C253.495 87.0952 253.495 87.1256 253.495 87.1557C253.495 87.1858 253.495 87.2162 253.495 87.2463C253.495 87.2767 253.495 87.3068 253.495 87.3372C253.495 87.3676 253.495 87.3977 253.495 87.428C253.495 87.4584 253.495 87.4888 253.495 87.5191C253.495 87.5495 253.495 87.5799 253.495 87.6103C253.495 87.6406 253.495 87.671 253.495 87.7016C253.495 87.732 253.495 87.7623 253.495 87.7929C253.495 87.8233 253.495 87.8539 253.495 87.8843C253.495 87.9149 253.495 87.9455 253.495 87.9759C253.495 88.0065 253.495 88.0371 253.495 88.0677C253.495 88.0983 253.495 88.1289 253.495 88.1596C253.495 88.1902 253.495 88.2208 253.495 88.2514C253.495 88.282 253.495 88.3129 253.495 88.3435C253.495 88.3741 253.495 88.4049 253.495 88.4356C253.495 88.4664 253.495 88.497 253.495 88.5279C253.495 88.5587 253.495 88.5896 253.495 88.6202C253.495 88.6511 253.495 88.6819 253.495 88.7128C253.495 88.7436 253.495 88.7745 253.495 88.8054C253.495 88.8362 253.495 88.8673 253.495 88.8982H256.918C256.918 88.8673 256.918 88.8362 256.918 88.8054C256.918 88.7745 256.918 88.7436 256.918 88.7128C256.918 88.6819 256.918 88.6511 256.918 88.6202C256.918 88.5896 256.918 88.5587 256.918 88.5279C256.918 88.497 256.918 88.4664 256.918 88.4356C256.918 88.4049 256.918 88.3741 256.918 88.3435C256.918 88.3129 256.918 88.282 256.918 88.2514C256.918 88.2208 256.918 88.1902 256.918 88.1596C256.918 88.1289 256.918 88.0983 256.918 88.0677C256.918 88.0371 256.918 88.0065 256.918 87.9759C256.918 87.9455 256.918 87.9149 256.918 87.8843C256.918 87.8539 256.918 87.8233 256.918 87.7929C256.918 87.7623 256.918 87.732 256.918 87.7016C256.918 87.671 256.918 87.6406 256.918 87.6103C256.918 87.5799 256.918 87.5495 256.918 87.5191C256.918 87.4888 256.918 87.4584 256.918 87.428C256.918 87.3977 256.918 87.3676 256.918 87.3372C256.918 87.3068 256.918 87.2767 256.918 87.2463C256.918 87.2162 256.918 87.1858 256.918 87.1557C256.918 87.1256 256.918 87.0952 256.918 87.0651C256.918 87.035 256.918 87.0049 256.918 86.9747C256.918 86.9446 256.918 86.9145 256.918 86.8844C256.918 86.8542 256.918 86.8241 256.918 86.7943C256.918 86.7641 256.918 86.734 256.918 86.7041C256.918 86.674 256.918 86.6441 256.918 86.614C256.918 86.5841 256.918 86.5542 256.918 86.5244C256.918 86.4942 256.918 86.4644 256.918 86.4345C256.918 86.4046 256.918 86.3747 256.918 86.3449C256.918 86.315 256.918 86.2851 256.918 86.2555C256.918 86.2256 256.918 86.1957 256.918 86.1661C256.918 86.1362 256.918 86.1066 256.918 86.0767C256.918 86.0471 256.918 86.0172 256.918 85.9876C256.918 85.9579 256.918 85.9283 256.918 85.8987C256.918 85.869 256.918 85.8394 256.918 85.8098C256.918 85.7801 256.918 85.7505 256.918 85.7209C256.918 85.6912 256.918 85.6618 256.918 85.6322C256.918 85.6028 256.918 85.5732 256.918 85.5438C256.918 85.5142 256.918 85.4848 256.918 85.4554C256.918 85.4258 256.918 85.3964 256.918 85.367C256.918 85.3376 256.918 85.3082 256.918 85.2788C256.918 85.2494 256.918 85.2201 256.918 85.1907C256.918 85.1615 256.918 85.1321 256.918 85.1027C256.918 85.0736 256.918 85.0442 256.918 85.0151C256.918 84.9857 256.918 84.9565 256.918 84.9274C256.918 84.8982 256.918 84.8689 256.918 84.8397C256.918 84.8106 256.918 84.7814 256.918 84.7523C256.918 84.7232 256.918 84.694 256.918 84.6651C256.918 84.636 256.918 84.6068 256.918 84.5779C256.918 84.5488 256.918 84.5199 256.918 84.4907C256.918 84.4618 256.918 84.4327 256.918 84.4038C256.918 84.3749 256.918 84.346 256.918 84.3171C256.918 84.2882 256.918 84.2593 256.918 84.2304C256.918 84.2015 256.918 84.1726 256.918 84.1437C256.918 84.1148 256.918 84.0862 256.918 84.0573C256.918 84.0286 256.918 83.9997 256.918 83.9711C256.918 83.9422 256.918 83.9135 256.918 83.8849C256.918 83.8562 256.918 83.8273 256.918 83.7987C256.918 83.77 256.918 83.7414 256.918 83.7127C256.918 83.6843 256.918 83.6556 256.918 83.627C256.918 83.5983 256.918 83.5699 256.918 83.5413C256.918 83.5129 256.918 83.4842 256.918 83.4558C256.918 83.4274 256.918 83.3987 256.918 83.3703C256.918 83.3419 256.918 83.3135 256.918 83.2851C256.918 83.2567 256.918 83.2283 256.918 83.1999C256.918 83.1715 256.918 83.1431 256.918 83.1149C256.918 83.0865 256.918 83.0583 256.918 83.0299C256.918 83.0018 256.918 82.9734 256.918 82.9452C256.918 82.917 256.918 82.8886 256.918 82.8605C256.918 82.8323 256.918 82.8041 256.918 82.776C256.918 82.7478 256.918 82.7196 256.918 82.6915C256.918 82.6636 256.918 82.6354 256.918 82.6072C256.918 82.5793 256.918 82.5511 256.918 82.5232C256.918 82.4951 256.918 82.4672 256.918 82.4392C256.918 82.4113 256.918 82.3831 256.918 82.3552C256.918 82.3273 256.918 82.2994 256.918 82.2715C256.918 82.2438 256.918 82.2159 256.918 82.188C256.918 82.16 256.918 82.1324 256.918 82.1045C256.918 82.0768 256.918 82.0489 256.918 82.0212C256.918 81.9933 256.918 81.9656 256.918 81.9379C256.918 81.9103 256.918 81.8826 256.918 81.8549C256.918 81.8272 256.918 81.7996 256.918 81.7719C256.918 81.7442 256.918 81.7168 256.918 81.6891C256.918 81.6614 256.918 81.634 256.918 81.6063C256.918 81.5789 256.918 81.5515 256.918 81.5238C256.918 81.4964 256.918 81.4689 256.918 81.4415C256.918 81.4141 256.918 81.3867 256.918 81.3592C256.918 81.3318 256.918 81.3044 256.918 81.2769C256.918 81.2498 256.918 81.2223 256.918 81.1952C256.918 81.1677 256.918 81.1405 256.918 81.1131C256.918 81.0859 256.918 81.0587 256.918 81.0316C256.918 81.0041 256.918 80.9769 256.918 80.9498C256.918 80.9226 256.918 80.8956 256.918 80.8685C256.918 80.8413 256.918 80.8141 256.918 80.7871C256.918 80.76 256.918 80.733 256.918 80.7058C256.918 80.6789 256.918 80.6517 256.918 80.6248C256.918 80.5978 256.918 80.5709 256.918 80.544C256.918 80.517 256.918 80.4901 256.918 80.4632C256.918 80.4362 256.918 80.4093 256.918 80.3826C256.918 80.3556 256.918 80.3287 256.918 80.302C256.918 80.2751 256.918 80.2484 256.918 80.2217C256.918 80.1947 256.918 80.168 256.918 80.1414C256.918 80.1147 256.918 80.088 256.918 80.0613C256.918 80.0346 256.918 80.0079 256.918 79.9814C256.918 79.9547 256.918 79.928 256.918 79.9016C256.918 79.8749 256.918 79.8485 256.918 79.822C256.918 79.7953 256.918 79.7689 256.918 79.7424C256.918 79.716 256.918 79.6895 256.918 79.6631C256.918 79.6366 256.918 79.6102 256.918 79.5837C256.918 79.5573 256.918 79.5311 256.918 79.5046C256.918 79.4782 256.918 79.452 256.918 79.4258C256.918 79.3993 256.918 79.3731 256.918 79.3469C256.918 79.3205 256.918 79.2943 256.918 79.2681C256.918 79.2418 256.918 79.2156 256.918 79.1897C256.918 79.1635 256.918 79.1373 256.918 79.1113C256.918 79.0851 256.918 79.0589 256.918 79.0329C256.918 79.007 256.918 78.9808 256.918 78.9548C256.918 78.9289 256.918 78.9029 256.918 78.8769C256.918 78.851 256.918 78.825 256.918 78.7991C256.918 78.7731 256.918 78.7471 256.918 78.7214C256.918 78.6955 256.918 78.6695 256.918 78.6438C256.918 78.6181 256.918 78.5921 256.918 78.5664C256.918 78.5407 256.918 78.515 256.918 78.489C256.918 78.4633 256.918 78.4376 256.918 78.4121C256.918 78.3864 256.918 78.3607 256.918 78.335C256.918 78.3095 256.918 78.2838 256.918 78.2583C256.918 78.2326 256.918 78.2072 256.918 78.1817C256.918 78.156 256.918 78.1305 256.918 78.105C256.918 78.0796 256.918 78.0541 256.918 78.0286C256.918 78.0032 256.918 77.9779 256.918 77.9525C256.918 77.927 256.918 77.9018 256.918 77.8763C256.918 77.8511 256.918 77.8256 256.918 77.8004C256.918 77.7751 256.918 77.7499 256.918 77.7247C256.918 77.6995 256.918 77.6743 256.918 77.649C256.918 77.6238 256.918 77.5986 256.918 77.5734C256.918 77.5484 256.918 77.5231 256.918 77.4982C256.918 77.4729 256.918 77.448 256.918 77.423C256.918 77.3978 256.918 77.3728 256.918 77.3478C256.918 77.3228 256.918 77.2978 256.918 77.2729C256.918 77.2479 256.918 77.2232 256.918 77.1982C256.918 77.1732 256.918 77.1485 256.918 77.1235C256.918 77.0987 256.918 77.074 256.918 77.049C256.918 77.0243 256.918 76.9996 256.918 76.9748C256.918 76.9501 256.918 76.9254 256.918 76.9006C256.918 76.8759 256.918 76.8511 256.918 76.8267C256.918 76.8019 256.918 76.7774 256.918 76.7527C256.918 76.7282 256.918 76.7035 256.918 76.679C256.918 76.6545 256.918 76.63 256.918 76.6055C256.918 76.581 256.918 76.5565 256.918 76.5321C256.918 76.5076 256.918 76.4833 256.918 76.4588C256.918 76.4343 256.918 76.4101 256.918 76.3858C256.918 76.3614 256.918 76.3371 256.918 76.3129C256.918 76.2884 256.918 76.2641 256.918 76.2399C256.918 76.2156 256.918 76.1916 256.918 76.1674C256.918 76.1432 256.918 76.1189 256.918 76.0949C256.918 76.0707 256.918 76.0467 256.918 76.0224C256.918 75.9984 256.918 75.9744 256.918 75.9504C256.918 75.9262 256.918 75.9022 256.918 75.8782C256.918 75.8544 256.918 75.8304 256.918 75.8064C256.918 75.7824 256.918 75.7587 256.918 75.7347C256.918 75.7109 256.918 75.6869 256.918 75.6631C256.918 75.6394 256.918 75.6154 256.918 75.5916C256.918 75.5679 256.918 75.5441 256.918 75.5204C256.918 75.4966 256.918 75.4731 256.918 75.4494C256.918 75.4256 256.918 75.4021 256.918 75.3783C256.918 75.3548 256.918 75.3311 256.918 75.3076C256.918 75.2841 256.918 75.2605 256.918 75.237C256.918 75.2135 256.918 75.19 256.918 75.1665C256.918 75.143 256.918 75.1195 256.918 75.0962C256.918 75.0727 256.918 75.0494 256.918 75.0259C256.918 75.0027 256.918 74.9794 256.918 74.9559C256.918 74.9326 256.918 74.9094 256.918 74.8861C256.918 74.8628 256.918 74.8396 256.918 74.8165C256.918 74.7933 256.918 74.77 256.918 74.747C256.918 74.7237 256.918 74.7007 256.918 74.6774C256.918 74.6544 256.918 74.6314 256.918 74.6084C256.918 74.5854 256.918 74.5623 256.918 74.5393C256.918 74.5163 256.918 74.4933 256.918 74.4705C256.918 74.4475 256.918 74.4245 256.918 74.4017C256.918 74.3787 256.918 74.3559 256.918 74.3331C256.918 74.3103 256.918 74.2873 256.918 74.2645C256.918 74.2418 256.918 74.2192 256.918 74.1965C256.918 74.1737 256.918 74.1509 256.918 74.1284C256.918 74.1056 256.918 74.0831 256.918 74.0603C256.918 74.0378 256.918 74.0152 256.918 73.9927C256.918 73.9699 256.918 73.9474 256.918 73.9249C256.918 73.9026 256.918 73.8801 256.918 73.8575C256.918 73.835 256.918 73.8127 256.918 73.7902C256.918 73.7679 256.918 73.7454 256.918 73.7231C256.918 73.7008 256.918 73.6785 256.918 73.6562C256.918 73.6339 256.918 73.6116 256.918 73.5894C256.918 73.5671 256.918 73.5448 256.918 73.5227C256.918 73.5005 256.918 73.4784 256.918 73.4561C256.918 73.4341 256.918 73.412 256.918 73.39C256.918 73.3677 256.918 73.3457 256.918 73.3239C256.918 73.3018 256.918 73.2798 256.918 73.2578C256.918 73.2357 256.918 73.2139 256.918 73.1919C256.918 73.1701 256.918 73.148 256.918 73.1263C256.918 73.1045 256.918 73.0827 256.918 73.0609C256.918 73.0391 256.918 73.0173 256.918 72.9955C256.918 72.9737 256.918 72.9521 256.918 72.9303C256.918 72.9085 256.918 72.887 256.918 72.8654C256.918 72.8436 256.918 72.8221 256.918 72.8005C256.918 72.779 256.918 72.7574 256.918 72.7359C256.918 72.7143 256.918 72.6928 256.918 72.6715C256.918 72.6499 256.918 72.6284 256.918 72.6071C256.918 72.5855 256.918 72.5642 256.918 72.5429C256.918 72.5216 256.918 72.5003 256.918 72.479C256.918 72.4577 256.918 72.4364 256.918 72.4151C256.918 72.3938 256.918 72.3727 256.918 72.3514C256.918 72.3303 256.918 72.309 256.918 72.288C256.918 72.2669 256.918 72.2456 256.918 72.2245C256.918 72.2035 256.918 72.1824 256.918 72.1614C256.918 72.1405 256.918 72.1195 256.918 72.0984C256.918 72.0776 256.918 72.0565 256.918 72.0357C256.918 72.0147 256.918 71.9938 256.918 71.973C256.918 71.9522 256.918 71.9314 256.918 71.9106C256.918 71.8898 256.918 71.8689 256.918 71.8484C256.918 71.8276 256.918 71.8067 256.918 71.7862C256.918 71.7654 256.918 71.7448 256.918 71.7242C256.918 71.7036 256.918 71.6831 256.918 71.6625C256.918 71.6419 256.918 71.6214 256.918 71.6008C256.918 71.5802 256.918 71.5599 256.918 71.5393C256.918 71.519 256.918 71.4984 256.918 71.4781C256.918 71.4578 256.918 71.4372 256.918 71.4169C256.918 71.3965 256.918 71.3762 256.918 71.3561C256.918 71.3358 256.918 71.3155 256.918 71.2954C256.918 71.2751 256.918 71.2547 256.918 71.2347C256.918 71.2146 256.918 71.1945 256.918 71.1742C256.918 71.1541 256.918 71.134 256.918 71.1139C256.918 71.0941 256.918 71.074 256.918 71.0539C256.918 71.0341 256.918 71.014 256.918 70.9942C256.918 70.9741 256.918 70.9543 256.918 70.9344C256.918 70.9146 256.918 70.8947 256.918 70.8749C256.918 70.8551 256.918 70.8352 256.918 70.8154C256.918 70.7958 256.918 70.776 256.918 70.7564C256.918 70.7365 256.918 70.7169 256.918 70.6974C256.918 70.6775 256.918 70.6579 256.918 70.6383C256.918 70.6187 256.918 70.5994 256.918 70.5798C256.918 70.5602 256.918 70.5409 256.918 70.5213C256.918 70.5019 256.918 70.4823 256.918 70.463C256.918 70.4436 256.918 70.4243 256.918 70.4049C256.918 70.3856 256.918 70.3663 256.918 70.3469C256.918 70.3276 256.918 70.3085 256.918 70.2891C256.918 70.27 256.918 70.2507 256.918 70.2316C256.918 70.2125 256.918 70.1931 256.918 70.174C256.918 70.1549 256.918 70.1358 256.918 70.1169C256.918 70.0978 256.918 70.0787 256.918 70.0599C256.918 70.0408 256.918 70.0219 256.918 70.0028C256.918 69.984 256.918 69.9651 256.918 69.9463C256.918 69.9274 256.918 69.9085 256.918 69.8897C256.918 69.8708 256.918 69.852 256.918 69.8334C256.918 69.8145 256.918 69.7959 256.918 69.7773C256.918 69.7584 256.918 69.7398 256.918 69.7212C256.918 69.7026 256.918 69.684 256.918 69.6654C256.918 69.6467 256.918 69.6281 256.918 69.6098C256.918 69.5912 256.918 69.5728 256.918 69.5542C256.918 69.5358 256.918 69.5174 256.918 69.4991C256.918 69.4807 256.918 69.4623 256.918 69.444C256.918 69.4256 256.918 69.4072 256.918 69.3891C256.918 69.3707 256.918 69.3526 256.918 69.3343C256.918 69.3161 256.918 69.298 256.918 69.2799C256.918 69.2615 256.918 69.2434 256.918 69.2255C256.918 69.2074 256.918 69.1893 256.918 69.1712C256.918 69.1533 256.918 69.1352 256.918 69.1173C256.918 69.0994 256.918 69.0813 256.918 69.0634C256.918 69.0455 256.918 69.0276 256.918 69.0098C256.918 68.9919 256.918 68.9743 256.918 68.9564C256.918 68.9385 256.918 68.9209 256.918 68.9032C256.918 68.8854 256.918 68.8677 256.918 68.8501C256.918 68.8325 256.918 68.8148 256.918 68.7972C256.918 68.7796 256.918 68.7619 256.918 68.7445C256.918 68.7269 256.918 68.7095 256.918 68.6919C256.918 68.6745 256.918 68.6571 256.918 68.6397C256.918 68.6223 256.918 68.6049 256.918 68.5876C256.918 68.5702 256.918 68.5528 256.918 68.5356C256.918 68.5183 256.918 68.5011 256.918 68.4837C256.918 68.4666 256.918 68.4494 256.918 68.4323C256.918 68.4152 256.918 68.398 256.918 68.3809C256.918 68.3637 256.918 68.3466 256.918 68.3297C256.918 68.3125 256.918 68.2956 256.918 68.2785C256.918 68.2616 256.918 68.2447 256.918 68.2278C256.918 68.2109 256.918 68.194 256.918 68.1771C256.918 68.1602 256.918 68.1433 256.918 68.1267C256.918 68.1098 256.918 68.0931 256.918 68.0765C256.918 68.0596 256.918 68.0429 256.918 68.0263C256.918 68.0096 256.918 67.993 256.918 67.9763C256.918 67.9599 256.918 67.9432 256.918 67.9266C256.918 67.9102 256.918 67.8938 256.918 67.8771C256.918 67.8607 256.918 67.8443 256.918 67.8279C256.918 67.8115 256.918 67.7951 256.918 67.7787C256.918 67.7623 256.918 67.7461 256.918 67.7297C256.918 67.7135 256.918 67.6974 256.918 67.681C256.918 67.6648 256.918 67.6486 256.918 67.6325C256.918 67.6163 256.918 67.6001 256.918 67.5842C256.918 67.5681 256.918 67.5519 256.918 67.536C256.918 67.5198 256.918 67.5039 256.918 67.488C256.918 67.4721 256.918 67.4561 256.918 67.4402C256.918 67.4243 256.918 67.4084 256.918 67.3925C256.918 67.3768 256.918 67.3609 256.918 67.3452C256.918 67.3293 256.918 67.3136 256.918 67.2979C256.918 67.2823 256.918 67.2666 256.918 67.2509C256.918 67.2352 256.918 67.2196 256.918 67.2041C256.918 67.1885 256.918 67.173 256.918 67.1574C256.918 67.1419 256.918 67.1265 256.918 67.1111C256.918 67.0956 256.918 67.0802 256.918 67.0648C256.918 67.0494 256.918 67.0339 256.918 67.0187C256.918 67.0033 256.918 66.9881 256.918 66.9729C256.918 66.9575 256.918 66.9423 256.918 66.9272C256.918 66.912 256.918 66.8968 256.918 66.8818C256.918 66.8667 256.918 66.8515 256.918 66.8365C256.918 66.8214 256.918 66.8064 256.918 66.7915C256.918 66.7763 256.918 66.7614 256.918 66.7464C256.918 66.7315 256.918 66.7168 256.918 66.7019C256.918 66.6869 256.918 66.6722 256.918 66.6573C256.918 66.6426 256.918 66.6279 256.918 66.613C256.918 66.5983 256.918 66.5836 256.918 66.5689C256.918 66.5544 256.918 66.5397 256.918 66.525C256.918 66.5106 256.918 66.4959 256.918 66.4814C256.918 66.4667 256.918 66.4523 256.918 66.4378C256.918 66.4234 256.918 66.4089 256.918 66.3945C256.918 66.3803 256.918 66.3658 256.918 66.3514C256.918 66.3372 256.918 66.3227 256.918 66.3085C256.918 66.2943 256.918 66.2801 256.918 66.2659C256.918 66.2517 256.918 66.2375 256.918 66.2233C256.918 66.2094 256.918 66.1952 256.918 66.1812C256.918 66.167 256.918 66.153 256.918 66.1391C256.918 66.1249 256.918 66.1109 256.918 66.0972C256.918 66.0832 256.918 66.0693 256.918 66.0553C256.918 66.0416 256.918 66.0276 256.918 66.0139C256.918 66 256.918 65.9863 256.918 65.9725C256.918 65.9588 256.918 65.9451 256.918 65.9314C256.918 65.9179 256.918 65.9042 256.918 65.8905C256.918 65.877 256.918 65.8633 256.918 65.8498C256.918 65.8364 256.918 65.8229 256.918 65.8094C256.918 65.796 256.918 65.7825 256.918 65.769C256.918 65.7558 256.918 65.7423 256.918 65.7291C256.918 65.7156 256.918 65.7024 256.918 65.6892C256.918 65.676 256.918 65.6627 256.918 65.6495C256.918 65.6363 256.918 65.6231 256.918 65.6101C256.918 65.5969 256.918 65.5839 256.918 65.5707C256.918 65.5577 256.918 65.5447 256.918 65.5317C256.918 65.5187 256.918 65.5058 256.918 65.4928C256.918 65.4798 256.918 65.4671 256.918 65.4541C256.918 65.4414 256.918 65.4284 256.918 65.4156C256.918 65.4029 256.918 65.3902 256.918 65.3774C256.918 65.3647 256.918 65.352 256.918 65.3395C256.918 65.3267 256.918 65.3143 256.918 65.3015C256.918 65.289 256.918 65.2765 256.918 65.2641C256.918 65.2513 256.918 65.2391 256.918 65.2266C256.918 65.2141 256.918 65.2016 256.918 65.1894C256.918 65.1769 256.918 65.1646 256.918 65.1524C256.918 65.1399 256.918 65.1276 256.918 65.1154C256.918 65.1032 256.918 65.0912 256.918 65.0789C256.918 65.0667 256.918 65.0547 256.918 65.0424C256.918 65.0304 256.918 65.0184 256.918 65.0064C256.918 64.9944 256.918 64.9824 256.918 64.9704C256.918 64.9584 256.918 64.9464 256.918 64.9347C256.918 64.9227 256.918 64.9109 256.918 64.8992C256.918 64.8872 256.918 64.8754 256.918 64.8636C256.918 64.8519 256.918 64.8401 256.918 64.8286C256.918 64.8169 256.918 64.8054 256.918 64.7936C256.918 64.7821 256.918 64.7706 256.918 64.7588C256.918 64.7473 256.918 64.7358 256.918 64.7243C256.918 64.713 256.918 64.7015 256.918 64.69C256.918 64.6787 256.918 64.6675 256.918 64.656C256.918 64.6447 256.918 64.6334 256.918 64.6222C256.918 64.6109 256.918 64.5996 256.918 64.5886C256.918 64.5774 256.918 64.5661 256.918 64.5551C256.918 64.5441 256.918 64.5328 256.918 64.5218C256.918 64.5107 256.918 64.4997 256.918 64.4887C256.918 64.4779 256.918 64.4669 256.918 64.4559C256.918 64.4451 256.918 64.4341 256.918 64.4233C256.918 64.4125 256.918 64.4018 256.918 64.391C256.918 64.3802 256.918 64.3694 256.918 64.3589C256.918 64.3481 256.918 64.3374 256.918 64.3268C256.918 64.3163 256.918 64.3058 256.918 64.295C256.918 64.2845 256.918 64.2739 256.918 64.2636C256.918 64.2531 256.918 64.2426 256.918 64.2323C256.918 64.2218 256.918 64.2115 256.918 64.2012C256.918 64.1909 256.918 64.1806 256.918 64.1703C256.918 64.1601 256.918 64.1498 256.918 64.1395C256.918 64.1294 256.918 64.1192 256.918 64.1091C256.918 64.0991 256.918 64.089 256.918 64.079C256.918 64.069 256.918 64.0589 256.918 64.0489C256.918 64.0388 256.918 64.029 256.918 64.019C256.918 64.0092 256.918 63.9992 256.918 63.9894C256.918 63.9796 256.918 63.9698 256.918 63.96C256.918 63.9504 256.918 63.9406 256.918 63.9308C256.918 63.9213 256.918 63.9115 256.918 63.9019C256.918 63.8924 256.918 63.8828 256.918 63.8733C256.918 63.8637 256.918 63.8542 256.918 63.8446C256.918 63.8353 256.918 63.8258 256.918 63.8165C256.918 63.8072 256.918 63.7976 256.918 63.7883C256.918 63.779 256.918 63.7697 256.918 63.7606C256.918 63.7513 256.918 63.742 256.918 63.733C256.918 63.7236 256.918 63.7146 256.918 63.7055C256.918 63.6965 256.918 63.6874 256.918 63.6783C256.918 63.6693 256.918 63.6602 256.918 63.6514C256.918 63.6423 256.918 63.6335 256.918 63.6245C256.918 63.6156 256.918 63.6068 256.918 63.598C256.918 63.5892 256.918 63.5804 256.918 63.5718C256.918 63.563 256.918 63.5542 256.918 63.5456C256.918 63.537 256.918 63.5282 256.918 63.5196C256.918 63.5111 256.918 63.5025 256.918 63.4942C256.918 63.4856 256.918 63.477 256.918 63.4687C256.918 63.4601 256.918 63.4518 256.918 63.4435C256.918 63.4352 256.918 63.4268 256.918 63.4185C256.918 63.4102 256.918 63.4018 256.918 63.3938C256.918 63.3854 256.918 63.3774 256.918 63.369C256.918 63.361 256.918 63.3529 256.918 63.3448C256.918 63.3367 256.918 63.3286 256.918 63.3208C256.918 63.3127 256.918 63.3049 256.918 63.2968C256.918 63.289 256.918 63.2811 256.918 63.2733C256.918 63.2654 256.918 63.2576 256.918 63.2498C256.918 63.2419 256.918 63.2343 256.918 63.2265C256.918 63.2189 256.918 63.2113 256.918 63.2037C256.918 63.1961 256.918 63.1885 256.918 63.181C256.918 63.1734 256.918 63.1658 256.918 63.1584C256.918 63.1508 256.918 63.1435 256.918 63.1361C256.918 63.1288 256.918 63.1214 256.918 63.1141C256.918 63.1067 256.918 63.0994 256.918 63.0921C256.918 63.085 256.918 63.0776 256.918 63.0705C256.918 63.0634 256.918 63.0563 256.918 63.0492C256.918 63.0421 256.918 63.035 256.918 63.0279C256.918 63.021 256.918 63.0139 256.918 63.0071C256.918 63.0002 256.918 62.9931 256.918 62.9863C256.918 62.9794 256.918 62.9725 256.918 62.9659C256.918 62.9591 256.918 62.9522 256.918 62.9456C256.918 62.939 256.918 62.9321 256.918 62.9255C256.918 62.9189 256.918 62.9123 256.918 62.9057C256.918 62.8993 256.918 62.8927 256.918 62.8861C256.918 62.8797 256.918 62.8734 256.918 62.8667C256.918 62.8604 256.918 62.854 256.918 62.8476C256.918 62.8415 256.918 62.8352 256.918 62.8288C256.918 62.8227 256.918 62.8163 256.918 62.8102C256.918 62.8041 256.918 62.7979 256.918 62.7918C256.918 62.7857 256.918 62.7796 256.918 62.7737C256.918 62.7676 256.918 62.7617 256.918 62.7556C256.918 62.7497 256.918 62.7438 256.918 62.7379C256.918 62.7321 256.918 62.7262 256.918 62.7205C256.918 62.7147 256.918 62.7088 256.918 62.7032C256.918 62.6975 256.918 62.6919 256.918 62.686C256.918 62.6804 256.918 62.675 256.918 62.6694C256.918 62.6637 256.918 62.6583 256.918 62.6527C256.918 62.6473 256.918 62.6419 256.918 62.6365C256.918 62.6309 256.918 62.6258 256.918 62.6204C256.918 62.615 256.918 62.6096 256.918 62.6045C256.918 62.5993 256.918 62.5939 256.918 62.5888C256.918 62.5836 256.918 62.5785 256.918 62.5734C256.918 62.5682 256.918 62.5633 256.918 62.5582C256.918 62.5533 256.918 62.5481 256.918 62.5432C256.918 62.5383 256.918 62.5334 256.918 62.5285C256.918 62.5236 256.918 62.519 256.918 62.5141C256.918 62.5094 256.918 62.5045 256.918 62.4999C256.918 62.4952 256.918 62.4906 256.918 62.4859C256.918 62.4813 256.918 62.4766 256.918 62.4722C256.918 62.4676 256.918 62.4632 256.918 62.4587C256.918 62.4541 256.918 62.4497 256.918 62.4453C256.918 62.4409 256.918 62.4367 256.918 62.4323C256.918 62.4279 256.918 62.4237 256.918 62.4196C256.918 62.4152 256.918 62.411 256.918 62.4068C256.918 62.4027 256.918 62.3987 256.918 62.3946C256.918 62.3904 256.918 62.3865 256.918 62.3823C256.918 62.3784 256.918 62.3745 256.918 62.3706C256.918 62.3667 256.918 62.3627 256.918 62.3591C256.918 62.3552 256.918 62.3512 256.918 62.3476C256.918 62.3439 256.918 62.3402 256.918 62.3365C256.918 62.3329 256.918 62.3292 256.918 62.3255C256.918 62.3218 256.918 62.3184 256.918 62.3147C256.918 62.3113 256.918 62.3079 256.918 62.3045C256.918 62.301 256.918 62.2976 256.918 62.2942C256.918 62.291 256.918 62.2876 256.918 62.2844C256.918 62.281 256.918 62.2778 256.918 62.2746C256.918 62.2714 256.918 62.2682 256.918 62.265C256.918 62.2621 256.918 62.2589 256.918 62.256C256.918 62.2528 256.918 62.2498 256.918 62.2469C256.918 62.244 256.918 62.241 256.918 62.2381C256.918 62.2352 256.918 62.2325 256.918 62.2295C256.918 62.2268 256.918 62.2241 256.918 62.2214C256.918 62.2187 256.918 62.2161 256.918 62.2134C256.918 62.2107 256.918 62.2082 256.918 62.2055C256.918 62.2031 256.918 62.2004 256.918 62.1979C256.918 62.1955 256.918 62.193 256.918 62.1908C256.918 62.1884 256.918 62.1859 256.918 62.1837C256.918 62.1813 256.918 62.1791 256.918 62.1769C256.918 62.1747 256.918 62.1725 256.918 62.1703C256.918 62.1681 256.918 62.1661 256.918 62.1639C256.918 62.1619 256.918 62.16 256.918 62.158C256.918 62.1561 256.918 62.1541 256.918 62.1521C256.918 62.1502 256.918 62.1482 256.918 62.1465C256.918 62.1448 256.918 62.1428 256.918 62.1411C256.918 62.1394 256.918 62.1377 256.918 62.136C256.918 62.1345 256.918 62.1328 256.918 62.1313C256.918 62.1296 256.918 62.1281 256.918 62.1267C256.918 62.1252 256.918 62.1237 256.918 62.1223C256.918 62.1208 256.918 62.1196 256.918 62.1181C256.918 62.1169 256.918 62.1156 256.918 62.1144C256.918 62.113 256.918 62.112 256.918 62.1107C256.918 62.1095 256.918 62.1083 256.918 62.1073C256.918 62.1063 256.918 62.1051 256.918 62.1041C256.918 62.1032 256.918 62.1022 256.918 62.1014C256.918 62.1005 256.918 62.0995 256.918 62.0987C256.918 62.0995 256.918 62.0978 256.918 62.0987C256.918 62.098 256.918 62.0931 256.918 62.0924C256.918 62.0919 256.918 62.0897 256.918 62.0894C256.918 62.0892 256.918 62.0867 256.918 62.0867C256.918 62.087 256.918 62.0865 256.918 62.0867C256.918 62.0867 256.918 62.0863 255.206 62.0863Z" fill="white"/>
<path d="M205.394 29.3877H218.157C227.664 29.3877 231.361 35.3353 231.361 44.2564V50.9037C231.361 60.6122 226.872 65.4227 217.101 65.4227H209.443V90.6122H205.394V29.3877ZM209.443 61.7492H217.101C224.231 61.7492 227.312 58.6006 227.312 51.1662V43.9941C227.312 37.3469 225.023 33.0612 218.157 33.0612H209.443V61.7492Z" fill="white"/>
<path d="M284.891 36.035V90.6122H281.193V29.3877H286.475L304.96 81.0786V29.3877H308.658V90.6122H304.168L284.891 36.035Z" fill="white"/>
<path d="M319.629 57.7258H336.44V61.3993H319.629V86.9387H339.875V90.6122H315.577V29.3877H339.875V33.0612H319.629V57.7258Z" fill="white"/>
</g>
<defs>
<clipPath id="clip0_128_152">
<rect width="379" height="120" fill="white"/>
</clipPath>
</defs>
</svg>
